<?xml version="1.0" encoding="iso-8859-1"?>
<!-- Generator: Adobe Illustrator 16.0.0, SVG Export Plug-In . SVG Version: 6.00 Build 0)  -->
<!DOCTYPE svg PUBLIC "-//W3C//DTD SVG 1.1//EN" "http://www.w3.org/Graphics/SVG/1.1/DTD/svg11.dtd">
<svg version="1.1" id="Layer_3" xmlns="http://www.w3.org/2000/svg" xmlns:xlink="http://www.w3.org/1999/xlink" x="0px" y="0px"
	 width="85.039px" height="85.04px" viewBox="0 0 85.039 85.04" style="enable-background:new 0 0 85.039 85.04;"
	 xml:space="preserve">
<symbol  id="Half-N_2" viewBox="-30.266 -70.86 80.37 142.227">
	<g id="Vertical_4_">
	</g>
	<g id="flange_11_">
	</g>
	<g id="flange_10_">
		<polygon style="fill:#FFFFFF;stroke:#000000;stroke-linejoin:round;stroke-miterlimit:10;" points="49.604,-17.008 -7.086,70.865 
			-7.086,70.866 -29.766,70.866 -29.766,-70.36 -7.086,-70.36 -7.086,43.936 49.604,-43.937 		"/>
	</g>
</symbol>
<symbol  id="N_2_" viewBox="-28.346 -28.556 56.693 57.112">
	
		<use xlink:href="#Half-N_2"  width="80.37" height="142.227" id="XMLID_6_" x="-30.266" y="-70.86" transform="matrix(0.4495 0 0.0698 0.3959 -9.5557 0)" style="overflow:visible;"/>
	
		<use xlink:href="#Half-N_2"  width="80.37" height="142.227" x="-30.266" y="-70.86" transform="matrix(-0.4495 0 -0.0698 -0.3959 9.5557 0)" style="overflow:visible;"/>
</symbol>
<symbol  id="QuarterBar" viewBox="-32.467 -5.979 26 11.898">
	<polyline style="fill:#FFFFFF;stroke:#000000;stroke-miterlimit:10;" points="-7.467,-4.637 -22.967,-4.637 -22.967,5.363 
		-7.467,5.363 	"/>
	<polygon style="fill:#FFFFFF;stroke:#000000;stroke-linejoin:bevel;stroke-miterlimit:10;" points="-31.967,-5.481 -22.967,-4.521 
		-22.967,5.479 -31.967,0.68 	"/>
	<polygon style="fill:#FFFFFF;" points="-6.467,-4.137 -21.467,-4.137 -21.467,4.863 -6.467,4.863 	"/>
	<polygon style="display:none;fill:none;" points="-32.467,5.863 -6.467,5.863 -6.467,-5.137 -32.467,-5.137 	"/>
</symbol>
<g id="N_1_">
	
		<use xlink:href="#N_2_"  width="56.693" height="57.112" x="-28.346" y="-28.556" transform="matrix(1 0 0 -1 42.5195 42.5195)" style="overflow:visible;"/>
</g>
<g id="N">
</g>
<g id="Vertical_2_">
</g>
<g id="flange_4_">
</g>
<g id="Vertical_3_">
</g>
<g id="flange_8_">
</g>
<g id="Vertical_6_">
</g>
<g id="flange_6_">
</g>
<g id="Vertical_7_">
</g>
<g id="flange_1_">
</g>
</svg>
