  0
SECTION
  2
HEADER
  9
$ACADVER
  1
AC1018
  9
$ACADMAINTVER
 70
     0
  9
$DWGCODEPAGE
  3
ANSI_932
  9
$INSBASE
 10
0.0
 20
0.0
 30
0.0
  9
$EXTMIN
 10
1.000000000000000E+20
 20
1.000000000000000E+20
 30
1.000000000000000E+20
  9
$EXTMAX
 10
-1.000000000000000E+20
 20
-1.000000000000000E+20
 30
-1.000000000000000E+20
  9
$LIMMIN
 10
0.0
 20
0.0
  9
$LIMMAX
 10
12.0
 20
9.0
  9
$ORTHOMODE
 70
     0
  9
$REGENMODE
 70
     1
  9
$FILLMODE
 70
     1
  9
$QTEXTMODE
 70
     0
  9
$MIRRTEXT
 70
     1
  9
$LTSCALE
 40
1.0
  9
$ATTMODE
 70
     1
  9
$TEXTSIZE
 40
0.2
  9
$TRACEWID
 40
0.05
  9
$TEXTSTYLE
  7
Standard
  9
$CLAYER
  8
0
  9
$CELTYPE
  6
ByLayer
  9
$CECOLOR
 62
   256
  9
$CELTSCALE
 40
1.0
  9
$DISPSILH
 70
     0
  9
$DIMSCALE
 40
1.0
  9
$DIMASZ
 40
0.18
  9
$DIMEXO
 40
0.0625
  9
$DIMDLI
 40
0.38
  9
$DIMRND
 40
0.0
  9
$DIMDLE
 40
0.0
  9
$DIMEXE
 40
0.18
  9
$DIMTP
 40
0.0
  9
$DIMTM
 40
0.0
  9
$DIMTXT
 40
0.18
  9
$DIMCEN
 40
0.09
  9
$DIMTSZ
 40
0.0
  9
$DIMTOL
 70
     0
  9
$DIMLIM
 70
     0
  9
$DIMTIH
 70
     1
  9
$DIMTOH
 70
     1
  9
$DIMSE1
 70
     0
  9
$DIMSE2
 70
     0
  9
$DIMTAD
 70
     0
  9
$DIMZIN
 70
     0
  9
$DIMBLK
  1

  9
$DIMASO
 70
     1
  9
$DIMSHO
 70
     1
  9
$DIMPOST
  1

  9
$DIMAPOST
  1

  9
$DIMALT
 70
     0
  9
$DIMALTD
 70
     2
  9
$DIMALTF
 40
25.4
  9
$DIMLFAC
 40
1.0
  9
$DIMTOFL
 70
     0
  9
$DIMTVP
 40
0.0
  9
$DIMTIX
 70
     0
  9
$DIMSOXD
 70
     0
  9
$DIMSAH
 70
     0
  9
$DIMBLK1
  1

  9
$DIMBLK2
  1

  9
$DIMSTYLE
  2
Standard
  9
$DIMCLRD
 70
     0
  9
$DIMCLRE
 70
     0
  9
$DIMCLRT
 70
     0
  9
$DIMTFAC
 40
1.0
  9
$DIMGAP
 40
0.09
  9
$DIMJUST
 70
     0
  9
$DIMSD1
 70
     0
  9
$DIMSD2
 70
     0
  9
$DIMTOLJ
 70
     1
  9
$DIMTZIN
 70
     0
  9
$DIMALTZ
 70
     0
  9
$DIMALTTZ
 70
     0
  9
$DIMUPT
 70
     0
  9
$DIMDEC
 70
     4
  9
$DIMTDEC
 70
     4
  9
$DIMALTU
 70
     2
  9
$DIMALTTD
 70
     2
  9
$DIMTXSTY
  7
Standard
  9
$DIMAUNIT
 70
     0
  9
$DIMADEC
 70
     0
  9
$DIMALTRND
 40
0.0
  9
$DIMAZIN
 70
     0
  9
$DIMDSEP
 70
    46
  9
$DIMATFIT
 70
     3
  9
$DIMFRAC
 70
     0
  9
$DIMLDRBLK
  1

  9
$DIMLUNIT
 70
     2
  9
$DIMLWD
 70
    -2
  9
$DIMLWE
 70
    -2
  9
$DIMTMOVE
 70
     0
  9
$LUNITS
 70
     2
  9
$LUPREC
 70
     4
  9
$SKETCHINC
 40
0.1
  9
$FILLETRAD
 40
0.5
  9
$AUNITS
 70
     0
  9
$AUPREC
 70
     0
  9
$MENU
  1
.
  9
$ELEVATION
 40
0.0
  9
$PELEVATION
 40
0.0
  9
$THICKNESS
 40
0.0
  9
$LIMCHECK
 70
     0
  9
$CHAMFERA
 40
0.5
  9
$CHAMFERB
 40
0.5
  9
$CHAMFERC
 40
1.0
  9
$CHAMFERD
 40
0.0
  9
$SKPOLY
 70
     0
  9
$TDCREATE
 40
2456732.508796296
  9
$TDUCREATE
 40
2456732.84212963
  9
$TDUPDATE
 40
2456732.508796308
  9
$TDUUPDATE
 40
2456732.842129641
  9
$TDINDWG
 40
0.0000000116
  9
$TDUSRTIMER
 40
0.0000000116
  9
$USRTIMER
 70
     1
  9
$ANGBASE
 50
0.0
  9
$ANGDIR
 70
     0
  9
$PDMODE
 70
     0
  9
$PDSIZE
 40
0.0
  9
$PLINEWID
 40
0.0
  9
$SPLFRAME
 70
     0
  9
$SPLINETYPE
 70
     6
  9
$SPLINESEGS
 70
     8
  9
$HANDSEED
  5
233
  9
$SURFTAB1
 70
     6
  9
$SURFTAB2
 70
     6
  9
$SURFTYPE
 70
     6
  9
$SURFU
 70
     6
  9
$SURFV
 70
     6
  9
$UCSBASE
  2

  9
$UCSNAME
  2

  9
$UCSORG
 10
0.0
 20
0.0
 30
0.0
  9
$UCSXDIR
 10
1.0
 20
0.0
 30
0.0
  9
$UCSYDIR
 10
0.0
 20
1.0
 30
0.0
  9
$UCSORTHOREF
  2

  9
$UCSORTHOVIEW
 70
     0
  9
$UCSORGTOP
 10
0.0
 20
0.0
 30
0.0
  9
$UCSORGBOTTOM
 10
0.0
 20
0.0
 30
0.0
  9
$UCSORGLEFT
 10
0.0
 20
0.0
 30
0.0
  9
$UCSORGRIGHT
 10
0.0
 20
0.0
 30
0.0
  9
$UCSORGFRONT
 10
0.0
 20
0.0
 30
0.0
  9
$UCSORGBACK
 10
0.0
 20
0.0
 30
0.0
  9
$PUCSBASE
  2

  9
$PUCSNAME
  2

  9
$PUCSORG
 10
0.0
 20
0.0
 30
0.0
  9
$PUCSXDIR
 10
1.0
 20
0.0
 30
0.0
  9
$PUCSYDIR
 10
0.0
 20
1.0
 30
0.0
  9
$PUCSORTHOREF
  2

  9
$PUCSORTHOVIEW
 70
     0
  9
$PUCSORGTOP
 10
0.0
 20
0.0
 30
0.0
  9
$PUCSORGBOTTOM
 10
0.0
 20
0.0
 30
0.0
  9
$PUCSORGLEFT
 10
0.0
 20
0.0
 30
0.0
  9
$PUCSORGRIGHT
 10
0.0
 20
0.0
 30
0.0
  9
$PUCSORGFRONT
 10
0.0
 20
0.0
 30
0.0
  9
$PUCSORGBACK
 10
0.0
 20
0.0
 30
0.0
  9
$USERI1
 70
     0
  9
$USERI2
 70
     0
  9
$USERI3
 70
     0
  9
$USERI4
 70
     0
  9
$USERI5
 70
     0
  9
$USERR1
 40
0.0
  9
$USERR2
 40
0.0
  9
$USERR3
 40
0.0
  9
$USERR4
 40
0.0
  9
$USERR5
 40
0.0
  9
$WORLDVIEW
 70
     1
  9
$SHADEDGE
 70
     3
  9
$SHADEDIF
 70
    70
  9
$TILEMODE
 70
     1
  9
$MAXACTVP
 70
    64
  9
$PINSBASE
 10
0.0
 20
0.0
 30
0.0
  9
$PLIMCHECK
 70
     0
  9
$PEXTMIN
 10
1.000000000000000E+20
 20
1.000000000000000E+20
 30
1.000000000000000E+20
  9
$PEXTMAX
 10
-1.000000000000000E+20
 20
-1.000000000000000E+20
 30
-1.000000000000000E+20
  9
$PLIMMIN
 10
0.0
 20
0.0
  9
$PLIMMAX
 10
12.0
 20
9.0
  9
$UNITMODE
 70
     0
  9
$VISRETAIN
 70
     1
  9
$PLINEGEN
 70
     0
  9
$PSLTSCALE
 70
     1
  9
$TREEDEPTH
 70
  3020
  9
$CMLSTYLE
  2
Standard
  9
$CMLJUST
 70
     0
  9
$CMLSCALE
 40
1.0
  9
$PROXYGRAPHICS
 70
     1
  9
$MEASUREMENT
 70
     0
  9
$CELWEIGHT
370
    -1
  9
$ENDCAPS
280
     0
  9
$JOINSTYLE
280
     0
  9
$LWDISPLAY
290
     1
  9
$INSUNITS
 70
     1
  9
$HYPERLINKBASE
  1

  9
$STYLESHEET
  1

  9
$XEDIT
290
     1
  9
$CEPSNTYPE
380
     0
  9
$PSTYLEMODE
290
     1
  9
$FINGERPRINTGUID
  2
{49C00B0F-5E31-1688-4091-DC9A65BA6B4F}
  9
$VERSIONGUID
  2
{FAEB1C32-E019-11D5-929B-00C0DF256EC4}
  9
$EXTNAMES
290
     1
  9
$PSVPSCALE
 40
0.0
  9
$OLESTARTUP
290
     0
  9
$SORTENTS
280
   127
  9
$INDEXCTL
280
     0
  9
$HIDETEXT
280
     1
  9
$XCLIPFRAME
290
     0
  9
$HALOGAP
280
     0
  9
$OBSCOLOR
 70
   257
  9
$OBSLTYPE
280
     0
  9
$INTERSECTIONDISPLAY
280
     0
  9
$INTERSECTIONCOLOR
 70
   257
  9
$DIMASSOC
280
     2
  9
$PROJECTNAME
  1

  0
ENDSEC
  0
SECTION
  2
CLASSES
  0
CLASS
  1
ACDBDICTIONARYWDFLT
  2
AcDbDictionaryWithDefault
  3
ObjectDBX Classes
 90
        0
 91
        3
280
     0
281
     0
  0
CLASS
  1
VISUALSTYLE
  2
AcDbVisualStyle
  3
ObjectDBX Classes
 90
     4095
 91
        3
280
     0
281
     0
  0
ENDSEC
  0
SECTION
  2
TABLES
  0
TABLE
  2
VPORT
  5
8
330
0
100
AcDbSymbolTable
 70
     1
  0
VPORT
  5
29
330
8
100
AcDbSymbolTableRecord
100
AcDbViewportTableRecord
  2
*Active
 70
     0
 10
0.0
 20
0.0
 11
1.0
 21
1.0
 12
0.0
 22
0.0
 13
0.0
 23
0.0
 14
0.5
 24
0.5
 15
0.5
 25
0.5
 16
0.0
 26
0.0
 36
1.0
 17
29.0362982783312
 27
-21.41109618605348
 37
0.0
 40
39.99997015059029
 41
0.9999913872548597
 42
50.0
 43
0.0
 44
0.0
 50
0.0
 51
0.0
 71
     0
 72
   100
 73
     1
 74
     3
 75
     0
 76
     0
 77
     0
 78
     0
281
     0
 65
     1
110
0.0
120
0.0
130
0.0
111
1.0
121
0.0
131
0.0
112
0.0
122
1.0
132
0.0
 79
     0
146
0.0
  0
ENDTAB
  0
TABLE
  2
LTYPE
  5
5
330
0
100
AcDbSymbolTable
 70
     1
  0
LTYPE
  5
14
330
5
100
AcDbSymbolTableRecord
100
AcDbLinetypeTableRecord
  2
ByBlock
 70
     0
  3

 72
    65
 73
     0
 40
0.0
  0
LTYPE
  5
15
330
5
100
AcDbSymbolTableRecord
100
AcDbLinetypeTableRecord
  2
ByLayer
 70
     0
  3

 72
    65
 73
     0
 40
0.0
  0
LTYPE
  5
16
330
5
100
AcDbSymbolTableRecord
100
AcDbLinetypeTableRecord
  2
Continuous
 70
     0
  3
Solid line
 72
    65
 73
     0
 40
0.0
  0
ENDTAB
  0
TABLE
  2
LAYER
  5
2
330
0
100
AcDbSymbolTable
 70
     2
  0
LAYER
  5
10
330
2
100
AcDbSymbolTableRecord
100
AcDbLayerTableRecord
  2
0
 70
     0
 62
     7
  6
Continuous
370
    -3
390
F
  0
LAYER
  5
3B
330
2
100
AcDbSymbolTableRecord
100
AcDbLayerTableRecord
  2
Layer 3
 70
     0
 62
     7
  6
Continuous
370
    -3
390
F
  0
ENDTAB
  0
TABLE
  2
STYLE
  5
3
330
0
100
AcDbSymbolTable
 70
   131
  0
STYLE
  5
11
330
3
100
AcDbSymbolTableRecord
100
AcDbTextStyleTableRecord
  2
Standard
 70
     0
 40
0.0
 41
1.0
 50
0.0
 71
     0
 42
0.2
  3
txt
  4

  0
STYLE
  5
3F
330
3
100
AcDbSymbolTableRecord
100
AcDbTextStyleTableRecord
  2
Style 1
 70
     0
 40
1.199444444144584
 41
1.0
 50
0.0
 71
     0
 42
1.199444444144584
  3
/Users/indolering/Library/Fonts/Ubuntu-B.ttf
  4

1001
ACAD
1000
Ubuntu
1071
 33554466
  0
STYLE
  5
41
330
3
100
AcDbSymbolTableRecord
100
AcDbTextStyleTableRecord
  2
Style 2
 70
     0
 40
1.199444444144584
 41
0.9999999403953552
 50
0.0
 71
     0
 42
1.199444444144584
  3
/Users/indolering/Library/Fonts/Ubuntu-B.ttf
  4

1001
ACAD
1000
Ubuntu
1071
 33554466
  0
STYLE
  5
43
330
3
100
AcDbSymbolTableRecord
100
AcDbTextStyleTableRecord
  2
Style 3
 70
     0
 40
1.199444444144584
 41
1.0
 50
0.0
 71
     0
 42
1.199444444144584
  3
/Users/indolering/Library/Fonts/Ubuntu-B.ttf
  4

1001
ACAD
1000
Ubuntu
1071
 33554466
  0
STYLE
  5
45
330
3
100
AcDbSymbolTableRecord
100
AcDbTextStyleTableRecord
  2
Style 4
 70
     0
 40
1.199444444144584
 41
1.0
 50
0.0
 71
     0
 42
1.199444444144584
  3
/Users/indolering/Library/Fonts/Ubuntu-B.ttf
  4

1001
ACAD
1000
Ubuntu
1071
 33554466
  0
STYLE
  5
47
330
3
100
AcDbSymbolTableRecord
100
AcDbTextStyleTableRecord
  2
Style 5
 70
     0
 40
1.199444444144584
 41
1.0
 50
0.0
 71
     0
 42
1.199444444144584
  3
/Users/indolering/Library/Fonts/Ubuntu-B.ttf
  4

1001
ACAD
1000
Ubuntu
1071
 33554466
  0
STYLE
  5
49
330
3
100
AcDbSymbolTableRecord
100
AcDbTextStyleTableRecord
  2
Style 6
 70
     0
 40
1.199444444144584
 41
1.0
 50
0.0
 71
     0
 42
1.199444444144584
  3
/Users/indolering/Library/Fonts/Ubuntu-B.ttf
  4

1001
ACAD
1000
Ubuntu
1071
 33554466
  0
STYLE
  5
4B
330
3
100
AcDbSymbolTableRecord
100
AcDbTextStyleTableRecord
  2
Style 7
 70
     0
 40
1.199444444144584
 41
0.9999999403953552
 50
0.0
 71
     0
 42
1.199444444144584
  3
/Users/indolering/Library/Fonts/Ubuntu-B.ttf
  4

1001
ACAD
1000
Ubuntu
1071
 33554466
  0
STYLE
  5
4D
330
3
100
AcDbSymbolTableRecord
100
AcDbTextStyleTableRecord
  2
Style 8
 70
     0
 40
1.199444444144584
 41
1.0
 50
0.0
 71
     0
 42
1.199444444144584
  3
/Users/indolering/Library/Fonts/Ubuntu-B.ttf
  4

1001
ACAD
1000
Ubuntu
1071
 33554466
  0
STYLE
  5
4F
330
3
100
AcDbSymbolTableRecord
100
AcDbTextStyleTableRecord
  2
Style 9
 70
     0
 40
1.199444444144584
 41
1.0
 50
0.0
 71
     0
 42
1.199444444144584
  3
/Users/indolering/Library/Fonts/Ubuntu-B.ttf
  4

1001
ACAD
1000
Ubuntu
1071
 33554466
  0
STYLE
  5
51
330
3
100
AcDbSymbolTableRecord
100
AcDbTextStyleTableRecord
  2
Style 10
 70
     0
 40
1.199444444144584
 41
1.0
 50
0.0
 71
     0
 42
1.199444444144584
  3
/Users/indolering/Library/Fonts/Ubuntu-B.ttf
  4

1001
ACAD
1000
Ubuntu
1071
 33554466
  0
STYLE
  5
53
330
3
100
AcDbSymbolTableRecord
100
AcDbTextStyleTableRecord
  2
Style 11
 70
     0
 40
1.199444444144584
 41
0.9999999403953552
 50
0.0
 71
     0
 42
1.199444444144584
  3
/Users/indolering/Library/Fonts/Ubuntu-B.ttf
  4

1001
ACAD
1000
Ubuntu
1071
 33554466
  0
STYLE
  5
55
330
3
100
AcDbSymbolTableRecord
100
AcDbTextStyleTableRecord
  2
Style 12
 70
     0
 40
1.199444444144584
 41
1.0
 50
0.0
 71
     0
 42
1.199444444144584
  3
/Users/indolering/Library/Fonts/Ubuntu-B.ttf
  4

1001
ACAD
1000
Ubuntu
1071
 33554466
  0
STYLE
  5
57
330
3
100
AcDbSymbolTableRecord
100
AcDbTextStyleTableRecord
  2
Style 13
 70
     0
 40
1.199444444144584
 41
0.9999999403953552
 50
0.0
 71
     0
 42
1.199444444144584
  3
/Users/indolering/Library/Fonts/Ubuntu-B.ttf
  4

1001
ACAD
1000
Ubuntu
1071
 33554466
  0
STYLE
  5
59
330
3
100
AcDbSymbolTableRecord
100
AcDbTextStyleTableRecord
  2
Style 14
 70
     0
 40
1.199444444144584
 41
0.9999999403953552
 50
0.0
 71
     0
 42
1.199444444144584
  3
/Users/indolering/Library/Fonts/Ubuntu-B.ttf
  4

1001
ACAD
1000
Ubuntu
1071
 33554466
  0
STYLE
  5
5B
330
3
100
AcDbSymbolTableRecord
100
AcDbTextStyleTableRecord
  2
Style 15
 70
     0
 40
1.199444444144584
 41
1.0
 50
0.0
 71
     0
 42
1.199444444144584
  3
/Users/indolering/Library/Fonts/Ubuntu-B.ttf
  4

1001
ACAD
1000
Ubuntu
1071
 33554466
  0
STYLE
  5
5D
330
3
100
AcDbSymbolTableRecord
100
AcDbTextStyleTableRecord
  2
Style 16
 70
     0
 40
1.199444444144584
 41
1.0
 50
0.0
 71
     0
 42
1.199444444144584
  3
/Users/indolering/Library/Fonts/Ubuntu-B.ttf
  4

1001
ACAD
1000
Ubuntu
1071
 33554466
  0
STYLE
  5
5F
330
3
100
AcDbSymbolTableRecord
100
AcDbTextStyleTableRecord
  2
Style 17
 70
     0
 40
1.199444444144584
 41
1.0
 50
0.0
 71
     0
 42
1.199444444144584
  3
/Users/indolering/Library/Fonts/Ubuntu-B.ttf
  4

1001
ACAD
1000
Ubuntu
1071
 33554466
  0
STYLE
  5
61
330
3
100
AcDbSymbolTableRecord
100
AcDbTextStyleTableRecord
  2
Style 18
 70
     0
 40
1.199444444144584
 41
1.0
 50
0.0
 71
     0
 42
1.199444444144584
  3
/Users/indolering/Library/Fonts/Ubuntu-B.ttf
  4

1001
ACAD
1000
Ubuntu
1071
 33554466
  0
STYLE
  5
63
330
3
100
AcDbSymbolTableRecord
100
AcDbTextStyleTableRecord
  2
Style 19
 70
     0
 40
1.199444444144584
 41
1.0
 50
0.0
 71
     0
 42
1.199444444144584
  3
/Users/indolering/Library/Fonts/Ubuntu-B.ttf
  4

1001
ACAD
1000
Ubuntu
1071
 33554466
  0
STYLE
  5
65
330
3
100
AcDbSymbolTableRecord
100
AcDbTextStyleTableRecord
  2
Style 20
 70
     0
 40
1.199444444144584
 41
0.9999999403953552
 50
0.0
 71
     0
 42
1.199444444144584
  3
/Users/indolering/Library/Fonts/Ubuntu-B.ttf
  4

1001
ACAD
1000
Ubuntu
1071
 33554466
  0
STYLE
  5
67
330
3
100
AcDbSymbolTableRecord
100
AcDbTextStyleTableRecord
  2
Style 21
 70
     0
 40
1.199444329756647
 41
1.0
 50
0.0
 71
     0
 42
1.199444329756647
  3
/Users/indolering/Library/Fonts/Ubuntu-B.ttf
  4

1001
ACAD
1000
Ubuntu
1071
 33554466
  0
STYLE
  5
69
330
3
100
AcDbSymbolTableRecord
100
AcDbTextStyleTableRecord
  2
Style 22
 70
     0
 40
1.199444444144584
 41
1.0
 50
0.0
 71
     0
 42
1.199444444144584
  3
/Users/indolering/Library/Fonts/Ubuntu-B.ttf
  4

1001
ACAD
1000
Ubuntu
1071
 33554466
  0
STYLE
  5
6B
330
3
100
AcDbSymbolTableRecord
100
AcDbTextStyleTableRecord
  2
Style 23
 70
     0
 40
1.199444444144584
 41
1.0
 50
0.0
 71
     0
 42
1.199444444144584
  3
/Users/indolering/Library/Fonts/Ubuntu-B.ttf
  4

1001
ACAD
1000
Ubuntu
1071
 33554466
  0
STYLE
  5
83
330
3
100
AcDbSymbolTableRecord
100
AcDbTextStyleTableRecord
  2
Style 24
 70
     0
 40
1.210505643171105
 41
1.0
 50
0.0
 71
     0
 42
1.210505643171105
  3
/Users/indolering/Library/Fonts/Ubuntu-B.ttf
  4

1001
ACAD
1000
Ubuntu
1071
 33554466
  0
STYLE
  5
85
330
3
100
AcDbSymbolTableRecord
100
AcDbTextStyleTableRecord
  2
Style 25
 70
     0
 40
1.210505757559041
 41
1.0
 50
0.0
 71
     0
 42
1.210505757559041
  3
/Users/indolering/Library/Fonts/Ubuntu-B.ttf
  4

1001
ACAD
1000
Ubuntu
1071
 33554466
  0
STYLE
  5
87
330
3
100
AcDbSymbolTableRecord
100
AcDbTextStyleTableRecord
  2
Style 26
 70
     0
 40
1.210505757559041
 41
1.0
 50
0.0
 71
     0
 42
1.210505757559041
  3
/Users/indolering/Library/Fonts/Ubuntu-B.ttf
  4

1001
ACAD
1000
Ubuntu
1071
 33554466
  0
STYLE
  5
89
330
3
100
AcDbSymbolTableRecord
100
AcDbTextStyleTableRecord
  2
Style 27
 70
     0
 40
1.210505757559041
 41
1.0
 50
0.0
 71
     0
 42
1.210505757559041
  3
/Users/indolering/Library/Fonts/Ubuntu-B.ttf
  4

1001
ACAD
1000
Ubuntu
1071
 33554466
  0
STYLE
  5
8B
330
3
100
AcDbSymbolTableRecord
100
AcDbTextStyleTableRecord
  2
Style 28
 70
     0
 40
1.210505757559041
 41
1.0
 50
0.0
 71
     0
 42
1.210505757559041
  3
/Users/indolering/Library/Fonts/Ubuntu-B.ttf
  4

1001
ACAD
1000
Ubuntu
1071
 33554466
  0
STYLE
  5
8D
330
3
100
AcDbSymbolTableRecord
100
AcDbTextStyleTableRecord
  2
Style 29
 70
     0
 40
1.210505757559041
 41
1.0
 50
0.0
 71
     0
 42
1.210505757559041
  3
/Users/indolering/Library/Fonts/Ubuntu-B.ttf
  4

1001
ACAD
1000
Ubuntu
1071
 33554466
  0
STYLE
  5
8F
330
3
100
AcDbSymbolTableRecord
100
AcDbTextStyleTableRecord
  2
Style 30
 70
     0
 40
1.210505757559041
 41
1.0
 50
0.0
 71
     0
 42
1.210505757559041
  3
/Users/indolering/Library/Fonts/Ubuntu-B.ttf
  4

1001
ACAD
1000
Ubuntu
1071
 33554466
  0
STYLE
  5
91
330
3
100
AcDbSymbolTableRecord
100
AcDbTextStyleTableRecord
  2
Style 31
 70
     0
 40
1.210505757559041
 41
1.0
 50
0.0
 71
     0
 42
1.210505757559041
  3
/Users/indolering/Library/Fonts/Ubuntu-B.ttf
  4

1001
ACAD
1000
Ubuntu
1071
 33554466
  0
STYLE
  5
93
330
3
100
AcDbSymbolTableRecord
100
AcDbTextStyleTableRecord
  2
Style 32
 70
     0
 40
1.210505757559041
 41
1.0
 50
0.0
 71
     0
 42
1.210505757559041
  3
/Users/indolering/Library/Fonts/Ubuntu-B.ttf
  4

1001
ACAD
1000
Ubuntu
1071
 33554466
  0
STYLE
  5
95
330
3
100
AcDbSymbolTableRecord
100
AcDbTextStyleTableRecord
  2
Style 33
 70
     0
 40
1.210505757559041
 41
1.0
 50
0.0
 71
     0
 42
1.210505757559041
  3
/Users/indolering/Library/Fonts/Ubuntu-B.ttf
  4

1001
ACAD
1000
Ubuntu
1071
 33554466
  0
STYLE
  5
97
330
3
100
AcDbSymbolTableRecord
100
AcDbTextStyleTableRecord
  2
Style 34
 70
     0
 40
1.210505757559041
 41
0.9999999403953552
 50
0.0
 71
     0
 42
1.210505757559041
  3
/Users/indolering/Library/Fonts/Ubuntu-B.ttf
  4

1001
ACAD
1000
Ubuntu
1071
 33554466
  0
STYLE
  5
99
330
3
100
AcDbSymbolTableRecord
100
AcDbTextStyleTableRecord
  2
Style 35
 70
     0
 40
1.210505757559041
 41
1.0
 50
0.0
 71
     0
 42
1.210505757559041
  3
/Users/indolering/Library/Fonts/Ubuntu-B.ttf
  4

1001
ACAD
1000
Ubuntu
1071
 33554466
  0
STYLE
  5
9B
330
3
100
AcDbSymbolTableRecord
100
AcDbTextStyleTableRecord
  2
Style 36
 70
     0
 40
1.210505757559041
 41
1.0
 50
0.0
 71
     0
 42
1.210505757559041
  3
/Users/indolering/Library/Fonts/Ubuntu-B.ttf
  4

1001
ACAD
1000
Ubuntu
1071
 33554466
  0
STYLE
  5
9D
330
3
100
AcDbSymbolTableRecord
100
AcDbTextStyleTableRecord
  2
Style 37
 70
     0
 40
1.210505757559041
 41
1.0
 50
0.0
 71
     0
 42
1.210505757559041
  3
/Users/indolering/Library/Fonts/Ubuntu-B.ttf
  4

1001
ACAD
1000
Ubuntu
1071
 33554466
  0
STYLE
  5
9F
330
3
100
AcDbSymbolTableRecord
100
AcDbTextStyleTableRecord
  2
Style 38
 70
     0
 40
1.210505757559041
 41
1.0
 50
0.0
 71
     0
 42
1.210505757559041
  3
/Users/indolering/Library/Fonts/Ubuntu-B.ttf
  4

1001
ACAD
1000
Ubuntu
1071
 33554466
  0
STYLE
  5
A1
330
3
100
AcDbSymbolTableRecord
100
AcDbTextStyleTableRecord
  2
Style 39
 70
     0
 40
1.210505871946977
 41
1.0
 50
0.0
 71
     0
 42
1.210505871946977
  3
/Users/indolering/Library/Fonts/Ubuntu-B.ttf
  4

1001
ACAD
1000
Ubuntu
1071
 33554466
  0
STYLE
  5
A3
330
3
100
AcDbSymbolTableRecord
100
AcDbTextStyleTableRecord
  2
Style 40
 70
     0
 40
1.210505757559041
 41
1.0
 50
0.0
 71
     0
 42
1.210505757559041
  3
/Users/indolering/Library/Fonts/Ubuntu-B.ttf
  4

1001
ACAD
1000
Ubuntu
1071
 33554466
  0
STYLE
  5
A5
330
3
100
AcDbSymbolTableRecord
100
AcDbTextStyleTableRecord
  2
Style 41
 70
     0
 40
1.210505757559041
 41
1.0
 50
0.0
 71
     0
 42
1.210505757559041
  3
/Users/indolering/Library/Fonts/Ubuntu-B.ttf
  4

1001
ACAD
1000
Ubuntu
1071
 33554466
  0
STYLE
  5
A7
330
3
100
AcDbSymbolTableRecord
100
AcDbTextStyleTableRecord
  2
Style 42
 70
     0
 40
1.210505757559041
 41
1.0
 50
0.0
 71
     0
 42
1.210505757559041
  3
/Users/indolering/Library/Fonts/Ubuntu-B.ttf
  4

1001
ACAD
1000
Ubuntu
1071
 33554466
  0
STYLE
  5
A9
330
3
100
AcDbSymbolTableRecord
100
AcDbTextStyleTableRecord
  2
Style 43
 70
     0
 40
1.210505757559041
 41
1.0
 50
0.0
 71
     0
 42
1.210505757559041
  3
/Users/indolering/Library/Fonts/Ubuntu-B.ttf
  4

1001
ACAD
1000
Ubuntu
1071
 33554466
  0
STYLE
  5
AB
330
3
100
AcDbSymbolTableRecord
100
AcDbTextStyleTableRecord
  2
Style 44
 70
     0
 40
1.210505757559041
 41
1.0
 50
0.0
 71
     0
 42
1.210505757559041
  3
/Users/indolering/Library/Fonts/Ubuntu-B.ttf
  4

1001
ACAD
1000
Ubuntu
1071
 33554466
  0
STYLE
  5
AD
330
3
100
AcDbSymbolTableRecord
100
AcDbTextStyleTableRecord
  2
Style 45
 70
     0
 40
1.210505757559041
 41
1.0
 50
0.0
 71
     0
 42
1.210505757559041
  3
/Users/indolering/Library/Fonts/Ubuntu-B.ttf
  4

1001
ACAD
1000
Ubuntu
1071
 33554466
  0
STYLE
  5
AF
330
3
100
AcDbSymbolTableRecord
100
AcDbTextStyleTableRecord
  2
Style 46
 70
     0
 40
1.210505643171105
 41
1.0
 50
0.0
 71
     0
 42
1.210505643171105
  3
/Users/indolering/Library/Fonts/Ubuntu-B.ttf
  4

1001
ACAD
1000
Ubuntu
1071
 33554466
  0
STYLE
  5
B1
330
3
100
AcDbSymbolTableRecord
100
AcDbTextStyleTableRecord
  2
Style 47
 70
     0
 40
1.210505757559041
 41
1.0
 50
0.0
 71
     0
 42
1.210505757559041
  3
/Users/indolering/Library/Fonts/Ubuntu-B.ttf
  4

1001
ACAD
1000
Ubuntu
1071
 33554466
  0
STYLE
  5
B3
330
3
100
AcDbSymbolTableRecord
100
AcDbTextStyleTableRecord
  2
Style 48
 70
     0
 40
1.210505757559041
 41
0.9999999403953552
 50
0.0
 71
     0
 42
1.210505757559041
  3
/Users/indolering/Library/Fonts/Ubuntu-B.ttf
  4

1001
ACAD
1000
Ubuntu
1071
 33554466
  0
STYLE
  5
B5
330
3
100
AcDbSymbolTableRecord
100
AcDbTextStyleTableRecord
  2
Style 49
 70
     0
 40
1.210505757559041
 41
0.9999999403953552
 50
0.0
 71
     0
 42
1.210505757559041
  3
/Users/indolering/Library/Fonts/Ubuntu-B.ttf
  4

1001
ACAD
1000
Ubuntu
1071
 33554466
  0
STYLE
  5
B7
330
3
100
AcDbSymbolTableRecord
100
AcDbTextStyleTableRecord
  2
Style 50
 70
     0
 40
1.210505757559041
 41
0.9999999403953552
 50
0.0
 71
     0
 42
1.210505757559041
  3
/Users/indolering/Library/Fonts/Ubuntu-B.ttf
  4

1001
ACAD
1000
Ubuntu
1071
 33554466
  0
STYLE
  5
B9
330
3
100
AcDbSymbolTableRecord
100
AcDbTextStyleTableRecord
  2
Style 51
 70
     0
 40
1.210505757559041
 41
1.0
 50
0.0
 71
     0
 42
1.210505757559041
  3
/Users/indolering/Library/Fonts/Ubuntu-B.ttf
  4

1001
ACAD
1000
Ubuntu
1071
 33554466
  0
STYLE
  5
BB
330
3
100
AcDbSymbolTableRecord
100
AcDbTextStyleTableRecord
  2
Style 52
 70
     0
 40
1.210505757559041
 41
1.0
 50
0.0
 71
     0
 42
1.210505757559041
  3
/Users/indolering/Library/Fonts/Ubuntu-B.ttf
  4

1001
ACAD
1000
Ubuntu
1071
 33554466
  0
STYLE
  5
BD
330
3
100
AcDbSymbolTableRecord
100
AcDbTextStyleTableRecord
  2
Style 53
 70
     0
 40
1.210505757559041
 41
0.9999999403953552
 50
0.0
 71
     0
 42
1.210505757559041
  3
/Users/indolering/Library/Fonts/Ubuntu-B.ttf
  4

1001
ACAD
1000
Ubuntu
1071
 33554466
  0
STYLE
  5
BF
330
3
100
AcDbSymbolTableRecord
100
AcDbTextStyleTableRecord
  2
Style 54
 70
     0
 40
1.210505757559041
 41
1.0
 50
0.0
 71
     0
 42
1.210505757559041
  3
/Users/indolering/Library/Fonts/Ubuntu-B.ttf
  4

1001
ACAD
1000
Ubuntu
1071
 33554466
  0
STYLE
  5
C1
330
3
100
AcDbSymbolTableRecord
100
AcDbTextStyleTableRecord
  2
Style 55
 70
     0
 40
1.210505757559041
 41
0.9999999403953552
 50
0.0
 71
     0
 42
1.210505757559041
  3
/Users/indolering/Library/Fonts/Ubuntu-B.ttf
  4

1001
ACAD
1000
Ubuntu
1071
 33554466
  0
STYLE
  5
C3
330
3
100
AcDbSymbolTableRecord
100
AcDbTextStyleTableRecord
  2
Style 56
 70
     0
 40
1.210505757559041
 41
1.0
 50
0.0
 71
     0
 42
1.210505757559041
  3
/Users/indolering/Library/Fonts/Ubuntu-B.ttf
  4

1001
ACAD
1000
Ubuntu
1071
 33554466
  0
STYLE
  5
C5
330
3
100
AcDbSymbolTableRecord
100
AcDbTextStyleTableRecord
  2
Style 57
 70
     0
 40
1.210505757559041
 41
1.0
 50
0.0
 71
     0
 42
1.210505757559041
  3
/Users/indolering/Library/Fonts/Ubuntu-B.ttf
  4

1001
ACAD
1000
Ubuntu
1071
 33554466
  0
STYLE
  5
C7
330
3
100
AcDbSymbolTableRecord
100
AcDbTextStyleTableRecord
  2
Style 58
 70
     0
 40
1.210505757559041
 41
0.9999999403953552
 50
0.0
 71
     0
 42
1.210505757559041
  3
/Users/indolering/Library/Fonts/Ubuntu-B.ttf
  4

1001
ACAD
1000
Ubuntu
1071
 33554466
  0
STYLE
  5
C9
330
3
100
AcDbSymbolTableRecord
100
AcDbTextStyleTableRecord
  2
Style 59
 70
     0
 40
1.210505757559041
 41
1.0
 50
0.0
 71
     0
 42
1.210505757559041
  3
/Users/indolering/Library/Fonts/Ubuntu-B.ttf
  4

1001
ACAD
1000
Ubuntu
1071
 33554466
  0
STYLE
  5
CB
330
3
100
AcDbSymbolTableRecord
100
AcDbTextStyleTableRecord
  2
Style 60
 70
     0
 40
1.210505757559041
 41
1.0
 50
0.0
 71
     0
 42
1.210505757559041
  3
/Users/indolering/Library/Fonts/Ubuntu-B.ttf
  4

1001
ACAD
1000
Ubuntu
1071
 33554466
  0
STYLE
  5
CD
330
3
100
AcDbSymbolTableRecord
100
AcDbTextStyleTableRecord
  2
Style 61
 70
     0
 40
1.210505757559041
 41
1.0
 50
0.0
 71
     0
 42
1.210505757559041
  3
/Users/indolering/Library/Fonts/Ubuntu-B.ttf
  4

1001
ACAD
1000
Ubuntu
1071
 33554466
  0
STYLE
  5
CF
330
3
100
AcDbSymbolTableRecord
100
AcDbTextStyleTableRecord
  2
Style 62
 70
     0
 40
1.210505757559041
 41
1.0
 50
0.0
 71
     0
 42
1.210505757559041
  3
/Users/indolering/Library/Fonts/Ubuntu-B.ttf
  4

1001
ACAD
1000
Ubuntu
1071
 33554466
  0
STYLE
  5
D1
330
3
100
AcDbSymbolTableRecord
100
AcDbTextStyleTableRecord
  2
Style 63
 70
     0
 40
1.210505757559041
 41
1.0
 50
0.0
 71
     0
 42
1.210505757559041
  3
/Users/indolering/Library/Fonts/Ubuntu-B.ttf
  4

1001
ACAD
1000
Ubuntu
1071
 33554466
  0
STYLE
  5
D3
330
3
100
AcDbSymbolTableRecord
100
AcDbTextStyleTableRecord
  2
Style 64
 70
     0
 40
1.210505757559041
 41
1.0
 50
0.0
 71
     0
 42
1.210505757559041
  3
/Users/indolering/Library/Fonts/Ubuntu-B.ttf
  4

1001
ACAD
1000
Ubuntu
1071
 33554466
  0
STYLE
  5
D5
330
3
100
AcDbSymbolTableRecord
100
AcDbTextStyleTableRecord
  2
Style 65
 70
     0
 40
1.210505643171105
 41
0.9999999403953552
 50
0.0
 71
     0
 42
1.210505643171105
  3
/Users/indolering/Library/Fonts/Ubuntu-B.ttf
  4

1001
ACAD
1000
Ubuntu
1071
 33554466
  0
STYLE
  5
D7
330
3
100
AcDbSymbolTableRecord
100
AcDbTextStyleTableRecord
  2
Style 66
 70
     0
 40
1.210505643171105
 41
1.0
 50
0.0
 71
     0
 42
1.210505643171105
  3
/Library/Fonts/MyriadPro-Bold.otf
  4

1001
ACAD
1000
Myriad Pro
1071
 33554466
  0
STYLE
  5
D9
330
3
100
AcDbSymbolTableRecord
100
AcDbTextStyleTableRecord
  2
Style 67
 70
     0
 40
1.210505757559041
 41
1.0
 50
0.0
 71
     0
 42
1.210505757559041
  3
/Library/Fonts/MyriadPro-Bold.otf
  4

1001
ACAD
1000
Myriad Pro
1071
 33554466
  0
STYLE
  5
DB
330
3
100
AcDbSymbolTableRecord
100
AcDbTextStyleTableRecord
  2
Style 68
 70
     0
 40
1.210505757559041
 41
1.0
 50
0.0
 71
     0
 42
1.210505757559041
  3
/Library/Fonts/MyriadPro-Bold.otf
  4

1001
ACAD
1000
Myriad Pro
1071
 33554466
  0
STYLE
  5
DD
330
3
100
AcDbSymbolTableRecord
100
AcDbTextStyleTableRecord
  2
Style 69
 70
     0
 40
1.210505757559041
 41
1.0
 50
0.0
 71
     0
 42
1.210505757559041
  3
/Library/Fonts/MyriadPro-Bold.otf
  4

1001
ACAD
1000
Myriad Pro
1071
 33554466
  0
STYLE
  5
DF
330
3
100
AcDbSymbolTableRecord
100
AcDbTextStyleTableRecord
  2
Style 70
 70
     0
 40
1.210505757559041
 41
1.0
 50
0.0
 71
     0
 42
1.210505757559041
  3
/Library/Fonts/MyriadPro-Bold.otf
  4

1001
ACAD
1000
Myriad Pro
1071
 33554466
  0
STYLE
  5
E1
330
3
100
AcDbSymbolTableRecord
100
AcDbTextStyleTableRecord
  2
Style 71
 70
     0
 40
1.210505757559041
 41
0.9999999403953552
 50
0.0
 71
     0
 42
1.210505757559041
  3
/Library/Fonts/MyriadPro-Bold.otf
  4

1001
ACAD
1000
Myriad Pro
1071
 33554466
  0
STYLE
  5
E3
330
3
100
AcDbSymbolTableRecord
100
AcDbTextStyleTableRecord
  2
Style 72
 70
     0
 40
1.210505757559041
 41
1.0
 50
0.0
 71
     0
 42
1.210505757559041
  3
/Library/Fonts/MyriadPro-Bold.otf
  4

1001
ACAD
1000
Myriad Pro
1071
 33554466
  0
STYLE
  5
E5
330
3
100
AcDbSymbolTableRecord
100
AcDbTextStyleTableRecord
  2
Style 73
 70
     0
 40
1.210505757559041
 41
1.0
 50
0.0
 71
     0
 42
1.210505757559041
  3
/Library/Fonts/MyriadPro-Bold.otf
  4

1001
ACAD
1000
Myriad Pro
1071
 33554466
  0
STYLE
  5
E7
330
3
100
AcDbSymbolTableRecord
100
AcDbTextStyleTableRecord
  2
Style 74
 70
     0
 40
1.210505757559041
 41
1.0
 50
0.0
 71
     0
 42
1.210505757559041
  3
/Library/Fonts/MyriadPro-Bold.otf
  4

1001
ACAD
1000
Myriad Pro
1071
 33554466
  0
STYLE
  5
E9
330
3
100
AcDbSymbolTableRecord
100
AcDbTextStyleTableRecord
  2
Style 75
 70
     0
 40
1.210505757559041
 41
1.0
 50
0.0
 71
     0
 42
1.210505757559041
  3
/Library/Fonts/MyriadPro-Bold.otf
  4

1001
ACAD
1000
Myriad Pro
1071
 33554466
  0
STYLE
  5
EB
330
3
100
AcDbSymbolTableRecord
100
AcDbTextStyleTableRecord
  2
Style 76
 70
     0
 40
1.210505757559041
 41
1.0
 50
0.0
 71
     0
 42
1.210505757559041
  3
/Library/Fonts/MyriadPro-Bold.otf
  4

1001
ACAD
1000
Myriad Pro
1071
 33554466
  0
STYLE
  5
ED
330
3
100
AcDbSymbolTableRecord
100
AcDbTextStyleTableRecord
  2
Style 77
 70
     0
 40
1.210505757559041
 41
0.9999999403953552
 50
0.0
 71
     0
 42
1.210505757559041
  3
/Library/Fonts/MyriadPro-Bold.otf
  4

1001
ACAD
1000
Myriad Pro
1071
 33554466
  0
STYLE
  5
EF
330
3
100
AcDbSymbolTableRecord
100
AcDbTextStyleTableRecord
  2
Style 78
 70
     0
 40
1.210505757559041
 41
1.0
 50
0.0
 71
     0
 42
1.210505757559041
  3
/Library/Fonts/MyriadPro-Bold.otf
  4

1001
ACAD
1000
Myriad Pro
1071
 33554466
  0
STYLE
  5
F1
330
3
100
AcDbSymbolTableRecord
100
AcDbTextStyleTableRecord
  2
Style 79
 70
     0
 40
1.210505757559041
 41
1.0
 50
0.0
 71
     0
 42
1.210505757559041
  3
/Library/Fonts/MyriadPro-Bold.otf
  4

1001
ACAD
1000
Myriad Pro
1071
 33554466
  0
STYLE
  5
F3
330
3
100
AcDbSymbolTableRecord
100
AcDbTextStyleTableRecord
  2
Style 80
 70
     0
 40
1.210505757559041
 41
1.0
 50
0.0
 71
     0
 42
1.210505757559041
  3
/Library/Fonts/MyriadPro-Bold.otf
  4

1001
ACAD
1000
Myriad Pro
1071
 33554466
  0
STYLE
  5
F5
330
3
100
AcDbSymbolTableRecord
100
AcDbTextStyleTableRecord
  2
Style 81
 70
     0
 40
1.210505757559041
 41
1.0
 50
0.0
 71
     0
 42
1.210505757559041
  3
/Library/Fonts/MyriadPro-Bold.otf
  4

1001
ACAD
1000
Myriad Pro
1071
 33554466
  0
STYLE
  5
F7
330
3
100
AcDbSymbolTableRecord
100
AcDbTextStyleTableRecord
  2
Style 82
 70
     0
 40
1.210505757559041
 41
1.0
 50
0.0
 71
     0
 42
1.210505757559041
  3
/Library/Fonts/MyriadPro-Bold.otf
  4

1001
ACAD
1000
Myriad Pro
1071
 33554466
  0
STYLE
  5
F9
330
3
100
AcDbSymbolTableRecord
100
AcDbTextStyleTableRecord
  2
Style 83
 70
     0
 40
1.210505757559041
 41
0.9999999403953552
 50
0.0
 71
     0
 42
1.210505757559041
  3
/Library/Fonts/MyriadPro-Bold.otf
  4

1001
ACAD
1000
Myriad Pro
1071
 33554466
  0
STYLE
  5
FB
330
3
100
AcDbSymbolTableRecord
100
AcDbTextStyleTableRecord
  2
Style 84
 70
     0
 40
1.210505757559041
 41
0.9999999403953552
 50
0.0
 71
     0
 42
1.210505757559041
  3
/Library/Fonts/MyriadPro-Bold.otf
  4

1001
ACAD
1000
Myriad Pro
1071
 33554466
  0
STYLE
  5
FD
330
3
100
AcDbSymbolTableRecord
100
AcDbTextStyleTableRecord
  2
Style 85
 70
     0
 40
1.210505757559041
 41
1.0
 50
0.0
 71
     0
 42
1.210505757559041
  3
/Library/Fonts/MyriadPro-Bold.otf
  4

1001
ACAD
1000
Myriad Pro
1071
 33554466
  0
STYLE
  5
FF
330
3
100
AcDbSymbolTableRecord
100
AcDbTextStyleTableRecord
  2
Style 86
 70
     0
 40
1.210505757559041
 41
0.9999999403953552
 50
0.0
 71
     0
 42
1.210505757559041
  3
/Library/Fonts/MyriadPro-Bold.otf
  4

1001
ACAD
1000
Myriad Pro
1071
 33554466
  0
STYLE
  5
101
330
3
100
AcDbSymbolTableRecord
100
AcDbTextStyleTableRecord
  2
Style 87
 70
     0
 40
1.210505757559041
 41
1.0
 50
0.0
 71
     0
 42
1.210505757559041
  3
/Library/Fonts/MyriadPro-Bold.otf
  4

1001
ACAD
1000
Myriad Pro
1071
 33554466
  0
STYLE
  5
103
330
3
100
AcDbSymbolTableRecord
100
AcDbTextStyleTableRecord
  2
Style 88
 70
     0
 40
1.210505757559041
 41
1.0
 50
0.0
 71
     0
 42
1.210505757559041
  3
/Library/Fonts/MyriadPro-Bold.otf
  4

1001
ACAD
1000
Myriad Pro
1071
 33554466
  0
STYLE
  5
105
330
3
100
AcDbSymbolTableRecord
100
AcDbTextStyleTableRecord
  2
Style 89
 70
     0
 40
1.088318394494834
 41
1.0
 50
0.0
 71
     0
 42
1.088318394494834
  3
/Library/Fonts/MyriadPro-Bold.otf
  4

1001
ACAD
1000
Myriad Pro
1071
 33554466
  0
STYLE
  5
107
330
3
100
AcDbSymbolTableRecord
100
AcDbTextStyleTableRecord
  2
Style 90
 70
     0
 40
1.088318280106898
 41
1.0
 50
0.0
 71
     0
 42
1.088318280106898
  3
/Library/Fonts/MyriadPro-Bold.otf
  4

1001
ACAD
1000
Myriad Pro
1071
 33554466
  0
STYLE
  5
109
330
3
100
AcDbSymbolTableRecord
100
AcDbTextStyleTableRecord
  2
Style 91
 70
     0
 40
1.088318280106898
 41
1.0
 50
0.0
 71
     0
 42
1.088318280106898
  3
/Library/Fonts/MyriadPro-Bold.otf
  4

1001
ACAD
1000
Myriad Pro
1071
 33554466
  0
STYLE
  5
10B
330
3
100
AcDbSymbolTableRecord
100
AcDbTextStyleTableRecord
  2
Style 92
 70
     0
 40
1.088318280106898
 41
1.0
 50
0.0
 71
     0
 42
1.088318280106898
  3
/Library/Fonts/MyriadPro-Bold.otf
  4

1001
ACAD
1000
Myriad Pro
1071
 33554466
  0
STYLE
  5
10D
330
3
100
AcDbSymbolTableRecord
100
AcDbTextStyleTableRecord
  2
Style 93
 70
     0
 40
1.088318280106898
 41
1.0
 50
0.0
 71
     0
 42
1.088318280106898
  3
/Library/Fonts/MyriadPro-Bold.otf
  4

1001
ACAD
1000
Myriad Pro
1071
 33554466
  0
STYLE
  5
10F
330
3
100
AcDbSymbolTableRecord
100
AcDbTextStyleTableRecord
  2
Style 94
 70
     0
 40
1.088318280106898
 41
1.0
 50
0.0
 71
     0
 42
1.088318280106898
  3
/Library/Fonts/MyriadPro-Bold.otf
  4

1001
ACAD
1000
Myriad Pro
1071
 33554466
  0
STYLE
  5
111
330
3
100
AcDbSymbolTableRecord
100
AcDbTextStyleTableRecord
  2
Style 95
 70
     0
 40
1.088318280106898
 41
1.0
 50
0.0
 71
     0
 42
1.088318280106898
  3
/Library/Fonts/MyriadPro-Bold.otf
  4

1001
ACAD
1000
Myriad Pro
1071
 33554466
  0
STYLE
  5
113
330
3
100
AcDbSymbolTableRecord
100
AcDbTextStyleTableRecord
  2
Style 96
 70
     0
 40
1.088318280106898
 41
0.9999999403953552
 50
0.0
 71
     0
 42
1.088318280106898
  3
/Library/Fonts/MyriadPro-Bold.otf
  4

1001
ACAD
1000
Myriad Pro
1071
 33554466
  0
STYLE
  5
115
330
3
100
AcDbSymbolTableRecord
100
AcDbTextStyleTableRecord
  2
Style 97
 70
     0
 40
1.088318280106898
 41
1.0
 50
0.0
 71
     0
 42
1.088318280106898
  3
/Library/Fonts/MyriadPro-Bold.otf
  4

1001
ACAD
1000
Myriad Pro
1071
 33554466
  0
STYLE
  5
117
330
3
100
AcDbSymbolTableRecord
100
AcDbTextStyleTableRecord
  2
Style 98
 70
     0
 40
1.088318280106898
 41
0.9999999403953552
 50
0.0
 71
     0
 42
1.088318280106898
  3
/Library/Fonts/MyriadPro-Bold.otf
  4

1001
ACAD
1000
Myriad Pro
1071
 33554466
  0
STYLE
  5
119
330
3
100
AcDbSymbolTableRecord
100
AcDbTextStyleTableRecord
  2
Style 99
 70
     0
 40
1.088318280106898
 41
0.9999999403953552
 50
0.0
 71
     0
 42
1.088318280106898
  3
/Library/Fonts/MyriadPro-Bold.otf
  4

1001
ACAD
1000
Myriad Pro
1071
 33554466
  0
STYLE
  5
11B
330
3
100
AcDbSymbolTableRecord
100
AcDbTextStyleTableRecord
  2
Style 100
 70
     0
 40
1.088318165718962
 41
1.0
 50
0.0
 71
     0
 42
1.088318165718962
  3
/Library/Fonts/MyriadPro-Bold.otf
  4

1001
ACAD
1000
Myriad Pro
1071
 33554466
  0
STYLE
  5
11D
330
3
100
AcDbSymbolTableRecord
100
AcDbTextStyleTableRecord
  2
Style 101
 70
     0
 40
1.088318165718962
 41
1.0
 50
0.0
 71
     0
 42
1.088318165718962
  3
/Library/Fonts/MyriadPro-Bold.otf
  4

1001
ACAD
1000
Myriad Pro
1071
 33554466
  0
STYLE
  5
11F
330
3
100
AcDbSymbolTableRecord
100
AcDbTextStyleTableRecord
  2
Style 102
 70
     0
 40
1.088318280106898
 41
1.0
 50
0.0
 71
     0
 42
1.088318280106898
  3
/Library/Fonts/MyriadPro-Bold.otf
  4

1001
ACAD
1000
Myriad Pro
1071
 33554466
  0
STYLE
  5
121
330
3
100
AcDbSymbolTableRecord
100
AcDbTextStyleTableRecord
  2
Style 103
 70
     0
 40
1.088318280106898
 41
1.0
 50
0.0
 71
     0
 42
1.088318280106898
  3
/Library/Fonts/MyriadPro-Bold.otf
  4

1001
ACAD
1000
Myriad Pro
1071
 33554466
  0
STYLE
  5
123
330
3
100
AcDbSymbolTableRecord
100
AcDbTextStyleTableRecord
  2
Style 104
 70
     0
 40
1.088318280106898
 41
1.0
 50
0.0
 71
     0
 42
1.088318280106898
  3
/Library/Fonts/MyriadPro-Bold.otf
  4

1001
ACAD
1000
Myriad Pro
1071
 33554466
  0
STYLE
  5
125
330
3
100
AcDbSymbolTableRecord
100
AcDbTextStyleTableRecord
  2
Style 105
 70
     0
 40
1.088318280106898
 41
1.0
 50
0.0
 71
     0
 42
1.088318280106898
  3
/Library/Fonts/MyriadPro-Bold.otf
  4

1001
ACAD
1000
Myriad Pro
1071
 33554466
  0
STYLE
  5
127
330
3
100
AcDbSymbolTableRecord
100
AcDbTextStyleTableRecord
  2
Style 106
 70
     0
 40
1.088318280106898
 41
1.0
 50
0.0
 71
     0
 42
1.088318280106898
  3
/Library/Fonts/MyriadPro-Bold.otf
  4

1001
ACAD
1000
Myriad Pro
1071
 33554466
  0
STYLE
  5
129
330
3
100
AcDbSymbolTableRecord
100
AcDbTextStyleTableRecord
  2
Style 107
 70
     0
 40
1.088318280106898
 41
1.0
 50
0.0
 71
     0
 42
1.088318280106898
  3
/Library/Fonts/MyriadPro-Bold.otf
  4

1001
ACAD
1000
Myriad Pro
1071
 33554466
  0
STYLE
  5
12B
330
3
100
AcDbSymbolTableRecord
100
AcDbTextStyleTableRecord
  2
Style 108
 70
     0
 40
1.088318280106898
 41
1.0
 50
0.0
 71
     0
 42
1.088318280106898
  3
/Library/Fonts/MyriadPro-Bold.otf
  4

1001
ACAD
1000
Myriad Pro
1071
 33554466
  0
STYLE
  5
12D
330
3
100
AcDbSymbolTableRecord
100
AcDbTextStyleTableRecord
  2
Style 109
 70
     0
 40
1.088318280106898
 41
1.0
 50
0.0
 71
     0
 42
1.088318280106898
  3
/Library/Fonts/MyriadPro-Bold.otf
  4

1001
ACAD
1000
Myriad Pro
1071
 33554466
  0
STYLE
  5
12F
330
3
100
AcDbSymbolTableRecord
100
AcDbTextStyleTableRecord
  2
Style 110
 70
     0
 40
1.088318280106898
 41
1.0
 50
0.0
 71
     0
 42
1.088318280106898
  3
/Library/Fonts/MyriadPro-Bold.otf
  4

1001
ACAD
1000
Myriad Pro
1071
 33554466
  0
STYLE
  5
131
330
3
100
AcDbSymbolTableRecord
100
AcDbTextStyleTableRecord
  2
Style 111
 70
     0
 40
1.088318280106898
 41
1.0
 50
0.0
 71
     0
 42
1.088318280106898
  3
/Library/Fonts/MyriadPro-Bold.otf
  4

1001
ACAD
1000
Myriad Pro
1071
 33554466
  0
STYLE
  5
133
330
3
100
AcDbSymbolTableRecord
100
AcDbTextStyleTableRecord
  2
Style 112
 70
     0
 40
1.088318165718962
 41
1.0
 50
0.0
 71
     0
 42
1.088318165718962
  3
/Library/Fonts/MyriadPro-Bold.otf
  4

1001
ACAD
1000
Myriad Pro
1071
 33554466
  0
STYLE
  5
135
330
3
100
AcDbSymbolTableRecord
100
AcDbTextStyleTableRecord
  2
Style 113
 70
     0
 40
1.088318280106898
 41
1.0
 50
0.0
 71
     0
 42
1.088318280106898
  3
/Library/Fonts/MyriadPro-Bold.otf
  4

1001
ACAD
1000
Myriad Pro
1071
 33554466
  0
STYLE
  5
137
330
3
100
AcDbSymbolTableRecord
100
AcDbTextStyleTableRecord
  2
Style 114
 70
     0
 40
1.088318280106898
 41
1.0
 50
0.0
 71
     0
 42
1.088318280106898
  3
/Library/Fonts/MyriadPro-Bold.otf
  4

1001
ACAD
1000
Myriad Pro
1071
 33554466
  0
STYLE
  5
139
330
3
100
AcDbSymbolTableRecord
100
AcDbTextStyleTableRecord
  2
Style 115
 70
     0
 40
1.088318280106898
 41
1.0
 50
0.0
 71
     0
 42
1.088318280106898
  3
/Library/Fonts/MyriadPro-Bold.otf
  4

1001
ACAD
1000
Myriad Pro
1071
 33554466
  0
STYLE
  5
13B
330
3
100
AcDbSymbolTableRecord
100
AcDbTextStyleTableRecord
  2
Style 116
 70
     0
 40
1.088318280106898
 41
1.0
 50
0.0
 71
     0
 42
1.088318280106898
  3
/Library/Fonts/MyriadPro-Bold.otf
  4

1001
ACAD
1000
Myriad Pro
1071
 33554466
  0
STYLE
  5
13D
330
3
100
AcDbSymbolTableRecord
100
AcDbTextStyleTableRecord
  2
Style 117
 70
     0
 40
1.088318280106898
 41
0.9999999403953552
 50
0.0
 71
     0
 42
1.088318280106898
  3
/Library/Fonts/MyriadPro-Bold.otf
  4

1001
ACAD
1000
Myriad Pro
1071
 33554466
  0
STYLE
  5
13F
330
3
100
AcDbSymbolTableRecord
100
AcDbTextStyleTableRecord
  2
Style 118
 70
     0
 40
1.088318280106898
 41
1.0
 50
0.0
 71
     0
 42
1.088318280106898
  3
/Library/Fonts/MyriadPro-Bold.otf
  4

1001
ACAD
1000
Myriad Pro
1071
 33554466
  0
STYLE
  5
141
330
3
100
AcDbSymbolTableRecord
100
AcDbTextStyleTableRecord
  2
Style 119
 70
     0
 40
1.088318165718962
 41
1.0
 50
0.0
 71
     0
 42
1.088318165718962
  3
/Library/Fonts/MyriadPro-Bold.otf
  4

1001
ACAD
1000
Myriad Pro
1071
 33554466
  0
STYLE
  5
143
330
3
100
AcDbSymbolTableRecord
100
AcDbTextStyleTableRecord
  2
Style 120
 70
     0
 40
1.088318280106898
 41
1.0
 50
0.0
 71
     0
 42
1.088318280106898
  3
/Library/Fonts/MyriadPro-Bold.otf
  4

1001
ACAD
1000
Myriad Pro
1071
 33554466
  0
STYLE
  5
145
330
3
100
AcDbSymbolTableRecord
100
AcDbTextStyleTableRecord
  2
Style 121
 70
     0
 40
1.088318280106898
 41
1.0
 50
0.0
 71
     0
 42
1.088318280106898
  3
/Library/Fonts/MyriadPro-Bold.otf
  4

1001
ACAD
1000
Myriad Pro
1071
 33554466
  0
STYLE
  5
147
330
3
100
AcDbSymbolTableRecord
100
AcDbTextStyleTableRecord
  2
Style 122
 70
     0
 40
1.088318165718962
 41
1.0
 50
0.0
 71
     0
 42
1.088318165718962
  3
/Library/Fonts/MyriadPro-Bold.otf
  4

1001
ACAD
1000
Myriad Pro
1071
 33554466
  0
STYLE
  5
149
330
3
100
AcDbSymbolTableRecord
100
AcDbTextStyleTableRecord
  2
Style 123
 70
     0
 40
1.088318280106898
 41
1.0
 50
0.0
 71
     0
 42
1.088318280106898
  3
/Library/Fonts/MyriadPro-Bold.otf
  4

1001
ACAD
1000
Myriad Pro
1071
 33554466
  0
STYLE
  5
14B
330
3
100
AcDbSymbolTableRecord
100
AcDbTextStyleTableRecord
  2
Style 124
 70
     0
 40
1.088318280106898
 41
0.9999999403953552
 50
0.0
 71
     0
 42
1.088318280106898
  3
/Library/Fonts/MyriadPro-Bold.otf
  4

1001
ACAD
1000
Myriad Pro
1071
 33554466
  0
STYLE
  5
14D
330
3
100
AcDbSymbolTableRecord
100
AcDbTextStyleTableRecord
  2
Style 125
 70
     0
 40
1.088318280106898
 41
0.9999999403953552
 50
0.0
 71
     0
 42
1.088318280106898
  3
/Library/Fonts/MyriadPro-Bold.otf
  4

1001
ACAD
1000
Myriad Pro
1071
 33554466
  0
STYLE
  5
14F
330
3
100
AcDbSymbolTableRecord
100
AcDbTextStyleTableRecord
  2
Style 126
 70
     0
 40
1.088318280106898
 41
1.0
 50
0.0
 71
     0
 42
1.088318280106898
  3
/Library/Fonts/MyriadPro-Bold.otf
  4

1001
ACAD
1000
Myriad Pro
1071
 33554466
  0
STYLE
  5
151
330
3
100
AcDbSymbolTableRecord
100
AcDbTextStyleTableRecord
  2
Style 127
 70
     0
 40
1.088318280106898
 41
1.0
 50
0.0
 71
     0
 42
1.088318280106898
  3
/Library/Fonts/MyriadPro-Bold.otf
  4

1001
ACAD
1000
Myriad Pro
1071
 33554466
  0
STYLE
  5
153
330
3
100
AcDbSymbolTableRecord
100
AcDbTextStyleTableRecord
  2
Style 128
 70
     0
 40
1.088318280106898
 41
1.0
 50
0.0
 71
     0
 42
1.088318280106898
  3
/Library/Fonts/MyriadPro-Bold.otf
  4

1001
ACAD
1000
Myriad Pro
1071
 33554466
  0
STYLE
  5
155
330
3
100
AcDbSymbolTableRecord
100
AcDbTextStyleTableRecord
  2
Style 129
 70
     0
 40
1.088318280106898
 41
1.0
 50
0.0
 71
     0
 42
1.088318280106898
  3
/Library/Fonts/MyriadPro-Bold.otf
  4

1001
ACAD
1000
Myriad Pro
1071
 33554466
  0
STYLE
  5
157
330
3
100
AcDbSymbolTableRecord
100
AcDbTextStyleTableRecord
  2
Style 130
 70
     0
 40
1.088318280106898
 41
1.0
 50
0.0
 71
     0
 42
1.088318280106898
  3
/Library/Fonts/MyriadPro-Bold.otf
  4

1001
ACAD
1000
Myriad Pro
1071
 33554466
  0
ENDTAB
  0
TABLE
  2
VIEW
  5
6
330
0
100
AcDbSymbolTable
 70
     0
  0
ENDTAB
  0
TABLE
  2
UCS
  5
7
330
0
100
AcDbSymbolTable
 70
     0
  0
ENDTAB
  0
TABLE
  2
APPID
  5
9
330
0
100
AcDbSymbolTable
 70
     1
  0
APPID
  5
12
330
9
100
AcDbSymbolTableRecord
100
AcDbRegAppTableRecord
  2
ACAD
 70
     0
  0
ENDTAB
  0
TABLE
  2
DIMSTYLE
  5
A
330
0
100
AcDbSymbolTable
 70
     1
100
AcDbDimStyleTable
  0
DIMSTYLE
105
27
330
A
100
AcDbSymbolTableRecord
100
AcDbDimStyleTableRecord
  2
Standard
 70
     0
340
11
  0
ENDTAB
  0
TABLE
  2
BLOCK_RECORD
  5
1
330
0
100
AcDbSymbolTable
 70
    16
  0
BLOCK_RECORD
  5
1F
330
1
100
AcDbSymbolTableRecord
100
AcDbBlockTableRecord
  2
*Model_Space
340
22
  0
BLOCK_RECORD
  5
1B
330
1
100
AcDbSymbolTableRecord
100
AcDbBlockTableRecord
  2
*Paper_Space
340
1E
  0
BLOCK_RECORD
  5
23
330
1
100
AcDbSymbolTableRecord
100
AcDbBlockTableRecord
  2
*Paper_Space0
340
26
  0
BLOCK_RECORD
  5
6C
330
1
100
AcDbSymbolTableRecord
100
AcDbBlockTableRecord
  2
block 2
340
0
102
{BLKREFS
331
6D
102
}
  0
BLOCK_RECORD
  5
70
330
1
100
AcDbSymbolTableRecord
100
AcDbBlockTableRecord
  2
block 3
340
0
102
{BLKREFS
331
71
102
}
  0
BLOCK_RECORD
  5
74
330
1
100
AcDbSymbolTableRecord
100
AcDbBlockTableRecord
  2
block 4
340
0
102
{BLKREFS
331
75
102
}
  0
BLOCK_RECORD
  5
78
330
1
100
AcDbSymbolTableRecord
100
AcDbBlockTableRecord
  2
block 5
340
0
102
{BLKREFS
331
79
102
}
  0
BLOCK_RECORD
  5
7C
330
1
100
AcDbSymbolTableRecord
100
AcDbBlockTableRecord
  2
block 6
340
0
102
{BLKREFS
331
7D
102
}
  0
BLOCK_RECORD
  5
158
330
1
100
AcDbSymbolTableRecord
100
AcDbBlockTableRecord
  2
block 7
340
0
102
{BLKREFS
331
159
102
}
  0
BLOCK_RECORD
  5
15C
330
1
100
AcDbSymbolTableRecord
100
AcDbBlockTableRecord
  2
block 8
340
0
102
{BLKREFS
331
15D
102
}
  0
BLOCK_RECORD
  5
160
330
1
100
AcDbSymbolTableRecord
100
AcDbBlockTableRecord
  2
block 9
340
0
102
{BLKREFS
331
161
102
}
  0
BLOCK_RECORD
  5
164
330
1
100
AcDbSymbolTableRecord
100
AcDbBlockTableRecord
  2
block 10
340
0
102
{BLKREFS
331
165
102
}
  0
BLOCK_RECORD
  5
1B3
330
1
100
AcDbSymbolTableRecord
100
AcDbBlockTableRecord
  2
block 11
340
0
102
{BLKREFS
331
1B4
102
}
  0
BLOCK_RECORD
  5
1B7
330
1
100
AcDbSymbolTableRecord
100
AcDbBlockTableRecord
  2
block 12
340
0
102
{BLKREFS
331
1B8
102
}
  0
BLOCK_RECORD
  5
1BB
330
1
100
AcDbSymbolTableRecord
100
AcDbBlockTableRecord
  2
block 13
340
0
102
{BLKREFS
331
1BC
102
}
  0
BLOCK_RECORD
  5
1BF
330
1
100
AcDbSymbolTableRecord
100
AcDbBlockTableRecord
  2
block 14
340
0
102
{BLKREFS
331
1C0
102
}
  0
BLOCK_RECORD
  5
1C3
330
1
100
AcDbSymbolTableRecord
100
AcDbBlockTableRecord
  2
block 15
340
0
102
{BLKREFS
331
1C4
102
}
  0
BLOCK_RECORD
  5
1F0
330
1
100
AcDbSymbolTableRecord
100
AcDbBlockTableRecord
  2
block 16
340
0
102
{BLKREFS
331
1F1
102
}
  0
ENDTAB
  0
ENDSEC
  0
SECTION
  2
BLOCKS
  0
BLOCK
  5
20
330
1F
100
AcDbEntity
  8
0
100
AcDbBlockBegin
  2
*Model_Space
 70
     0
 71
     0
 10
0.0
 20
0.0
 30
0.0
  3
*Model_Space
  1

  0
ENDBLK
  5
21
330
1F
100
AcDbEntity
  8
0
100
AcDbBlockEnd
  0
BLOCK
  5
1C
330
1B
100
AcDbEntity
 67
     1
  8
0
100
AcDbBlockBegin
  2
*Paper_Space
 70
     0
 71
     0
 10
0.0
 20
0.0
 30
0.0
  3
*Paper_Space
  1

  0
ENDBLK
  5
1D
330
1B
100
AcDbEntity
 67
     1
  8
0
100
AcDbBlockEnd
  0
BLOCK
  5
24
330
23
100
AcDbEntity
  8
0
100
AcDbBlockBegin
  2
*Paper_Space0
 70
     0
 71
     0
 10
0.0
 20
0.0
 30
0.0
  3
*Paper_Space0
  1

  0
ENDBLK
  5
25
330
23
100
AcDbEntity
  8
0
100
AcDbBlockEnd
  0
BLOCK
  5
6E
330
6C
100
AcDbEntity
  8
0
100
AcDbBlockBegin
  2
block 2
 70
     0
 71
     0
 10
0.0
 20
0.0
 30
0.0
  3
block 2
  1

  0
ENDBLK
  5
6F
330
6C
100
AcDbEntity
  8
0
100
AcDbBlockEnd
  0
BLOCK
  5
72
330
70
100
AcDbEntity
  8
0
100
AcDbBlockBegin
  2
block 3
 70
     0
 71
     0
 10
0.0
 20
0.0
 30
0.0
  3
block 3
  1

  0
ENDBLK
  5
73
330
70
100
AcDbEntity
  8
0
100
AcDbBlockEnd
  0
BLOCK
  5
76
330
74
100
AcDbEntity
  8
0
100
AcDbBlockBegin
  2
block 4
 70
     0
 71
     0
 10
0.0
 20
0.0
 30
0.0
  3
block 4
  1

  0
ENDBLK
  5
77
330
74
100
AcDbEntity
  8
0
100
AcDbBlockEnd
  0
BLOCK
  5
7A
330
78
100
AcDbEntity
  8
0
100
AcDbBlockBegin
  2
block 5
 70
     0
 71
     0
 10
0.0
 20
0.0
 30
0.0
  3
block 5
  1

  0
ENDBLK
  5
7B
330
78
100
AcDbEntity
  8
0
100
AcDbBlockEnd
  0
BLOCK
  5
7E
330
7C
100
AcDbEntity
  8
0
100
AcDbBlockBegin
  2
block 6
 70
     0
 71
     0
 10
0.0
 20
0.0
 30
0.0
  3
block 6
  1

  0
ENDBLK
  5
7F
330
7C
100
AcDbEntity
  8
0
100
AcDbBlockEnd
  0
BLOCK
  5
15A
330
158
100
AcDbEntity
  8
0
100
AcDbBlockBegin
  2
block 7
 70
     0
 71
     0
 10
0.0
 20
0.0
 30
0.0
  3
block 7
  1

  0
INSERT
  5
15D
330
158
100
AcDbEntity
  8
Layer 3
100
AcDbBlockReference
  2
block 8
 10
0.0
 20
0.0
 30
0.0
  0
ENDBLK
  5
15B
330
158
100
AcDbEntity
  8
0
100
AcDbBlockEnd
  0
BLOCK
  5
15E
330
15C
100
AcDbEntity
  8
0
100
AcDbBlockBegin
  2
block 8
 70
     0
 71
     0
 10
0.0
 20
0.0
 30
0.0
  3
block 8
  1

  0
INSERT
  5
161
330
15C
100
AcDbEntity
  8
Layer 3
100
AcDbBlockReference
  2
block 9
 10
0.0
 20
0.0
 30
0.0
  0
POLYLINE
  5
1AC
330
15C
100
AcDbEntity
  8
Layer 3
370
     0
100
AcDb2dPolyline
 66
     1
 10
0.0
 20
0.0
 30
0.0
  0
VERTEX
  5
1AD
330
1AC
100
AcDbEntity
  8
Layer 3
370
     0
100
AcDbVertex
100
AcDb2dVertex
 10
18.42161457872793
 20
-13.21056314773903
 30
0.0
  0
VERTEX
  5
1AE
330
1AC
100
AcDbEntity
  8
Layer 3
370
     0
100
AcDbVertex
100
AcDb2dVertex
 10
39.3423014224561
 20
-13.21056314773903
 30
0.0
  0
VERTEX
  5
1AF
330
1AC
100
AcDbEntity
  8
Layer 3
370
     0
100
AcDbVertex
100
AcDb2dVertex
 10
39.3423014224561
 20
-32.18580457094661
 30
0.0
  0
VERTEX
  5
1B0
330
1AC
100
AcDbEntity
  8
Layer 3
370
     0
100
AcDbVertex
100
AcDb2dVertex
 10
18.42161457872793
 20
-32.18580457094661
 30
0.0
  0
VERTEX
  5
1B1
330
1AC
100
AcDbEntity
  8
Layer 3
370
     0
100
AcDbVertex
100
AcDb2dVertex
 10
18.42161457872793
 20
-13.21056314773903
 30
0.0
  0
SEQEND
  5
1B2
330
1AC
100
AcDbEntity
  8
Layer 3
370
     0
  0
ENDBLK
  5
15F
330
15C
100
AcDbEntity
  8
0
100
AcDbBlockEnd
  0
BLOCK
  5
162
330
160
100
AcDbEntity
  8
0
100
AcDbBlockBegin
  2
block 9
 70
     0
 71
     0
 10
0.0
 20
0.0
 30
0.0
  3
block 9
  1

  0
INSERT
  5
165
330
160
100
AcDbEntity
  8
Layer 3
100
AcDbBlockReference
  2
block 10
 10
0.0
 20
0.0
 30
0.0
  0
POLYLINE
  5
1A5
330
160
100
AcDbEntity
  8
Layer 3
370
     0
100
AcDb2dPolyline
 66
     1
 10
0.0
 20
0.0
 30
0.0
  0
VERTEX
  5
1A6
330
1A5
100
AcDbEntity
  8
Layer 3
370
     0
100
AcDbVertex
100
AcDb2dVertex
 10
13.88097872916864
 20
-7.611593965110991
 30
0.0
  0
VERTEX
  5
1A7
330
1A5
100
AcDbEntity
  8
Layer 3
370
     0
100
AcDbVertex
100
AcDb2dVertex
 10
43.88293727201538
 20
-7.611593965110991
 30
0.0
  0
VERTEX
  5
1A8
330
1A5
100
AcDbEntity
  8
Layer 3
370
     0
100
AcDbVertex
100
AcDb2dVertex
 10
43.88293727201538
 20
-37.61389701750625
 30
0.0
  0
VERTEX
  5
1A9
330
1A5
100
AcDbEntity
  8
Layer 3
370
     0
100
AcDbVertex
100
AcDb2dVertex
 10
13.88097872916864
 20
-37.61389701750625
 30
0.0
  0
VERTEX
  5
1AA
330
1A5
100
AcDbEntity
  8
Layer 3
370
     0
100
AcDbVertex
100
AcDb2dVertex
 10
13.88097872916864
 20
-7.611593965110991
 30
0.0
  0
SEQEND
  5
1AB
330
1A5
100
AcDbEntity
  8
Layer 3
370
     0
  0
ENDBLK
  5
163
330
160
100
AcDbEntity
  8
0
100
AcDbBlockEnd
  0
BLOCK
  5
166
330
164
100
AcDbEntity
  8
0
100
AcDbBlockBegin
  2
block 10
 70
     0
 71
     0
 10
0.0
 20
0.0
 30
0.0
  3
block 10
  1

  0
POLYLINE
  5
168
330
164
100
AcDbEntity
  8
Layer 3
370
     0
100
AcDb2dPolyline
 66
     1
 10
0.0
 20
0.0
 30
0.0
  0
VERTEX
  5
169
330
168
100
AcDbEntity
  8
Layer 3
370
     0
100
AcDbVertex
100
AcDb2dVertex
 10
27.21453178573109
 20
-32.07762857270976
 30
0.0
  0
VERTEX
  5
16A
330
168
100
AcDbEntity
  8
Layer 3
370
     0
100
AcDbVertex
100
AcDb2dVertex
 10
34.53294812504732
 20
-19.05172254298013
 30
0.0
  0
VERTEX
  5
16B
330
168
100
AcDbEntity
  8
Layer 3
370
     0
100
AcDbVertex
100
AcDb2dVertex
 10
26.39769964617835
 20
-19.04655489975225
 30
0.0
  0
VERTEX
  5
16C
330
168
100
AcDbEntity
  8
Layer 3
370
     0
100
AcDbVertex
100
AcDb2dVertex
 10
24.83776041045723
 20
-16.25809461399103
 30
0.0
  0
VERTEX
  5
16D
330
168
100
AcDbEntity
  8
Layer 3
370
     0
100
AcDbVertex
100
AcDb2dVertex
 10
39.2417046342868
 20
-16.25602755669988
 30
0.0
  0
VERTEX
  5
16E
330
168
100
AcDbEntity
  8
Layer 3
370
     0
100
AcDbVertex
100
AcDb2dVertex
 10
30.45429958006004
 20
-32.08589680187436
 30
0.0
  0
VERTEX
  5
16F
330
168
100
AcDbEntity
  8
Layer 3
370
     0
100
AcDbVertex
100
AcDb2dVertex
 10
27.21453178573109
 20
-32.07762857270976
 30
0.0
  0
SEQEND
  5
170
330
168
100
AcDbEntity
  8
Layer 3
370
     0
  0
POLYLINE
  5
171
330
164
100
AcDbEntity
  8
Layer 3
 62
     7
420
 16777215
370
    20
100
AcDb2dPolyline
 66
     1
 10
0.0
 20
0.0
 30
0.0
  0
VERTEX
  5
172
330
171
100
AcDbEntity
  8
Layer 3
 62
     7
420
 16777215
370
    20
100
AcDbVertex
100
AcDb2dVertex
 10
27.21453178573109
 20
-32.07762857270976
 30
0.0
  0
VERTEX
  5
173
330
171
100
AcDbEntity
  8
Layer 3
 62
     7
420
 16777215
370
    20
100
AcDbVertex
100
AcDb2dVertex
 10
34.53294812504732
 20
-19.05172254298013
 30
0.0
  0
VERTEX
  5
174
330
171
100
AcDbEntity
  8
Layer 3
 62
     7
420
 16777215
370
    20
100
AcDbVertex
100
AcDb2dVertex
 10
26.39769964617835
 20
-19.04655489975225
 30
0.0
  0
VERTEX
  5
175
330
171
100
AcDbEntity
  8
Layer 3
 62
     7
420
 16777215
370
    20
100
AcDbVertex
100
AcDb2dVertex
 10
24.83776041045723
 20
-16.25809461399103
 30
0.0
  0
VERTEX
  5
176
330
171
100
AcDbEntity
  8
Layer 3
 62
     7
420
 16777215
370
    20
100
AcDbVertex
100
AcDb2dVertex
 10
39.2417046342868
 20
-16.25602755669988
 30
0.0
  0
VERTEX
  5
177
330
171
100
AcDbEntity
  8
Layer 3
 62
     7
420
 16777215
370
    20
100
AcDbVertex
100
AcDb2dVertex
 10
30.45429958006004
 20
-32.08589680187436
 30
0.0
  0
VERTEX
  5
178
330
171
100
AcDbEntity
  8
Layer 3
 62
     7
420
 16777215
370
    20
100
AcDbVertex
100
AcDb2dVertex
 10
27.21453178573109
 20
-32.07762857270976
 30
0.0
  0
SEQEND
  5
179
330
171
100
AcDbEntity
  8
Layer 3
370
    20
  0
POLYLINE
  5
17A
330
164
100
AcDbEntity
  8
Layer 3
370
     0
100
AcDb2dPolyline
 66
     1
 10
0.0
 20
0.0
 30
0.0
  0
VERTEX
  5
17B
330
17A
100
AcDbEntity
  8
Layer 3
370
     0
100
AcDbVertex
100
AcDb2dVertex
 10
27.21418727618256
 20
-32.07762857270976
 30
0.0
  0
VERTEX
  5
17C
330
17A
100
AcDbEntity
  8
Layer 3
370
     0
100
AcDbVertex
100
AcDb2dVertex
 10
18.52152234780018
 20
-16.25809461399103
 30
0.0
  0
VERTEX
  5
17D
330
17A
100
AcDbEntity
  8
Layer 3
370
     0
100
AcDbVertex
100
AcDb2dVertex
 10
20.11522351927675
 20
-13.38970811297202
 30
0.0
  0
VERTEX
  5
17E
330
17A
100
AcDbEntity
  8
Layer 3
370
     0
100
AcDbVertex
100
AcDb2dVertex
 10
27.32649738900171
 20
-26.4576443076217
 30
0.0
  0
VERTEX
  5
17F
330
17A
100
AcDbEntity
  8
Layer 3
370
     0
100
AcDbVertex
100
AcDb2dVertex
 10
31.35071342532204
 20
-19.04758842839783
 30
0.0
  0
VERTEX
  5
180
330
17A
100
AcDbEntity
  8
Layer 3
370
     0
100
AcDbVertex
100
AcDb2dVertex
 10
34.53846027782372
 20
-19.04758842839783
 30
0.0
  0
VERTEX
  5
181
330
17A
100
AcDbEntity
  8
Layer 3
370
     0
100
AcDbVertex
100
AcDb2dVertex
 10
27.21418727618256
 20
-32.07762857270976
 30
0.0
  0
SEQEND
  5
182
330
17A
100
AcDbEntity
  8
Layer 3
370
     0
  0
POLYLINE
  5
183
330
164
100
AcDbEntity
  8
Layer 3
 62
     7
420
 16777215
370
    20
100
AcDb2dPolyline
 66
     1
 10
0.0
 20
0.0
 30
0.0
  0
VERTEX
  5
184
330
183
100
AcDbEntity
  8
Layer 3
 62
     7
420
 16777215
370
    20
100
AcDbVertex
100
AcDb2dVertex
 10
27.21418727618256
 20
-32.07762857270976
 30
0.0
  0
VERTEX
  5
185
330
183
100
AcDbEntity
  8
Layer 3
 62
     7
420
 16777215
370
    20
100
AcDbVertex
100
AcDb2dVertex
 10
18.52152234780018
 20
-16.25809461399103
 30
0.0
  0
VERTEX
  5
186
330
183
100
AcDbEntity
  8
Layer 3
 62
     7
420
 16777215
370
    20
100
AcDbVertex
100
AcDb2dVertex
 10
20.11522351927675
 20
-13.38970811297202
 30
0.0
  0
VERTEX
  5
187
330
183
100
AcDbEntity
  8
Layer 3
 62
     7
420
 16777215
370
    20
100
AcDbVertex
100
AcDb2dVertex
 10
27.32649738900171
 20
-26.4576443076217
 30
0.0
  0
VERTEX
  5
188
330
183
100
AcDbEntity
  8
Layer 3
 62
     7
420
 16777215
370
    20
100
AcDbVertex
100
AcDb2dVertex
 10
31.35071342532204
 20
-19.04758842839783
 30
0.0
  0
VERTEX
  5
189
330
183
100
AcDbEntity
  8
Layer 3
 62
     7
420
 16777215
370
    20
100
AcDbVertex
100
AcDb2dVertex
 10
34.53846027782372
 20
-19.04758842839783
 30
0.0
  0
VERTEX
  5
18A
330
183
100
AcDbEntity
  8
Layer 3
 62
     7
420
 16777215
370
    20
100
AcDbVertex
100
AcDb2dVertex
 10
27.21418727618256
 20
-32.07762857270976
 30
0.0
  0
SEQEND
  5
18B
330
183
100
AcDbEntity
  8
Layer 3
370
    20
  0
POLYLINE
  5
18C
330
164
100
AcDbEntity
  8
Layer 3
370
     0
100
AcDb2dPolyline
 66
     1
 10
0.0
 20
0.0
 30
0.0
  0
VERTEX
  5
18D
330
18C
100
AcDbEntity
  8
Layer 3
370
     0
100
AcDbVertex
100
AcDb2dVertex
 10
27.32821993674434
 20
-26.4548882312335
 30
0.0
  0
VERTEX
  5
18E
330
18C
100
AcDbEntity
  8
Layer 3
370
     0
100
AcDbVertex
100
AcDb2dVertex
 10
28.91744248409008
 20
-23.52793510696524
 30
0.0
  0
VERTEX
  5
18F
330
18C
100
AcDbEntity
  8
Layer 3
370
     0
100
AcDbVertex
100
AcDb2dVertex
 10
24.83018120038968
 20
-16.25602755669988
 30
0.0
  0
VERTEX
  5
190
330
18C
100
AcDbEntity
  8
Layer 3
370
     0
100
AcDbVertex
100
AcDb2dVertex
 10
39.24204914383532
 20
-16.24844834663233
 30
0.0
  0
VERTEX
  5
191
330
18C
100
AcDbEntity
  8
Layer 3
370
     0
100
AcDbVertex
100
AcDb2dVertex
 10
37.72517360167982
 20
-13.31047091681127
 30
0.0
  0
VERTEX
  5
192
330
18C
100
AcDbEntity
  8
Layer 3
370
     0
100
AcDbVertex
100
AcDb2dVertex
 10
20.11625704792232
 20
-13.39108615116612
 30
0.0
  0
VERTEX
  5
193
330
18C
100
AcDbEntity
  8
Layer 3
370
     0
100
AcDbVertex
100
AcDb2dVertex
 10
27.32821993674434
 20
-26.4548882312335
 30
0.0
  0
SEQEND
  5
194
330
18C
100
AcDbEntity
  8
Layer 3
370
     0
  0
POLYLINE
  5
195
330
164
100
AcDbEntity
  8
Layer 3
 62
     7
420
 16777215
370
    20
100
AcDb2dPolyline
 66
     1
 10
0.0
 20
0.0
 30
0.0
  0
VERTEX
  5
196
330
195
100
AcDbEntity
  8
Layer 3
 62
     7
420
 16777215
370
    20
100
AcDbVertex
100
AcDb2dVertex
 10
27.32821993674434
 20
-26.4548882312335
 30
0.0
  0
VERTEX
  5
197
330
195
100
AcDbEntity
  8
Layer 3
 62
     7
420
 16777215
370
    20
100
AcDbVertex
100
AcDb2dVertex
 10
28.91744248409008
 20
-23.52793510696524
 30
0.0
  0
VERTEX
  5
198
330
195
100
AcDbEntity
  8
Layer 3
 62
     7
420
 16777215
370
    20
100
AcDbVertex
100
AcDb2dVertex
 10
24.83018120038968
 20
-16.25602755669988
 30
0.0
  0
VERTEX
  5
199
330
195
100
AcDbEntity
  8
Layer 3
 62
     7
420
 16777215
370
    20
100
AcDbVertex
100
AcDb2dVertex
 10
39.24204914383532
 20
-16.24844834663233
 30
0.0
  0
VERTEX
  5
19A
330
195
100
AcDbEntity
  8
Layer 3
 62
     7
420
 16777215
370
    20
100
AcDbVertex
100
AcDb2dVertex
 10
37.72517360167982
 20
-13.31047091681127
 30
0.0
  0
VERTEX
  5
19B
330
195
100
AcDbEntity
  8
Layer 3
 62
     7
420
 16777215
370
    20
100
AcDbVertex
100
AcDb2dVertex
 10
20.11625704792232
 20
-13.39108615116612
 30
0.0
  0
VERTEX
  5
19C
330
195
100
AcDbEntity
  8
Layer 3
 62
     7
420
 16777215
370
    20
100
AcDbVertex
100
AcDb2dVertex
 10
27.32821993674434
 20
-26.4548882312335
 30
0.0
  0
SEQEND
  5
19D
330
195
100
AcDbEntity
  8
Layer 3
370
    20
  0
POLYLINE
  5
19E
330
164
100
AcDbEntity
  8
Layer 3
370
     0
100
AcDb2dPolyline
 66
     1
 10
0.0
 20
0.0
 30
0.0
  0
VERTEX
  5
19F
330
19E
100
AcDbEntity
  8
Layer 3
370
     0
100
AcDbVertex
100
AcDb2dVertex
 10
18.42161457872793
 20
-13.21056314773903
 30
0.0
  0
VERTEX
  5
1A0
330
19E
100
AcDbEntity
  8
Layer 3
370
     0
100
AcDbVertex
100
AcDb2dVertex
 10
39.3423014224561
 20
-13.21056314773903
 30
0.0
  0
VERTEX
  5
1A1
330
19E
100
AcDbEntity
  8
Layer 3
370
     0
100
AcDbVertex
100
AcDb2dVertex
 10
39.3423014224561
 20
-32.18580457094661
 30
0.0
  0
VERTEX
  5
1A2
330
19E
100
AcDbEntity
  8
Layer 3
370
     0
100
AcDbVertex
100
AcDb2dVertex
 10
18.42161457872793
 20
-32.18580457094661
 30
0.0
  0
VERTEX
  5
1A3
330
19E
100
AcDbEntity
  8
Layer 3
370
     0
100
AcDbVertex
100
AcDb2dVertex
 10
18.42161457872793
 20
-13.21056314773903
 30
0.0
  0
SEQEND
  5
1A4
330
19E
100
AcDbEntity
  8
Layer 3
370
     0
  0
ENDBLK
  5
167
330
164
100
AcDbEntity
  8
0
100
AcDbBlockEnd
  0
BLOCK
  5
1B5
330
1B3
100
AcDbEntity
  8
0
100
AcDbBlockBegin
  2
block 11
 70
     0
 71
     0
 10
0.0
 20
0.0
 30
0.0
  3
block 11
  1

  0
INSERT
  5
1B8
330
1B3
100
AcDbEntity
  8
Layer 3
100
AcDbBlockReference
  2
block 12
 10
0.0
 20
0.0
 30
0.0
  0
ENDBLK
  5
1B6
330
1B3
100
AcDbEntity
  8
0
100
AcDbBlockEnd
  0
BLOCK
  5
1B9
330
1B7
100
AcDbEntity
  8
0
100
AcDbBlockBegin
  2
block 12
 70
     0
 71
     0
 10
0.0
 20
0.0
 30
0.0
  3
block 12
  1

  0
INSERT
  5
1BC
330
1B7
100
AcDbEntity
  8
Layer 3
100
AcDbBlockReference
  2
block 13
 10
0.0
 20
0.0
 30
0.0
  0
POLYLINE
  5
22B
330
1B7
100
AcDbEntity
  8
Layer 3
370
     0
100
AcDb2dPolyline
 66
     1
 10
0.0
 20
0.0
 30
0.0
  0
VERTEX
  5
22C
330
22B
100
AcDbEntity
  8
Layer 3
370
     0
100
AcDbVertex
100
AcDb2dVertex
 10
-25.08580728539522
 20
-11.00501301808208
 30
0.0
  0
VERTEX
  5
22D
330
22B
100
AcDbEntity
  8
Layer 3
370
     0
100
AcDbVertex
100
AcDb2dVertex
 10
-6.900181747406899
 20
-11.00501301808208
 30
0.0
  0
VERTEX
  5
22E
330
22B
100
AcDbEntity
  8
Layer 3
370
     0
100
AcDbVertex
100
AcDb2dVertex
 10
-6.900181747406899
 20
-30.32097438478087
 30
0.0
  0
VERTEX
  5
22F
330
22B
100
AcDbEntity
  8
Layer 3
370
     0
100
AcDbVertex
100
AcDb2dVertex
 10
-25.08580728539522
 20
-30.32097438478087
 30
0.0
  0
VERTEX
  5
230
330
22B
100
AcDbEntity
  8
Layer 3
370
     0
100
AcDbVertex
100
AcDb2dVertex
 10
-25.08580728539522
 20
-11.00501301808208
 30
0.0
  0
SEQEND
  5
231
330
22B
100
AcDbEntity
  8
Layer 3
370
     0
  0
ENDBLK
  5
1BA
330
1B7
100
AcDbEntity
  8
0
100
AcDbBlockEnd
  0
BLOCK
  5
1BD
330
1BB
100
AcDbEntity
  8
0
100
AcDbBlockBegin
  2
block 13
 70
     0
 71
     0
 10
0.0
 20
0.0
 30
0.0
  3
block 13
  1

  0
INSERT
  5
1C0
330
1BB
100
AcDbEntity
  8
Layer 3
100
AcDbBlockReference
  2
block 14
 10
0.0
 20
0.0
 30
0.0
  0
POLYLINE
  5
224
330
1BB
100
AcDbEntity
  8
Layer 3
370
     0
100
AcDb2dPolyline
 66
     1
 10
0.0
 20
0.0
 30
0.0
  0
VERTEX
  5
225
330
224
100
AcDbEntity
  8
Layer 3
370
     0
100
AcDbVertex
100
AcDb2dVertex
 10
-31.3017930694315
 20
-5.353678384078247
 30
0.0
  0
VERTEX
  5
226
330
224
100
AcDbEntity
  8
Layer 3
370
     0
100
AcDbVertex
100
AcDb2dVertex
 10
-0.6838514538220927
 20
-5.353678384078247
 30
0.0
  0
VERTEX
  5
227
330
224
100
AcDbEntity
  8
Layer 3
370
     0
100
AcDbVertex
100
AcDb2dVertex
 10
-0.6838514538220927
 20
-35.97196450923618
 30
0.0
  0
VERTEX
  5
228
330
224
100
AcDbEntity
  8
Layer 3
370
     0
100
AcDbVertex
100
AcDb2dVertex
 10
-31.3017930694315
 20
-35.97196450923618
 30
0.0
  0
VERTEX
  5
229
330
224
100
AcDbEntity
  8
Layer 3
370
     0
100
AcDbVertex
100
AcDb2dVertex
 10
-31.3017930694315
 20
-5.353678384078247
 30
0.0
  0
SEQEND
  5
22A
330
224
100
AcDbEntity
  8
Layer 3
370
     0
  0
ENDBLK
  5
1BE
330
1BB
100
AcDbEntity
  8
0
100
AcDbBlockEnd
  0
BLOCK
  5
1C1
330
1BF
100
AcDbEntity
  8
0
100
AcDbBlockBegin
  2
block 14
 70
     0
 71
     0
 10
0.0
 20
0.0
 30
0.0
  3
block 14
  1

  0
INSERT
  5
1C4
330
1BF
100
AcDbEntity
  8
Layer 3
100
AcDbBlockReference
  2
block 15
 10
0.0
 20
0.0
 30
0.0
  0
INSERT
  5
1F1
330
1BF
100
AcDbEntity
  8
Layer 3
100
AcDbBlockReference
  2
block 16
 10
0.0
 20
0.0
 30
0.0
  0
POLYLINE
  5
21D
330
1BF
100
AcDbEntity
  8
Layer 3
370
     0
100
AcDb2dPolyline
 66
     1
 10
0.0
 20
0.0
 30
0.0
  0
VERTEX
  5
21E
330
21D
100
AcDbEntity
  8
Layer 3
370
     0
100
AcDbVertex
100
AcDb2dVertex
 10
-25.08580728539522
 20
-10.90269368217016
 30
0.0
  0
VERTEX
  5
21F
330
21D
100
AcDbEntity
  8
Layer 3
370
     0
100
AcDbVertex
100
AcDb2dVertex
 10
-6.900181747406899
 20
-10.90269368217016
 30
0.0
  0
VERTEX
  5
220
330
21D
100
AcDbEntity
  8
Layer 3
370
     0
100
AcDbVertex
100
AcDb2dVertex
 10
-6.900181747406899
 20
-30.42329372069279
 30
0.0
  0
VERTEX
  5
221
330
21D
100
AcDbEntity
  8
Layer 3
370
     0
100
AcDbVertex
100
AcDb2dVertex
 10
-25.08580728539522
 20
-30.42329372069279
 30
0.0
  0
VERTEX
  5
222
330
21D
100
AcDbEntity
  8
Layer 3
370
     0
100
AcDbVertex
100
AcDb2dVertex
 10
-25.08580728539522
 20
-10.90269368217016
 30
0.0
  0
SEQEND
  5
223
330
21D
100
AcDbEntity
  8
Layer 3
370
     0
  0
ENDBLK
  5
1C2
330
1BF
100
AcDbEntity
  8
0
100
AcDbBlockEnd
  0
BLOCK
  5
1C5
330
1C3
100
AcDbEntity
  8
0
100
AcDbBlockBegin
  2
block 15
 70
     0
 71
     0
 10
0.0
 20
0.0
 30
0.0
  3
block 15
  1

  0
POLYLINE
  5
1C7
330
1C3
100
AcDbEntity
  8
Layer 3
370
     0
100
AcDb2dPolyline
 66
     1
 10
0.0
 20
0.0
 30
0.0
  0
VERTEX
  5
1C8
330
1C7
100
AcDbEntity
  8
Layer 3
370
     0
100
AcDbVertex
100
AcDb2dVertex
 10
-20.54723849312708
 20
-11.07219238004445
 30
0.0
  0
VERTEX
  5
1C9
330
1C7
100
AcDbEntity
  8
Layer 3
370
     0
100
AcDbVertex
100
AcDb2dVertex
 10
-21.91080728618897
 20
-12.68828667217515
 30
0.0
  0
VERTEX
  5
1CA
330
1C7
100
AcDbEntity
  8
Layer 3
370
     0
100
AcDbVertex
100
AcDb2dVertex
 10
-24.90459526287107
 20
-28.57465548330773
 30
0.0
  0
VERTEX
  5
1CB
330
1C7
100
AcDbEntity
  8
Layer 3
370
     0
100
AcDbVertex
100
AcDb2dVertex
 10
-24.15011935160136
 20
-30.1904052658899
 30
0.0
  0
SEQEND
  5
1CC
330
1C7
100
AcDbEntity
  8
Layer 3
370
     0
  0
POLYLINE
  5
1CD
330
1C3
100
AcDbEntity
  8
Layer 3
 62
     7
420
 16777215
370
    15
100
AcDb2dPolyline
 66
     1
 10
0.0
 20
0.0
 30
0.0
  0
VERTEX
  5
1CE
330
1CD
100
AcDbEntity
  8
Layer 3
 62
     7
420
 16777215
370
    15
100
AcDbVertex
100
AcDb2dVertex
 10
-20.54723849312708
 20
-11.07219238004445
 30
0.0
  0
VERTEX
  5
1CF
330
1CD
100
AcDbEntity
  8
Layer 3
 62
     7
420
 16777215
370
    15
100
AcDbVertex
100
AcDb2dVertex
 10
-21.91080728618897
 20
-12.68828667217515
 30
0.0
  0
VERTEX
  5
1D0
330
1CD
100
AcDbEntity
  8
Layer 3
 62
     7
420
 16777215
370
    15
100
AcDbVertex
100
AcDb2dVertex
 10
-24.90459526287107
 20
-28.57465548330773
 30
0.0
  0
VERTEX
  5
1D1
330
1CD
100
AcDbEntity
  8
Layer 3
 62
     7
420
 16777215
370
    15
100
AcDbVertex
100
AcDb2dVertex
 10
-24.15011935160136
 20
-30.1904052658899
 30
0.0
  0
SEQEND
  5
1D2
330
1CD
100
AcDbEntity
  8
Layer 3
370
    15
  0
POLYLINE
  5
1D3
330
1C3
100
AcDbEntity
  8
Layer 3
370
     0
100
AcDb2dPolyline
 66
     1
 10
0.0
 20
0.0
 30
0.0
  0
VERTEX
  5
1D4
330
1D3
100
AcDbEntity
  8
Layer 3
370
     0
100
AcDbVertex
100
AcDb2dVertex
 10
-12.69000921991778
 20
-23.03873154805976
 30
0.0
  0
VERTEX
  5
1D5
330
1D3
100
AcDbEntity
  8
Layer 3
370
     0
100
AcDbVertex
100
AcDb2dVertex
 10
-17.94102375853558
 20
-11.07219238004445
 30
0.0
  0
VERTEX
  5
1D6
330
1D3
100
AcDbEntity
  8
Layer 3
370
     0
100
AcDbVertex
100
AcDb2dVertex
 10
-17.94067924898705
 20
-11.07219238004445
 30
0.0
  0
VERTEX
  5
1D7
330
1D3
100
AcDbEntity
  8
Layer 3
370
     0
100
AcDbVertex
100
AcDb2dVertex
 10
-20.54723849312708
 20
-11.07219238004445
 30
0.0
  0
VERTEX
  5
1D8
330
1D3
100
AcDbEntity
  8
Layer 3
370
     0
100
AcDbVertex
100
AcDb2dVertex
 10
-24.15011935160136
 20
-30.1904052658899
 30
0.0
  0
VERTEX
  5
1D9
330
1D3
100
AcDbEntity
  8
Layer 3
370
     0
100
AcDbVertex
100
AcDb2dVertex
 10
-21.54424912655838
 20
-30.1904052658899
 30
0.0
  0
VERTEX
  5
1DA
330
1D3
100
AcDbEntity
  8
Layer 3
370
     0
100
AcDbVertex
100
AcDb2dVertex
 10
-18.62177462642095
 20
-14.68506401542596
 30
0.0
  0
VERTEX
  5
1DB
330
1D3
100
AcDbEntity
  8
Layer 3
370
     0
100
AcDbVertex
100
AcDb2dVertex
 10
-13.37076008780314
 20
-26.65125867389274
 30
0.0
  0
VERTEX
  5
1DC
330
1D3
100
AcDbEntity
  8
Layer 3
370
     0
100
AcDbVertex
100
AcDb2dVertex
 10
-12.69000921991778
 20
-23.03873154805976
 30
0.0
  0
SEQEND
  5
1DD
330
1D3
100
AcDbEntity
  8
Layer 3
370
     0
  0
POLYLINE
  5
1DE
330
1C3
100
AcDbEntity
  8
Layer 3
 62
     7
420
 16777215
370
    15
100
AcDb2dPolyline
 66
     1
 10
0.0
 20
0.0
 30
0.0
  0
VERTEX
  5
1DF
330
1DE
100
AcDbEntity
  8
Layer 3
 62
     7
420
 16777215
370
    15
100
AcDbVertex
100
AcDb2dVertex
 10
-12.69000921991778
 20
-23.03873154805976
 30
0.0
  0
VERTEX
  5
1E0
330
1DE
100
AcDbEntity
  8
Layer 3
 62
     7
420
 16777215
370
    15
100
AcDbVertex
100
AcDb2dVertex
 10
-17.94102375853558
 20
-11.07219238004445
 30
0.0
  0
VERTEX
  5
1E1
330
1DE
100
AcDbEntity
  8
Layer 3
 62
     7
420
 16777215
370
    15
100
AcDbVertex
100
AcDb2dVertex
 10
-17.94067924898705
 20
-11.07219238004445
 30
0.0
  0
VERTEX
  5
1E2
330
1DE
100
AcDbEntity
  8
Layer 3
 62
     7
420
 16777215
370
    15
100
AcDbVertex
100
AcDb2dVertex
 10
-20.54723849312708
 20
-11.07219238004445
 30
0.0
  0
VERTEX
  5
1E3
330
1DE
100
AcDbEntity
  8
Layer 3
 62
     7
420
 16777215
370
    15
100
AcDbVertex
100
AcDb2dVertex
 10
-24.15011935160136
 20
-30.1904052658899
 30
0.0
  0
VERTEX
  5
1E4
330
1DE
100
AcDbEntity
  8
Layer 3
 62
     7
420
 16777215
370
    15
100
AcDbVertex
100
AcDb2dVertex
 10
-21.54424912655838
 20
-30.1904052658899
 30
0.0
  0
VERTEX
  5
1E5
330
1DE
100
AcDbEntity
  8
Layer 3
 62
     7
420
 16777215
370
    15
100
AcDbVertex
100
AcDb2dVertex
 10
-18.62177462642095
 20
-14.68506401542596
 30
0.0
  0
VERTEX
  5
1E6
330
1DE
100
AcDbEntity
  8
Layer 3
 62
     7
420
 16777215
370
    15
100
AcDbVertex
100
AcDb2dVertex
 10
-13.37076008780314
 20
-26.65125867389274
 30
0.0
  0
VERTEX
  5
1E7
330
1DE
100
AcDbEntity
  8
Layer 3
 62
     7
420
 16777215
370
    15
100
AcDbVertex
100
AcDb2dVertex
 10
-12.69000921991778
 20
-23.03873154805976
 30
0.0
  0
SEQEND
  5
1E8
330
1DE
100
AcDbEntity
  8
Layer 3
370
    15
  0
POLYLINE
  5
1E9
330
1C3
100
AcDbEntity
  8
Layer 3
370
     0
100
AcDb2dPolyline
 66
     1
 10
0.0
 20
0.0
 30
0.0
  0
VERTEX
  5
1EA
330
1E9
100
AcDbEntity
  8
Layer 3
370
     0
100
AcDbVertex
100
AcDb2dVertex
 10
-2270.580441055619
 20
-11.00501301808208
 30
0.0
  0
VERTEX
  5
1EB
330
1E9
100
AcDbEntity
  8
Layer 3
370
     0
100
AcDbVertex
100
AcDb2dVertex
 10
396.774403112612
 20
-11.00501301808208
 30
0.0
  0
VERTEX
  5
1EC
330
1E9
100
AcDbEntity
  8
Layer 3
370
     0
100
AcDbVertex
100
AcDb2dVertex
 10
393.1456840379983
 20
-30.25724011830375
 30
0.0
  0
VERTEX
  5
1ED
330
1E9
100
AcDbEntity
  8
Layer 3
370
     0
100
AcDbVertex
100
AcDb2dVertex
 10
-2274.208987875458
 20
-30.25724011830375
 30
0.0
  0
VERTEX
  5
1EE
330
1E9
100
AcDbEntity
  8
Layer 3
370
     0
100
AcDbVertex
100
AcDb2dVertex
 10
-2270.580441055619
 20
-11.00501301808208
 30
0.0
  0
SEQEND
  5
1EF
330
1E9
100
AcDbEntity
  8
Layer 3
370
     0
  0
ENDBLK
  5
1C6
330
1C3
100
AcDbEntity
  8
0
100
AcDbBlockEnd
  0
BLOCK
  5
1F2
330
1F0
100
AcDbEntity
  8
0
100
AcDbBlockBegin
  2
block 16
 70
     0
 71
     0
 10
0.0
 20
0.0
 30
0.0
  3
block 16
  1

  0
POLYLINE
  5
1F4
330
1F0
100
AcDbEntity
  8
Layer 3
370
     0
100
AcDb2dPolyline
 66
     1
 10
0.0
 20
0.0
 30
0.0
  0
VERTEX
  5
1F5
330
1F4
100
AcDbEntity
  8
Layer 3
370
     0
100
AcDbVertex
100
AcDb2dVertex
 10
-11.43875053967504
 20
-30.2537950228185
 30
0.0
  0
VERTEX
  5
1F6
330
1F4
100
AcDbEntity
  8
Layer 3
370
     0
100
AcDbVertex
100
AcDb2dVertex
 10
-10.07518174661315
 20
-28.6377007306878
 30
0.0
  0
VERTEX
  5
1F7
330
1F4
100
AcDbEntity
  8
Layer 3
370
     0
100
AcDbVertex
100
AcDb2dVertex
 10
-7.081393769931041
 20
-12.75133191955522
 30
0.0
  0
VERTEX
  5
1F8
330
1F4
100
AcDbEntity
  8
Layer 3
370
     0
100
AcDbVertex
100
AcDb2dVertex
 10
-7.83552517165223
 20
-11.13558213697305
 30
0.0
  0
SEQEND
  5
1F9
330
1F4
100
AcDbEntity
  8
Layer 3
370
     0
  0
POLYLINE
  5
1FA
330
1F0
100
AcDbEntity
  8
Layer 3
 62
     7
420
 16777215
370
    15
100
AcDb2dPolyline
 66
     1
 10
0.0
 20
0.0
 30
0.0
  0
VERTEX
  5
1FB
330
1FA
100
AcDbEntity
  8
Layer 3
 62
     7
420
 16777215
370
    15
100
AcDbVertex
100
AcDb2dVertex
 10
-11.43875053967504
 20
-30.2537950228185
 30
0.0
  0
VERTEX
  5
1FC
330
1FA
100
AcDbEntity
  8
Layer 3
 62
     7
420
 16777215
370
    15
100
AcDbVertex
100
AcDb2dVertex
 10
-10.07518174661315
 20
-28.6377007306878
 30
0.0
  0
VERTEX
  5
1FD
330
1FA
100
AcDbEntity
  8
Layer 3
 62
     7
420
 16777215
370
    15
100
AcDbVertex
100
AcDb2dVertex
 10
-7.081393769931041
 20
-12.75133191955522
 30
0.0
  0
VERTEX
  5
1FE
330
1FA
100
AcDbEntity
  8
Layer 3
 62
     7
420
 16777215
370
    15
100
AcDbVertex
100
AcDb2dVertex
 10
-7.83552517165223
 20
-11.13558213697305
 30
0.0
  0
SEQEND
  5
1FF
330
1FA
100
AcDbEntity
  8
Layer 3
370
    15
  0
POLYLINE
  5
200
330
1F0
100
AcDbEntity
  8
Layer 3
370
     0
100
AcDb2dPolyline
 66
     1
 10
0.0
 20
0.0
 30
0.0
  0
VERTEX
  5
201
330
200
100
AcDbEntity
  8
Layer 3
370
     0
100
AcDbVertex
100
AcDb2dVertex
 10
-19.29632432243286
 20
-18.28725585480319
 30
0.0
  0
VERTEX
  5
202
330
200
100
AcDbEntity
  8
Layer 3
370
     0
100
AcDbVertex
100
AcDb2dVertex
 10
-14.04496527426654
 20
-30.2537950228185
 30
0.0
  0
VERTEX
  5
203
330
200
100
AcDbEntity
  8
Layer 3
370
     0
100
AcDbVertex
100
AcDb2dVertex
 10
-14.04496527426654
 20
-30.2537950228185
 30
0.0
  0
VERTEX
  5
204
330
200
100
AcDbEntity
  8
Layer 3
370
     0
100
AcDbVertex
100
AcDb2dVertex
 10
-11.43875053967504
 20
-30.2537950228185
 30
0.0
  0
VERTEX
  5
205
330
200
100
AcDbEntity
  8
Layer 3
370
     0
100
AcDbVertex
100
AcDb2dVertex
 10
-7.835869681200755
 20
-11.13558213697305
 30
0.0
  0
VERTEX
  5
206
330
200
100
AcDbEntity
  8
Layer 3
370
     0
100
AcDbVertex
100
AcDb2dVertex
 10
-10.44208441579226
 20
-11.13558213697305
 30
0.0
  0
VERTEX
  5
207
330
200
100
AcDbEntity
  8
Layer 3
370
     0
100
AcDbVertex
100
AcDb2dVertex
 10
-13.36421440638117
 20
-26.64092338743699
 30
0.0
  0
VERTEX
  5
208
330
200
100
AcDbEntity
  8
Layer 3
370
     0
100
AcDbVertex
100
AcDb2dVertex
 10
-18.61522894499897
 20
-14.67438421942168
 30
0.0
  0
VERTEX
  5
209
330
200
100
AcDbEntity
  8
Layer 3
370
     0
100
AcDbVertex
100
AcDb2dVertex
 10
-19.29632432243286
 20
-18.28725585480319
 30
0.0
  0
SEQEND
  5
20A
330
200
100
AcDbEntity
  8
Layer 3
370
     0
  0
POLYLINE
  5
20B
330
1F0
100
AcDbEntity
  8
Layer 3
 62
     7
420
 16777215
370
    15
100
AcDb2dPolyline
 66
     1
 10
0.0
 20
0.0
 30
0.0
  0
VERTEX
  5
20C
330
20B
100
AcDbEntity
  8
Layer 3
 62
     7
420
 16777215
370
    15
100
AcDbVertex
100
AcDb2dVertex
 10
-19.29632432243286
 20
-18.28725585480319
 30
0.0
  0
VERTEX
  5
20D
330
20B
100
AcDbEntity
  8
Layer 3
 62
     7
420
 16777215
370
    15
100
AcDbVertex
100
AcDb2dVertex
 10
-14.04496527426654
 20
-30.2537950228185
 30
0.0
  0
VERTEX
  5
20E
330
20B
100
AcDbEntity
  8
Layer 3
 62
     7
420
 16777215
370
    15
100
AcDbVertex
100
AcDb2dVertex
 10
-14.04496527426654
 20
-30.2537950228185
 30
0.0
  0
VERTEX
  5
20F
330
20B
100
AcDbEntity
  8
Layer 3
 62
     7
420
 16777215
370
    15
100
AcDbVertex
100
AcDb2dVertex
 10
-11.43875053967504
 20
-30.2537950228185
 30
0.0
  0
VERTEX
  5
210
330
20B
100
AcDbEntity
  8
Layer 3
 62
     7
420
 16777215
370
    15
100
AcDbVertex
100
AcDb2dVertex
 10
-7.835869681200755
 20
-11.13558213697305
 30
0.0
  0
VERTEX
  5
211
330
20B
100
AcDbEntity
  8
Layer 3
 62
     7
420
 16777215
370
    15
100
AcDbVertex
100
AcDb2dVertex
 10
-10.44208441579226
 20
-11.13558213697305
 30
0.0
  0
VERTEX
  5
212
330
20B
100
AcDbEntity
  8
Layer 3
 62
     7
420
 16777215
370
    15
100
AcDbVertex
100
AcDb2dVertex
 10
-13.36421440638117
 20
-26.64092338743699
 30
0.0
  0
VERTEX
  5
213
330
20B
100
AcDbEntity
  8
Layer 3
 62
     7
420
 16777215
370
    15
100
AcDbVertex
100
AcDb2dVertex
 10
-18.61522894499897
 20
-14.67438421942168
 30
0.0
  0
VERTEX
  5
214
330
20B
100
AcDbEntity
  8
Layer 3
 62
     7
420
 16777215
370
    15
100
AcDbVertex
100
AcDb2dVertex
 10
-19.29632432243286
 20
-18.28725585480319
 30
0.0
  0
SEQEND
  5
215
330
20B
100
AcDbEntity
  8
Layer 3
370
    15
  0
POLYLINE
  5
216
330
1F0
100
AcDbEntity
  8
Layer 3
370
     0
100
AcDb2dPolyline
 66
     1
 10
0.0
 20
0.0
 30
0.0
  0
VERTEX
  5
217
330
216
100
AcDbEntity
  8
Layer 3
370
     0
100
AcDbVertex
100
AcDb2dVertex
 10
2238.594107513268
 20
-30.32097438478087
 30
0.0
  0
VERTEX
  5
218
330
216
100
AcDbEntity
  8
Layer 3
370
     0
100
AcDbVertex
100
AcDb2dVertex
 10
-428.7600476358656
 20
-30.32097438478087
 30
0.0
  0
VERTEX
  5
219
330
216
100
AcDbEntity
  8
Layer 3
370
     0
100
AcDbVertex
100
AcDb2dVertex
 10
-425.132017580349
 20
-11.0687472845592
 30
0.0
  0
VERTEX
  5
21A
330
216
100
AcDbEntity
  8
Layer 3
370
     0
100
AcDbVertex
100
AcDb2dVertex
 10
2242.222482078334
 20
-11.0687472845592
 30
0.0
  0
VERTEX
  5
21B
330
216
100
AcDbEntity
  8
Layer 3
370
     0
100
AcDbVertex
100
AcDb2dVertex
 10
2238.594107513268
 20
-30.32097438478087
 30
0.0
  0
SEQEND
  5
21C
330
216
100
AcDbEntity
  8
Layer 3
370
     0
  0
ENDBLK
  5
1F3
330
1F0
100
AcDbEntity
  8
0
100
AcDbBlockEnd
  0
ENDSEC
  0
SECTION
  2
ENTITIES
  0
SPLINE
  5
3C
330
1F
100
AcDbEntity
  8
Layer 3
 62
     7
420
 16777215
370
    35
100
AcDbSpline
210
0.0
220
0.0
230
1.0
 70
    11
 71
     3
 72
    17
 73
    13
 74
     0
 42
0.0000000001
 43
0.0000000001
 40
0.0
 40
0.0
 40
0.0
 40
0.0
 40
1.0
 40
1.0
 40
1.0
 40
2.0
 40
2.0
 40
2.0
 40
3.0
 40
3.0
 40
3.0
 40
4.0
 40
4.0
 40
4.0
 40
4.0
 10
3.516064452245984
 20
-21.66758354493033
 30
0.0
 10
3.516064452245984
 20
-32.43764105091837
 30
0.0
 10
-5.213462997828579
 20
-41.16820202963851
 30
0.0
 10
-15.98386501336515
 20
-41.16820202963851
 30
0.0
 10
-26.75357800980466
 20
-41.16820202963851
 30
0.0
 10
-35.48310545987923
 20
-32.43764105091837
 30
0.0
 10
-35.48310545987923
 20
-21.66758354493033
 30
0.0
 10
-35.48310545987923
 20
-10.89821505803934
 30
0.0
 10
-26.75357800980466
 20
-2.168343098416248
 30
0.0
 10
-15.98386501336515
 20
-2.168343098416248
 30
0.0
 10
-5.213462997828579
 20
-2.168343098416248
 30
0.0
 10
3.516064452245984
 20
-10.89821505803934
 30
0.0
 10
3.516064452245984
 20
-21.66758354493033
 30
0.0
  0
SPLINE
  5
3D
330
1F
100
AcDbEntity
  8
Layer 3
 62
     7
420
 16777215
370
    35
100
AcDbSpline
210
0.0
220
0.0
230
1.0
 70
    11
 71
     3
 72
    17
 73
    13
 74
     0
 42
0.0000000001
 43
0.0000000001
 40
0.0
 40
0.0
 40
0.0
 40
0.0
 40
1.0
 40
1.0
 40
1.0
 40
2.0
 40
2.0
 40
2.0
 40
3.0
 40
3.0
 40
3.0
 40
4.0
 40
4.0
 40
4.0
 40
4.0
 10
48.31574163288634
 20
-21.41023491218217
 30
0.0
 10
48.31574163288634
 20
-32.1802924181702
 30
0.0
 10
39.58621418281178
 20
-40.91085339689035
 30
0.0
 10
28.81581216727522
 20
-40.91085339689035
 30
0.0
 10
18.0460991708357
 20
-40.91085339689035
 30
0.0
 10
9.316571720761136
 20
-32.1802924181702
 30
0.0
 10
9.316571720761136
 20
-21.41023491218217
 30
0.0
 10
9.316571720761136
 20
-10.64086642529117
 30
0.0
 10
18.0460991708357
 20
-1.910994465668085
 30
0.0
 10
28.81581216727522
 20
-1.910994465668085
 30
0.0
 10
39.58621418281178
 20
-1.910994465668085
 30
0.0
 10
48.31574163288634
 20
-10.64086642529117
 30
0.0
 10
48.31574163288634
 20
-21.41023491218217
 30
0.0
  0
TEXT
  5
3E
330
1F
100
AcDbEntity
  8
Layer 3
 62
     7
420
 16777215
100
AcDbText
 10
-25.54124890854525
 20
-36.13457301613997
 30
0.0
 40
1.199444444144584
  1
i
 50
327.3346303123267
  7
Style 1
100
AcDbText
  0
TEXT
  5
40
330
1F
100
AcDbEntity
  8
Layer 3
 62
     7
420
 16777215
100
AcDbText
 10
-25.08442924720111
 20
-36.43395181380818
 30
0.0
 40
1.199444444144584
  1
n
 50
330.0122557122685
 41
0.9999999403953552
  7
Style 2
100
AcDbText
  0
TEXT
  5
42
330
1F
100
AcDbEntity
  8
Layer 3
 62
     7
420
 16777215
100
AcDbText
 10
-24.14460719882496
 20
-36.96759710447338
 30
0.0
 40
1.199444444144584
  1
 
 50
332.5723472169726
  7
Style 3
100
AcDbText
  0
TEXT
  5
44
330
1F
100
AcDbEntity
  8
Layer 3
 62
     7
420
 16777215
100
AcDbText
 10
-23.75186631350648
 20
-37.17120224765164
 30
0.0
 40
1.199444444144584
  1
i
 50
334.183725445962
  7
Style 4
100
AcDbText
  0
TEXT
  5
46
330
1F
100
AcDbEntity
  8
Layer 3
 62
     7
420
 16777215
100
AcDbText
 10
-23.26920843602298
 20
-37.41132540297356
 30
0.0
 40
1.199444444144584
  1
n
 50
336.8546572605172
  7
Style 5
100
AcDbText
  0
TEXT
  5
48
330
1F
100
AcDbEntity
  8
Layer 3
 62
     7
420
 16777215
100
AcDbText
 10
-22.26875270710642
 20
-37.83300509036814
 30
0.0
 40
1.199444444144584
  1
f
 50
339.974769635649
  7
Style 6
100
AcDbText
  0
TEXT
  5
4A
330
1F
100
AcDbEntity
  8
Layer 3
 62
     7
420
 16777215
100
AcDbText
 10
-21.54838324114068
 20
-38.09965548092648
 30
0.0
 40
1.199444444144584
  1
o
 50
343.0768229906154
 41
0.9999999403953552
  7
Style 7
100
AcDbText
  0
TEXT
  5
4C
330
1F
100
AcDbEntity
  8
Layer 3
 62
     7
420
 16777215
100
AcDbText
 10
-20.48212618845586
 20
-38.41798230376356
 30
0.0
 40
1.199444444144584
  1
r
 50
346.2406212556787
  7
Style 8
100
AcDbText
  0
TEXT
  5
4E
330
1F
100
AcDbEntity
  8
Layer 3
 62
     7
420
 16777215
100
AcDbText
 10
-19.72144910531269
 20
-38.61641980371395
 30
0.0
 40
1.199444444144584
  1
m
 50
350.1397576867855
  7
Style 9
100
AcDbText
  0
TEXT
  5
50
330
1F
100
AcDbEntity
  8
Layer 3
 62
     7
420
 16777215
100
AcDbText
 10
-18.16013183139747
 20
-38.87480196510769
 30
0.0
 40
1.199444444144584
  1
a
 50
354.4711631300841
  7
Style 10
100
AcDbText
  0
TEXT
  5
52
330
1F
100
AcDbEntity
  8
Layer 3
 62
     7
420
 16777215
100
AcDbText
 10
-17.15692002609272
 20
-38.96885307185501
 30
0.0
 40
1.199444444144584
  1
t
 50
357.4605183637452
 41
0.9999999403953552
  7
Style 11
100
AcDbText
  0
TEXT
  5
54
330
1F
100
AcDbEntity
  8
Layer 3
 62
     7
420
 16777215
100
AcDbText
 10
-16.35111219209278
 20
-38.99882540257668
 30
0.0
 40
1.199444444144584
  1
i
 50
359.0706398379274
  7
Style 12
100
AcDbText
  0
TEXT
  5
56
330
1F
100
AcDbEntity
  8
Layer 3
 62
     7
420
 16777215
100
AcDbText
 10
-15.79300672348231
 20
-39.00984970812949
 30
0.0
 40
1.199444444144584
  1
o
 50
2.356059666930735
 41
0.9999999403953552
  7
Style 13
100
AcDbText
  0
TEXT
  5
58
330
1F
100
AcDbEntity
  8
Layer 3
 62
     7
420
 16777215
100
AcDbText
 10
-14.68713107271711
 20
-38.96334091907861
 30
0.0
 40
1.199444444144584
  1
n
 50
5.935337058545408
 41
0.9999999403953552
  7
Style 14
100
AcDbText
  0
TEXT
  5
5A
330
1F
100
AcDbEntity
  8
Layer 3
 62
     7
420
 16777215
100
AcDbText
 10
-13.62018500093523
 20
-38.84517414393454
 30
0.0
 40
1.199444444144584
  1
 
 50
8.4616703532768
  7
Style 15
100
AcDbText
  0
TEXT
  5
5C
330
1F
100
AcDbEntity
  8
Layer 3
 62
     7
420
 16777215
100
AcDbText
 10
-13.15406358178093
 20
-38.78764104933087
 30
0.0
 40
1.199444444144584
  1
w
 50
11.6090718954638
  7
Style 16
100
AcDbText
  0
TEXT
  5
5E
330
1F
100
AcDbEntity
  8
Layer 3
 62
     7
420
 16777215
100
AcDbText
 10
-11.77258029219574
 20
-38.49618597127873
 30
0.0
 40
1.199444444144584
  1
e
 50
15.72165259190719
  7
Style 17
100
AcDbText
  0
TEXT
  5
60
330
1F
100
AcDbEntity
  8
Layer 3
 62
     7
420
 16777215
100
AcDbText
 10
-10.75076497127064
 20
-38.20094128819282
 30
0.0
 40
1.199444444144584
  1
 
 50
18.25411427387137
  7
Style 18
100
AcDbText
  0
TEXT
  5
62
330
1F
100
AcDbEntity
  8
Layer 3
 62
     7
420
 16777215
100
AcDbText
 10
-10.32874077432754
 20
-38.06486001652545
 30
0.0
 40
1.199444444144584
  1
t
 50
20.32973192301009
  7
Style 19
100
AcDbText
  0
TEXT
  5
64
330
1F
100
AcDbEntity
  8
Layer 3
 62
     7
420
 16777215
100
AcDbText
 10
-9.554972328340424
 20
-37.77616101486151
 30
0.0
 40
1.199444444144584
  1
r
 50
23.01469977630961
 41
0.9999999403953552
  7
Style 20
100
AcDbText
  0
TEXT
  5
66
330
1F
100
AcDbEntity
  8
Layer 3
 62
     7
420
 16777215
100
AcDbText
 10
-8.840804034248134
 20
-37.47643770764478
 30
0.0
 40
1.199444329756647
  1
u
 50
26.0759034773974
  7
Style 21
100
AcDbText
  0
TEXT
  5
68
330
1F
100
AcDbEntity
  8
Layer 3
 62
     7
420
 16777215
100
AcDbText
 10
-7.864463973728329
 20
-36.99412433970981
 30
0.0
 40
1.199444444144584
  1
s
 50
29.38025337520119
  7
Style 22
100
AcDbText
  0
TEXT
  5
6A
330
1F
100
AcDbEntity
  8
Layer 3
 62
     7
420
 16777215
100
AcDbText
 10
-7.093107094580891
 20
-36.55797525127718
 30
0.0
 40
1.199444444144584
  1
t
 50
32.19219786026584
  7
Style 23
100
AcDbText
  0
INSERT
  5
6D
330
1F
100
AcDbEntity
  8
Layer 3
100
AcDbBlockReference
  2
block 2
 10
0.0
 20
0.0
 30
0.0
  0
INSERT
  5
71
330
1F
100
AcDbEntity
  8
Layer 3
100
AcDbBlockReference
  2
block 3
 10
0.0
 20
0.0
 30
0.0
  0
INSERT
  5
75
330
1F
100
AcDbEntity
  8
Layer 3
100
AcDbBlockReference
  2
block 4
 10
0.0
 20
0.0
 30
0.0
  0
INSERT
  5
79
330
1F
100
AcDbEntity
  8
Layer 3
100
AcDbBlockReference
  2
block 5
 10
0.0
 20
0.0
 30
0.0
  0
INSERT
  5
7D
330
1F
100
AcDbEntity
  8
Layer 3
100
AcDbBlockReference
  2
block 6
 10
0.0
 20
0.0
 30
0.0
  0
MTEXT
  5
80
330
1F
100
AcDbEntity
  8
Layer 3
 62
     7
420
 16777215
100
AcDbMText
 10
-2.559705945540629
 20
-26.79112955059389
 30
0.0
 40
1.079499999730125
 41
0.0
 71
     7
 72
     1
  1
\fUbuntu|b1|i0|c0|p34;\W1;2011
 73
     1
 44
1.0
  0
MTEXT
  5
81
330
1F
100
AcDbEntity
  8
Layer 3
 62
     7
420
 16777215
100
AcDbMText
 10
-3.49160427430071
 20
-28.69385578709737
 30
0.0
 40
1.079499999730125
 41
0.0
 71
     7
 72
     1
  1
\fUbuntu|b1|i0|c0|p34;\W1;2014
 73
     1
 44
1.0
  0
TEXT
  5
82
330
1F
100
AcDbEntity
  8
Layer 3
 62
     7
420
 16777215
100
AcDbText
 10
12.55496147689598
 20
-21.83673773325609
 30
0.0
 40
1.210505643171105
  1
T
 50
88.86483872480038
  7
Style 24
100
AcDbText
  0
TEXT
  5
84
330
1F
100
AcDbEntity
  8
Layer 3
 62
     7
420
 16777215
100
AcDbText
 10
12.57632106890453
 20
-20.76565754689192
 30
0.0
 40
1.210505757559041
  1
h
 50
85.24022808700387
  7
Style 25
100
AcDbText
  0
TEXT
  5
86
330
1F
100
AcDbEntity
  8
Layer 3
 62
     7
420
 16777215
100
AcDbText
 10
12.66210394648725
 20
-19.72902831538024
 30
0.0
 40
1.210505757559041
  1
e
 50
81.62750197836318
  7
Style 26
100
AcDbText
  0
TEXT
  5
88
330
1F
100
AcDbEntity
  8
Layer 3
 62
     7
420
 16777215
100
AcDbText
 10
12.81782226242055
 20
-18.71651475226532
 30
0.0
 40
1.210505757559041
  1
 
 50
79.10711436330428
  7
Style 27
100
AcDbText
  0
TEXT
  5
8A
330
1F
100
AcDbEntity
  8
Layer 3
 62
     7
420
 16777215
100
AcDbText
 10
12.89223632490194
 20
-18.31171603274846
 30
0.0
 40
1.210505757559041
  1
r
 50
77.08839048240448
  7
Style 28
100
AcDbText
  0
TEXT
  5
8C
330
1F
100
AcDbEntity
  8
Layer 3
 62
     7
420
 16777215
100
AcDbText
 10
13.05966796548508
 20
-17.59134656678272
 30
0.0
 40
1.210505757559041
  1
i
 50
74.90384326883512
  7
Style 29
100
AcDbText
  0
TEXT
  5
8E
330
1F
100
AcDbEntity
  8
Layer 3
 62
     7
420
 16777215
100
AcDbText
 10
13.18300238385703
 20
-17.10799967020217
 30
0.0
 40
1.210505757559041
  1
g
 50
72.1886928095933
  7
Style 30
100
AcDbText
  0
TEXT
  5
90
330
1F
100
AcDbEntity
  8
Layer 3
 62
     7
420
 16777215
100
AcDbText
 10
13.50270724488821
 20
-16.11305609406201
 30
0.0
 40
1.210505757559041
  1
h
 50
68.52204235745536
  7
Style 31
100
AcDbText
  0
TEXT
  5
92
330
1F
100
AcDbEntity
  8
Layer 3
 62
     7
420
 16777215
100
AcDbText
 10
13.88649088194505
 20
-15.14636230090091
 30
0.0
 40
1.210505757559041
  1
t
 50
65.31965352358152
  7
Style 32
100
AcDbText
  0
TEXT
  5
94
330
1F
100
AcDbEntity
  8
Layer 3
 62
     7
420
 16777215
100
AcDbText
 10
14.2141194625923
 20
-14.44115125507027
 30
0.0
 40
1.210505757559041
  1
 
 50
63.22652839205278
  7
Style 33
100
AcDbText
  0
TEXT
  5
96
330
1F
100
AcDbEntity
  8
Layer 3
 62
     7
420
 16777215
100
AcDbText
 10
14.3973985424076
 20
-14.07011447130886
 30
0.0
 40
1.210505757559041
  1
t
 50
61.13866250618494
 41
0.9999999403953552
  7
Style 34
100
AcDbText
  0
TEXT
  5
98
330
1F
100
AcDbEntity
  8
Layer 3
 62
     7
420
 16777215
100
AcDbText
 10
14.75224337738833
 20
-13.41485731001434
 30
0.0
 40
1.210505757559041
  1
o
 50
58.02365911255224
  7
Style 35
100
AcDbText
  0
TEXT
  5
9A
330
1F
100
AcDbEntity
  8
Layer 3
 62
     7
420
 16777215
100
AcDbText
 10
15.32344020884275
 20
-12.51396484062151
 30
0.0
 40
1.210505757559041
  1
 
 50
55.44120898360002
  7
Style 36
100
AcDbText
  0
TEXT
  5
9C
330
1F
100
AcDbEntity
  8
Layer 3
 62
     7
420
 16777215
100
AcDbText
 10
15.55012749177219
 20
-12.1787570499067
 30
0.0
 40
1.210505757559041
  1
r
 50
53.46596950205111
  7
Style 37
100
AcDbText
  0
TEXT
  5
9E
330
1F
100
AcDbEntity
  8
Layer 3
 62
     7
420
 16777215
100
AcDbText
 10
15.98076442742842
 20
-11.5899902314775
 30
0.0
 40
1.210505757559041
  1
e
 50
50.42385788724079
  7
Style 38
100
AcDbText
  0
TEXT
  5
A0
330
1F
100
AcDbEntity
  8
Layer 3
 62
     7
420
 16777215
100
AcDbText
 10
16.63326551233474
 20
-10.80347493219496
 30
0.0
 40
1.210505871946977
  1
c
 50
47.13538134906811
  7
Style 39
100
AcDbText
  0
TEXT
  5
A2
330
1F
100
AcDbEntity
  8
Layer 3
 62
     7
420
 16777215
100
AcDbText
 10
17.19826117191571
 20
-10.18955891672344
 30
0.0
 40
1.210505757559041
  1
e
 50
43.97483083895519
  7
Style 40
100
AcDbText
  0
TEXT
  5
A4
330
1F
100
AcDbEntity
  8
Layer 3
 62
     7
420
 16777215
100
AcDbText
 10
17.93964572034148
 20
-9.482280813601653
 30
0.0
 40
1.210505757559041
  1
i
 50
41.32757587515789
  7
Style 41
100
AcDbText
  0
TEXT
  5
A6
330
1F
100
AcDbEntity
  8
Layer 3
 62
     7
420
 16777215
100
AcDbText
 10
18.28725585480319
 20
-9.168432614895393
 30
0.0
 40
1.210505757559041
  1
v
 50
38.88892513389654
  7
Style 42
100
AcDbText
  0
TEXT
  5
A8
330
1F
100
AcDbEntity
  8
Layer 3
 62
     7
420
 16777215
100
AcDbText
 10
19.01933864541878
 20
-8.575531681883895
 30
0.0
 40
1.210505757559041
  1
e
 50
35.50356577744181
  7
Style 43
100
AcDbText
  0
TEXT
  5
AA
330
1F
100
AcDbEntity
  8
Layer 3
 62
     7
420
 16777215
100
AcDbText
 10
19.85442979104334
 20
-7.987109373003223
 30
0.0
 40
1.210505757559041
  1
 
 50
33.00883576800008
  7
Style 44
100
AcDbText
  0
TEXT
  5
AC
330
1F
100
AcDbEntity
  8
Layer 3
 62
     7
420
 16777215
100
AcDbText
 10
20.1958387536316
 20
-7.752498370457709
 30
0.0
 40
1.210505757559041
  1
&
 50
30.11640433375599
  7
Style 45
100
AcDbText
  0
TEXT
  5
AE
330
1F
100
AcDbEntity
  8
Layer 3
 62
     7
420
 16777215
100
AcDbText
 10
21.27622069780595
 20
-7.137548826340613
 30
0.0
 40
1.210505643171105
  1
 
 50
27.21149072880372
  7
Style 46
100
AcDbText
  0
TEXT
  5
B0
330
1F
100
AcDbEntity
  8
Layer 3
 62
     7
420
 16777215
100
AcDbText
 10
21.64622395292178
 20
-6.946346026909247
 30
0.0
 40
1.210505757559041
  1
i
 50
25.5961988014199
  7
Style 47
100
AcDbText
  0
TEXT
  5
B2
330
1F
100
AcDbEntity
  8
Layer 3
 62
     7
420
 16777215
100
AcDbText
 10
22.08995225142196
 20
-6.716213648494558
 30
0.0
 40
1.210505757559041
  1
m
 50
22.04905446164237
 41
0.9999999403953552
  7
Style 48
100
AcDbText
  0
TEXT
  5
B4
330
1F
100
AcDbEntity
  8
Layer 3
 62
     7
420
 16777215
100
AcDbText
 10
23.49072807572454
 20
-6.157074651238509
 30
0.0
 40
1.210505757559041
  1
p
 50
17.54574510976559
 41
0.9999999403953552
  7
Style 49
100
AcDbText
  0
TEXT
  5
B6
330
1F
100
AcDbEntity
  8
Layer 3
 62
     7
420
 16777215
100
AcDbText
 10
24.51047633935849
 20
-5.835991752013225
 30
0.0
 40
1.210505757559041
  1
a
 50
13.93728018539334
 41
0.9999999403953552
  7
Style 50
100
AcDbText
  0
TEXT
  5
B8
330
1F
100
AcDbEntity
  8
Layer 3
 62
     7
420
 16777215
100
AcDbText
 10
25.45270995457432
 20
-5.605170354501485
 30
0.0
 40
1.210505757559041
  1
r
 50
10.93765490854144
  7
Style 51
100
AcDbText
  0
TEXT
  5
BA
330
1F
100
AcDbEntity
  8
Layer 3
 62
     7
420
 16777215
100
AcDbText
 10
26.17652451602531
 20
-5.464265949154767
 30
0.0
 40
1.210505757559041
  1
t
 50
8.281266274276545
  7
Style 52
100
AcDbText
  0
TEXT
  5
BC
330
1F
100
AcDbEntity
  8
Layer 3
 62
     7
420
 16777215
100
AcDbText
 10
26.9444362996875
 20
-5.355745441369397
 30
0.0
 40
1.210505757559041
  1
 
 50
6.208124995598785
 41
0.9999999403953552
  7
Style 53
100
AcDbText
  0
TEXT
  5
BE
330
1F
100
AcDbEntity
  8
Layer 3
 62
     7
420
 16777215
100
AcDbText
 10
27.36646049663061
 20
-5.309581161867049
 30
0.0
 40
1.210505757559041
  1
i
 50
4.576221621266666
  7
Style 54
100
AcDbText
  0
TEXT
  5
C0
330
1F
100
AcDbEntity
  8
Layer 3
 62
     7
420
 16777215
100
AcDbText
 10
27.85635307463313
 20
-5.263416882364702
 30
0.0
 40
1.210505757559041
  1
n
 50
1.950087523373752
 41
0.9999999403953552
  7
Style 55
100
AcDbText
  0
TEXT
  5
C2
330
1F
100
AcDbEntity
  8
Layer 3
 62
     7
420
 16777215
100
AcDbText
 10
28.88988172020809
 20
-5.232066513448928
 30
0.0
 40
1.210505757559041
  1
f
 50
358.9112778642126
  7
Style 56
100
AcDbText
  0
TEXT
  5
C4
330
1F
100
AcDbEntity
  8
Layer 3
 62
     7
420
 16777215
100
AcDbText
 10
29.6181749057899
 20
-5.240334742613528
 30
0.0
 40
1.210505757559041
  1
o
 50
355.8286768880025
  7
Style 57
100
AcDbText
  0
TEXT
  5
C6
330
1F
100
AcDbEntity
  8
Layer 3
 62
     7
420
 16777215
100
AcDbText
 10
30.67513020066455
 20
-5.321294486516899
 30
0.0
 40
1.210505757559041
  1
r
 50
352.711433192322
 41
0.9999999403953552
  7
Style 58
100
AcDbText
  0
TEXT
  5
C8
330
1F
100
AcDbEntity
  8
Layer 3
 62
     7
420
 16777215
100
AcDbText
 10
31.41065808676539
 20
-5.401220701774695
 30
0.0
 40
1.210505757559041
  1
m
 50
348.7495683038778
  7
Style 59
100
AcDbText
  0
TEXT
  5
CA
330
1F
100
AcDbEntity
  8
Layer 3
 62
     7
420
 16777215
100
AcDbText
 10
32.88722601174347
 20
-5.704733614025206
 30
0.0
 40
1.210505757559041
  1
a
 50
344.4122069356229
  7
Style 60
100
AcDbText
  0
TEXT
  5
CC
330
1F
100
AcDbEntity
  8
Layer 3
 62
     7
420
 16777215
100
AcDbText
 10
33.82980413650782
 20
-5.970350475937968
 30
0.0
 40
1.210505757559041
  1
t
 50
341.3037058820801
  7
Style 61
100
AcDbText
  0
TEXT
  5
CE
330
1F
100
AcDbEntity
  8
Layer 3
 62
     7
420
 16777215
100
AcDbText
 10
34.55327418841029
 20
-6.217363822230381
 30
0.0
 40
1.210505757559041
  1
i
 50
339.0963799876287
  7
Style 62
100
AcDbText
  0
TEXT
  5
D0
330
1F
100
AcDbEntity
  8
Layer 3
 62
     7
420
 16777215
100
AcDbText
 10
35.03765461363642
 20
-6.395130749269273
 30
0.0
 40
1.210505757559041
  1
o
 50
336.2842271817944
  7
Style 63
100
AcDbText
  0
TEXT
  5
D2
330
1F
100
AcDbEntity
  8
Layer 3
 62
     7
420
 16777215
100
AcDbText
 10
36.00848252137983
 20
-6.821289060794678
 30
0.0
 40
1.210505757559041
  1
n
 50
332.6184100127352
  7
Style 64
100
AcDbText
  0
TEXT
  5
D4
330
1F
100
AcDbEntity
  8
Layer 3
 62
     7
420
 16777215
100
AcDbText
 10
36.91936576767988
 20
-7.30050184279293
 30
0.0
 40
1.210505643171105
  1
 
 50
330.1011574545053
 41
0.9999999403953552
  7
Style 65
100
AcDbText
  0
TEXT
  5
D6
330
1F
100
AcDbEntity
  8
Layer 3
 62
     7
420
 16777215
100
AcDbText
 10
37.28420137956784
 20
-7.50720757190792
 30
0.0
 40
1.210505643171105
  1
r
 50
328.1993869027636
  7
Style 66
100
AcDbText
  0
TEXT
  5
D8
330
1F
100
AcDbEntity
  8
Layer 3
 62
     7
420
 16777215
100
AcDbText
 10
37.83507214765929
 20
-7.84448241991388
 30
0.0
 40
1.210505757559041
  1
e
 50
325.4861625568678
  7
Style 67
100
AcDbText
  0
TEXT
  5
DA
330
1F
100
AcDbEntity
  8
Layer 3
 62
     7
420
 16777215
100
AcDbText
 10
38.59609374035098
 20
-8.36503634773513
 30
0.0
 40
1.210505757559041
  1
g
 50
322.0955473698468
  7
Style 68
100
AcDbText
  0
TEXT
  5
DC
330
1F
100
AcDbEntity
  8
Layer 3
 62
     7
420
 16777215
100
AcDbText
 10
39.41154784170961
 20
-9.002034502957825
 30
0.0
 40
1.210505757559041
  1
a
 50
318.6739777655072
  7
Style 69
100
AcDbText
  0
TEXT
  5
DE
330
1F
100
AcDbEntity
  8
Layer 3
 62
     7
420
 16777215
100
AcDbText
 10
40.09953341011401
 20
-9.61078287520147
 30
0.0
 40
1.210505757559041
  1
r
 50
315.940290172858
  7
Style 70
100
AcDbText
  0
TEXT
  5
E0
330
1F
100
AcDbEntity
  8
Layer 3
 62
     7
420
 16777215
100
AcDbText
 10
40.57461207752996
 20
-10.06277940286625
 30
0.0
 40
1.210505757559041
  1
d
 50
312.9944295838314
 41
0.9999999403953552
  7
Style 71
100
AcDbText
  0
TEXT
  5
E2
330
1F
100
AcDbEntity
  8
Layer 3
 62
     7
420
 16777215
100
AcDbText
 10
41.2839572379429
 20
-10.83344726291664
 30
0.0
 40
1.210505757559041
  1
l
 50
310.3461739973208
  7
Style 72
100
AcDbText
  0
TEXT
  5
E4
330
1F
100
AcDbEntity
  8
Layer 3
 62
     7
420
 16777215
100
AcDbText
 10
41.59642739845506
 20
-11.1927707220282
 30
0.0
 40
1.210505757559041
  1
e
 50
307.9077418221129
  7
Style 73
100
AcDbText
  0
TEXT
  5
E6
330
1F
100
AcDbEntity
  8
Layer 3
 62
     7
420
 16777215
100
AcDbText
 10
42.16107854848751
 20
-11.92003037896444
 30
0.0
 40
1.210505757559041
  1
s
 50
304.9893385935498
  7
Style 74
100
AcDbText
  0
TEXT
  5
E8
330
1F
100
AcDbEntity
  8
Layer 3
 62
     7
420
 16777215
100
AcDbText
 10
42.59929469421129
 20
-12.54634873818286
 30
0.0
 40
1.210505757559041
  1
s
 50
302.3190078356416
  7
Style 75
100
AcDbText
  0
TEXT
  5
EA
330
1F
100
AcDbEntity
  8
Layer 3
 62
     7
420
 16777215
100
AcDbText
 10
43.00443792327667
 20
-13.19264865121573
 30
0.0
 40
1.210505757559041
  1
 
 50
300.3773216583904
  7
Style 76
100
AcDbText
  0
TEXT
  5
EC
330
1F
100
AcDbEntity
  8
Layer 3
 62
     7
420
 16777215
100
AcDbText
 10
43.18599445534934
 20
-13.48823784385016
 30
0.0
 40
1.210505757559041
  1
o
 50
297.9916458643316
 41
0.9999999403953552
  7
Style 77
100
AcDbText
  0
TEXT
  5
EE
330
1F
100
AcDbEntity
  8
Layer 3
 62
     7
420
 16777215
100
AcDbText
 10
43.65349391269774
 20
-14.37776149814167
 30
0.0
 40
1.210505757559041
  1
f
 50
295.2034806828624
  7
Style 78
100
AcDbText
  0
TEXT
  5
F0
330
1F
100
AcDbEntity
  8
Layer 3
 62
     7
420
 16777215
100
AcDbText
 10
43.91118705499443
 20
-14.92932128533017
 30
0.0
 40
1.210505757559041
  1
 
 50
293.4992938434309
  7
Style 79
100
AcDbText
  0
TEXT
  5
F2
330
1F
100
AcDbEntity
  8
Layer 3
 62
     7
420
 16777215
100
AcDbText
 10
44.0527804794382
 20
-15.25040418455545
 30
0.0
 40
1.210505757559041
  1
f
 50
291.8302141763332
  7
Style 80
100
AcDbText
  0
TEXT
  5
F4
330
1F
100
AcDbEntity
  8
Layer 3
 62
     7
420
 16777215
100
AcDbText
 10
44.27326659049419
 20
-15.7985188762587
 30
0.0
 40
1.210505757559041
  1
r
 50
289.624500206526
  7
Style 81
100
AcDbText
  0
TEXT
  5
F6
330
1F
100
AcDbEntity
  8
Layer 3
 62
     7
420
 16777215
100
AcDbText
 10
44.498231325681
 20
-16.4134684203758
 30
0.0
 40
1.210505757559041
  1
o
 50
286.6992394680362
  7
Style 82
100
AcDbText
  0
TEXT
  5
F8
330
1F
100
AcDbEntity
  8
Layer 3
 62
     7
420
 16777215
100
AcDbText
 10
44.78761934644199
 20
-17.37568358940608
 30
0.0
 40
1.210505757559041
  1
n
 50
283.1334435891827
 41
0.9999999403953552
  7
Style 83
100
AcDbText
  0
TEXT
  5
FA
330
1F
100
AcDbEntity
  8
Layer 3
 62
     7
420
 16777215
100
AcDbText
 10
45.01602917711405
 20
-18.37407226103148
 30
0.0
 40
1.210505757559041
  1
t
 50
280.2177997570444
 41
0.9999999403953552
  7
Style 84
100
AcDbText
  0
TEXT
  5
FC
330
1F
100
AcDbEntity
  8
Layer 3
 62
     7
420
 16777215
100
AcDbText
 10
45.12765027083614
 20
-18.9990125820558
 30
0.0
 40
1.210505757559041
  1
i
 50
278.2815777311291
  7
Style 85
100
AcDbText
  0
TEXT
  5
FE
330
1F
100
AcDbEntity
  8
Layer 3
 62
     7
420
 16777215
100
AcDbText
 10
45.20240884286606
 20
-19.47822536405405
 30
0.0
 40
1.210505757559041
  1
e
 50
275.7990498546396
 41
0.9999999403953552
  7
Style 86
100
AcDbText
  0
TEXT
  5
100
330
1F
100
AcDbEntity
  8
Layer 3
 62
     7
420
 16777215
100
AcDbText
 10
45.29301485412814
 20
-20.40116644455249
 30
0.0
 40
1.210505757559041
  1
r
 50
273.0383147128771
  7
Style 87
100
AcDbText
  0
TEXT
  5
102
330
1F
100
AcDbEntity
  8
Layer 3
 62
     7
420
 16777215
100
AcDbText
 10
45.32712129943211
 20
-21.06262477772045
 30
0.0
 40
1.210505757559041
  1
s
 50
270.9283873159902
  7
Style 88
100
AcDbText
  0
TEXT
  5
104
330
1F
100
AcDbEntity
  8
Layer 3
 62
     7
420
 16777215
100
AcDbText
 10
15.04473198408604
 20
-32.2436821750988
 30
0.0
 40
1.088318394494834
  1
 
 50
307.9454444663313
  7
Style 89
100
AcDbText
  0
TEXT
  5
106
330
1F
100
AcDbEntity
  8
Layer 3
 62
     7
420
 16777215
100
AcDbText
 10
15.2524712418466
 20
-32.51722275662764
 30
0.0
 40
1.088318280106898
  1
\U+00A7
 50
310.0015772933153
  7
Style 90
100
AcDbText
  0
TEXT
  5
108
330
1F
100
AcDbEntity
  8
Layer 3
 62
     7
420
 16777215
100
AcDbText
 10
15.85570746131385
 20
-33.23414712710813
 30
0.0
 40
1.088318280106898
  1
1
 50
313.0343178885844
  7
Style 91
100
AcDbText
  0
TEXT
  5
10A
330
1F
100
AcDbEntity
  8
Layer 3
 62
     7
420
 16777215
100
AcDbText
 10
16.48271483962932
 20
-33.90456270853775
 30
0.0
 40
1.088318280106898
  1
9
 50
316.0256402167265
  7
Style 92
100
AcDbText
  0
TEXT
  5
10C
330
1F
100
AcDbEntity
  8
Layer 3
 62
     7
420
 16777215
100
AcDbText
 10
17.15244140196189
 20
-34.54293890195454
 30
0.0
 40
1.088318280106898
  1
 
 50
318.1181096500949
  7
Style 93
100
AcDbText
  0
TEXT
  5
10E
330
1F
100
AcDbEntity
  8
Layer 3
 62
     7
420
 16777215
100
AcDbText
 10
17.40875650606448
 20
-34.78306205727646
 30
0.0
 40
1.088318280106898
  1
U
 50
320.5105336710536
  7
Style 94
100
AcDbText
  0
TEXT
  5
110
330
1F
100
AcDbEntity
  8
Layer 3
 62
     7
420
 16777215
100
AcDbText
 10
18.28139919247826
 20
-35.49757486091728
 30
0.0
 40
1.088318280106898
  1
n
 50
323.9377040305126
  7
Style 95
100
AcDbText
  0
TEXT
  5
112
330
1F
100
AcDbEntity
  8
Layer 3
 62
     7
420
 16777215
100
AcDbText
 10
19.0720486063431
 20
-36.06567110643497
 30
0.0
 40
1.088318280106898
  1
i
 50
326.3007855587969
 41
0.9999999403953552
  7
Style 96
100
AcDbText
  0
TEXT
  5
114
330
1F
100
AcDbEntity
  8
Layer 3
 62
     7
420
 16777215
100
AcDbText
 10
19.45893282933666
 20
-36.32784287286248
 30
0.0
 40
1.088318280106898
  1
v
 50
328.5003796791078
  7
Style 97
100
AcDbText
  0
TEXT
  5
116
330
1F
100
AcDbEntity
  8
Layer 3
 62
     7
420
 16777215
100
AcDbText
 10
20.19204914859782
 20
-36.77708332413906
 30
0.0
 40
1.088318280106898
  1
e
 50
331.3120407113219
 41
0.9999999403953552
  7
Style 98
100
AcDbText
  0
TEXT
  5
118
330
1F
100
AcDbEntity
  8
Layer 3
 62
     7
420
 16777215
100
AcDbText
 10
20.95961642271148
 20
-37.19325085875725
 30
0.0
 40
1.088318280106898
  1
r
 50
333.7929020216539
 41
0.9999999403953552
  7
Style 99
100
AcDbText
  0
TEXT
  5
11A
330
1F
100
AcDbEntity
  8
Layer 3
 62
     7
420
 16777215
100
AcDbText
 10
21.52840168732623
 20
-37.47368163125658
 30
0.0
 40
1.088318165718962
  1
s
 50
336.0209370496688
  7
Style 100
100
AcDbText
  0
TEXT
  5
11C
330
1F
100
AcDbEntity
  8
Layer 3
 62
     7
420
 16777215
100
AcDbText
 10
22.20191785469258
 20
-37.77374944802184
 30
0.0
 40
1.088318165718962
  1
a
 50
338.6985624496105
  7
Style 101
100
AcDbText
  0
TEXT
  5
11E
330
1F
100
AcDbEntity
  8
Layer 3
 62
     7
420
 16777215
100
AcDbText
 10
23.01530489876006
 20
-38.086219608534
 30
0.0
 40
1.088318280106898
  1
l
 50
340.9051780043882
  7
Style 102
100
AcDbText
  0
TEXT
  5
120
330
1F
100
AcDbEntity
  8
Layer 3
 62
     7
420
 16777215
100
AcDbText
 10
23.45076496809564
 20
-38.2364257716909
 30
0.0
 40
1.088318280106898
  1
 
 50
342.2335131941722
  7
Style 103
100
AcDbText
  0
TEXT
  5
122
330
1F
100
AcDbEntity
  8
Layer 3
 62
     7
420
 16777215
100
AcDbText
 10
23.77736002009733
 20
-38.34873588451004
 30
0.0
 40
1.088318280106898
  1
D
 50
344.6785843132535
  7
Style 104
100
AcDbText
  0
TEXT
  5
124
330
1F
100
AcDbEntity
  8
Layer 3
 62
     7
420
 16777215
100
AcDbText
 10
24.90252820557992
 20
-38.65190428721203
 30
0.0
 40
1.088318280106898
  1
e
 50
348.076330217768
  7
Style 105
100
AcDbText
  0
TEXT
  5
126
330
1F
100
AcDbEntity
  8
Layer 3
 62
     7
420
 16777215
100
AcDbText
 10
25.76483560553796
 20
-38.83139376199354
 30
0.0
 40
1.088318280106898
  1
c
 50
350.7727796190623
  7
Style 106
100
AcDbText
  0
TEXT
  5
128
330
1F
100
AcDbEntity
  8
Layer 3
 62
     7
420
 16777215
100
AcDbText
 10
26.5017415298329
 20
-38.94818249894351
 30
0.0
 40
1.088318280106898
  1
l
 50
352.7556108558737
  7
Style 107
100
AcDbText
  0
TEXT
  5
12A
330
1F
100
AcDbEntity
  8
Layer 3
 62
     7
420
 16777215
100
AcDbText
 10
26.9595947198226
 20
-39.01019421767801
 30
0.0
 40
1.088318280106898
  1
a
 50
354.9256439174567
  7
Style 108
100
AcDbText
  0
TEXT
  5
12C
330
1F
100
AcDbEntity
  8
Layer 3
 62
     7
420
 16777215
100
AcDbText
 10
27.82810329165409
 20
-39.08391926106236
 30
0.0
 40
1.088318280106898
  1
r
 50
357.3695948855141
  7
Style 109
100
AcDbText
  0
TEXT
  5
12E
330
1F
100
AcDbEntity
  8
Layer 3
 62
     7
420
 16777215
100
AcDbText
 10
28.44098577848003
 20
-39.10975747720173
 30
0.0
 40
1.088318280106898
  1
a
 50
359.0710223285209
  7
Style 110
100
AcDbText
  0
TEXT
  5
130
330
1F
100
AcDbEntity
  8
Layer 3
 62
     7
420
 16777215
100
AcDbText
 10
29.31707356037906
 20
-39.11526962997813
 30
0.0
 40
1.088318280106898
  1
t
 50
2.132609387903533
  7
Style 111
100
AcDbText
  0
TEXT
  5
132
330
1F
100
AcDbEntity
  8
Layer 3
 62
     7
420
 16777215
100
AcDbText
 10
29.92272134668599
 20
-39.0914984711299
 30
0.0
 40
1.088318165718962
  1
i
 50
3.85461640432305
  7
Style 112
100
AcDbText
  0
TEXT
  5
134
330
1F
100
AcDbEntity
  8
Layer 3
 62
     7
420
 16777215
100
AcDbText
 10
30.38815374674324
 20
-39.06462672634495
 30
0.0
 40
1.088318280106898
  1
o
 50
6.16046308179679
  7
Style 113
100
AcDbText
  0
TEXT
  5
136
330
1F
100
AcDbEntity
  8
Layer 3
 62
     7
420
 16777215
100
AcDbText
 10
31.35312499216172
 20
-38.95920680449631
 30
0.0
 40
1.088318280106898
  1
n
 50
9.362775502929289
  7
Style 114
100
AcDbText
  0
TEXT
  5
138
330
1F
100
AcDbEntity
  8
Layer 3
 62
     7
420
 16777215
100
AcDbText
 10
32.30259330789657
 20
-38.79625378804399
 30
0.0
 40
1.088318280106898
  1
 
 50
11.52053215325293
  7
Style 115
100
AcDbText
  0
TEXT
  5
13A
330
1F
100
AcDbEntity
  8
Layer 3
 62
     7
420
 16777215
100
AcDbText
 10
32.64882540416419
 20
-38.73079697382425
 30
0.0
 40
1.088318280106898
  1
o
 50
13.66884179818079
  7
Style 116
100
AcDbText
  0
TEXT
  5
13C
330
1F
100
AcDbEntity
  8
Layer 3
 62
     7
420
 16777215
100
AcDbText
 10
33.57934569473016
 20
-38.49928655721546
 30
0.0
 40
1.088318280106898
  1
f
 50
16.21094173083751
 41
0.9999999403953552
  7
Style 117
100
AcDbText
  0
TEXT
  5
13E
330
1F
100
AcDbEntity
  8
Layer 3
 62
     7
420
 16777215
100
AcDbText
 10
34.12504881959374
 20
-38.33908961715134
 30
0.0
 40
1.088318280106898
  1
 
 50
17.72237038660754
  7
Style 118
100
AcDbText
  0
TEXT
  5
140
330
1F
100
AcDbEntity
  8
Layer 3
 62
     7
420
 16777215
100
AcDbText
 10
34.45887857211445
 20
-38.2405598862732
 30
0.0
 40
1.088318165718962
  1
H
 50
20.1545051274007
  7
Style 119
100
AcDbText
  0
TEXT
  5
142
330
1F
100
AcDbEntity
  8
Layer 3
 62
     7
420
 16777215
100
AcDbText
 10
35.53857149719175
 20
-37.83955077179012
 30
0.0
 40
1.088318280106898
  1
u
 50
23.67182032352548
  7
Style 120
100
AcDbText
  0
TEXT
  5
144
330
1F
100
AcDbEntity
  8
Layer 3
 62
     7
420
 16777215
100
AcDbText
 10
36.44463160981245
 20
-37.44853243421426
 30
0.0
 40
1.088318280106898
  1
m
 50
27.64173629745387
  7
Style 121
100
AcDbText
  0
TEXT
  5
146
330
1F
100
AcDbEntity
  8
Layer 3
 62
     7
420
 16777215
100
AcDbText
 10
37.69347872321552
 20
-36.78362900556104
 30
0.0
 40
1.088318165718962
  1
a
 50
31.41231320045544
  7
Style 122
100
AcDbText
  0
TEXT
  5
148
330
1F
100
AcDbEntity
  8
Layer 3
 62
     7
420
 16777215
100
AcDbText
 10
38.45208874906753
 20
-36.31991915324641
 30
0.0
 40
1.088318280106898
  1
n
 50
34.47197157124352
  7
Style 123
100
AcDbText
  0
TEXT
  5
14A
330
1F
100
AcDbEntity
  8
Layer 3
 62
     7
420
 16777215
100
AcDbText
 10
39.24411620112647
 20
-35.76870387560643
 30
0.0
 40
1.088318280106898
  1
 
 50
36.61867953681102
 41
0.9999999403953552
  7
Style 124
100
AcDbText
  0
TEXT
  5
14C
330
1F
100
AcDbEntity
  8
Layer 3
 62
     7
420
 16777215
100
AcDbText
 10
39.52351344498023
 20
-35.56785480881637
 30
0.0
 40
1.088318280106898
  1
R
 50
38.75987553971832
 41
0.9999999403953552
  7
Style 125
100
AcDbText
  0
TEXT
  5
14E
330
1F
100
AcDbEntity
  8
Layer 3
 62
     7
420
 16777215
100
AcDbText
 10
40.3021050246467
 20
-34.93430174907893
 30
0.0
 40
1.088318280106898
  1
i
 50
41.200226998083
  7
Style 126
100
AcDbText
  0
TEXT
  5
150
330
1F
100
AcDbEntity
  8
Layer 3
 62
     7
420
 16777215
100
AcDbText
 10
40.66108397420973
 20
-34.62631021269759
 30
0.0
 40
1.088318280106898
  1
g
 50
43.54725758181781
  7
Style 127
100
AcDbText
  0
TEXT
  5
152
330
1F
100
AcDbEntity
  8
Layer 3
 62
     7
420
 16777215
100
AcDbText
 10
41.36284992455512
 20
-33.95727266946207
 30
0.0
 40
1.088318280106898
  1
h
 50
46.70690650696029
  7
Style 128
100
AcDbText
  0
TEXT
  5
154
330
1F
100
AcDbEntity
  8
Layer 3
 62
     7
420
 16777215
100
AcDbText
 10
42.01982963359227
 20
-33.25378417137406
 30
0.0
 40
1.088318280106898
  1
t
 50
49.26942272881983
  7
Style 129
100
AcDbText
  0
TEXT
  5
156
330
1F
100
AcDbEntity
  8
Layer 3
 62
     7
420
 16777215
100
AcDbText
 10
42.42221678626944
 20
-32.78731824267123
 30
0.0
 40
1.088318280106898
  1
s
 50
51.44953373452327
  7
Style 130
100
AcDbText
  0
INSERT
  5
159
330
1F
100
AcDbEntity
  8
Layer 3
100
AcDbBlockReference
  2
block 7
 10
0.0
 20
0.0
 30
0.0
  0
INSERT
  5
1B4
330
1F
100
AcDbEntity
  8
Layer 3
100
AcDbBlockReference
  2
block 11
 10
0.0
 20
0.0
 30
0.0
  0
ENDSEC
  0
SECTION
  2
OBJECTS
  0
DICTIONARY
  5
C
330
0
100
AcDbDictionary
281
     1
  3
ACAD_GROUP
350
D
  3
ACAD_LAYOUT
350
1A
  3
ACAD_MLINESTYLE
350
17
  3
ACAD_PLOTSETTINGS
350
19
  3
ACAD_PLOTSTYLENAME
350
E
  3
ACAD_TABLESTYLE
350
232
  3
ACAD_VISUALSTYLE
350
2A
  0
DICTIONARY
  5
D
102
{ACAD_REACTORS
330
C
102
}
330
C
100
AcDbDictionary
281
     1
  0
DICTIONARY
  5
1A
102
{ACAD_REACTORS
330
C
102
}
330
C
100
AcDbDictionary
281
     1
  3
Layout1
350
1E
  3
Layout2
350
26
  3
Model
350
22
  0
DICTIONARY
  5
17
102
{ACAD_REACTORS
330
C
102
}
330
C
100
AcDbDictionary
281
     1
  3
Standard
350
18
  0
DICTIONARY
  5
19
102
{ACAD_REACTORS
330
C
102
}
330
C
100
AcDbDictionary
281
     1
  0
ACDBDICTIONARYWDFLT
  5
E
102
{ACAD_REACTORS
330
C
102
}
330
C
100
AcDbDictionary
281
     1
  3
Normal
350
F
100
AcDbDictionaryWithDefault
340
F
  0
DICTIONARY
  5
232
102
{ACAD_REACTORS
330
C
102
}
330
C
100
AcDbDictionary
281
     1
  0
DICTIONARY
  5
2A
102
{ACAD_REACTORS
330
C
102
}
330
C
100
AcDbDictionary
281
     1
  3
2dWireframe
350
2F
  3
3D Hidden
350
31
  3
3dWireframe
350
30
  3
Basic
350
32
  3
Brighten
350
36
  3
ColorChange
350
3A
  3
Conceptual
350
34
  3
Dim
350
35
  3
Facepattern
350
39
  3
Flat
350
2B
  3
FlatWithEdges
350
2C
  3
Gouraud
350
2D
  3
GouraudWithEdges
350
2E
  3
Linepattern
350
38
  3
Realistic
350
33
  3
Thicken
350
37
  0
LAYOUT
  5
1E
102
{ACAD_REACTORS
330
1A
102
}
330
1A
100
AcDbPlotSettings
  1

  2
none_device
  4

  6

 40
0.0
 41
0.0
 42
0.0
 43
0.0
 44
0.0
 45
0.0
 46
0.0
 47
0.0
 48
0.0
 49
0.0
140
0.0
141
0.0
142
1.0
143
1.0
 70
   688
 72
     0
 73
     0
 74
     5
  7

 75
    16
 76
     0
 77
     2
 78
   300
147
1.0
148
0.0
149
0.0
100
AcDbLayout
  1
Layout1
 70
     1
 71
     1
 10
0.0
 20
0.0
 11
12.0
 21
9.0
 12
0.0
 22
0.0
 32
0.0
 14
1.000000000000000E+20
 24
1.000000000000000E+20
 34
1.000000000000000E+20
 15
-1.000000000000000E+20
 25
-1.000000000000000E+20
 35
-1.000000000000000E+20
146
0.0
 13
0.0
 23
0.0
 33
0.0
 16
1.0
 26
0.0
 36
0.0
 17
0.0
 27
1.0
 37
0.0
 76
     0
330
1B
  0
LAYOUT
  5
26
102
{ACAD_REACTORS
330
1A
102
}
330
1A
100
AcDbPlotSettings
  1

  2
none_device
  4

  6

 40
0.0
 41
0.0
 42
0.0
 43
0.0
 44
0.0
 45
0.0
 46
0.0
 47
0.0
 48
0.0
 49
0.0
140
0.0
141
0.0
142
1.0
143
1.0
 70
   688
 72
     0
 73
     0
 74
     5
  7

 75
    16
 76
     0
 77
     2
 78
   300
147
1.0
148
0.0
149
0.0
100
AcDbLayout
  1
Layout2
 70
     1
 71
     2
 10
0.0
 20
0.0
 11
0.0
 21
0.0
 12
0.0
 22
0.0
 32
0.0
 14
0.0
 24
0.0
 34
0.0
 15
0.0
 25
0.0
 35
0.0
146
0.0
 13
0.0
 23
0.0
 33
0.0
 16
1.0
 26
0.0
 36
0.0
 17
0.0
 27
1.0
 37
0.0
 76
     0
330
23
  0
LAYOUT
  5
22
102
{ACAD_REACTORS
330
1A
102
}
330
1A
100
AcDbPlotSettings
  1

  2
none_device
  4

  6

 40
0.0
 41
0.0
 42
0.0
 43
0.0
 44
0.0
 45
0.0
 46
0.0
 47
0.0
 48
0.0
 49
0.0
140
0.0
141
0.0
142
1.0
143
1.0
 70
  1712
 72
     0
 73
     0
 74
     0
  7

 75
     0
 76
     0
 77
     2
 78
   300
147
1.0
148
0.0
149
0.0
100
AcDbLayout
  1
Model
 70
     1
 71
     0
 10
0.0
 20
0.0
 11
12.0
 21
9.0
 12
0.0
 22
0.0
 32
0.0
 14
1.000000000000000E+20
 24
1.000000000000000E+20
 34
1.000000000000000E+20
 15
-1.000000000000000E+20
 25
-1.000000000000000E+20
 35
-1.000000000000000E+20
146
0.0
 13
0.0
 23
0.0
 33
0.0
 16
1.0
 26
0.0
 36
0.0
 17
0.0
 27
1.0
 37
0.0
 76
     0
330
1F
331
29
  0
MLINESTYLE
  5
18
102
{ACAD_REACTORS
330
17
102
}
330
17
100
AcDbMlineStyle
  2
Standard
 70
     0
  3

 62
   256
 51
90.0
 52
90.0
 71
     2
 49
0.5
 62
   256
  6
BYLAYER
 49
-0.5
 62
   256
  6
BYLAYER
  0
ACDBPLACEHOLDER
  5
F
102
{ACAD_REACTORS
330
E
102
}
330
E
  0
VISUALSTYLE
  5
2F
102
{ACAD_REACTORS
330
2A
102
}
330
2A
100
AcDbVisualStyle
  2
2dWireframe
 70
     4
 71
     0
 72
     2
 73
     0
 90
        0
 40
-0.6
 41
-30.0
 62
     5
 63
     7
421
 16777215
 74
     1
 91
        4
 64
     7
 65
   257
 75
     1
175
     1
 42
1.0
 92
        0
 66
   257
 43
1.0
 76
     1
 77
     6
 78
     2
 67
     7
 79
     5
170
     0
171
     0
290
     0
174
     0
 93
        1
 44
0.0
173
     0
291
     0
 45
0.0
1001
ACAD
1000
AcDbSavedByObjectVersion
1070
     0
  0
VISUALSTYLE
  5
31
102
{ACAD_REACTORS
330
2A
102
}
330
2A
100
AcDbVisualStyle
  2
3D Hidden
 70
     6
 71
     1
 72
     2
 73
     2
 90
        0
 40
-0.6
 41
-30.0
 62
     5
 63
     7
421
 16777215
 74
     2
 91
        2
 64
     7
 65
   257
 75
     2
175
     1
 42
40.0
 92
        0
 66
   257
 43
1.0
 76
     1
 77
     6
 78
     2
 67
     7
 79
     3
170
     0
171
     0
290
     0
174
     0
 93
        1
 44
0.0
173
     0
291
     0
 45
0.0
1001
ACAD
1000
AcDbSavedByObjectVersion
1070
     0
  0
VISUALSTYLE
  5
30
102
{ACAD_REACTORS
330
2A
102
}
330
2A
100
AcDbVisualStyle
  2
3dWireframe
 70
     5
 71
     0
 72
     2
 73
     0
 90
        0
 40
-0.6
 41
-30.0
 62
     5
 63
     7
421
 16777215
 74
     1
 91
        4
 64
     7
 65
   257
 75
     1
175
     1
 42
1.0
 92
        0
 66
   257
 43
1.0
 76
     1
 77
     6
 78
     2
 67
     7
 79
     5
170
     0
171
     0
290
     0
174
     0
 93
        1
 44
0.0
173
     0
291
     0
 45
0.0
1001
ACAD
1000
AcDbSavedByObjectVersion
1070
     0
  0
VISUALSTYLE
  5
32
102
{ACAD_REACTORS
330
2A
102
}
330
2A
100
AcDbVisualStyle
  2
Basic
 70
     7
 71
     1
 72
     0
 73
     1
 90
        0
 40
-0.6
 41
-30.0
 62
     5
 63
     7
421
 16777215
 74
     0
 91
        4
 64
     7
 65
   257
 75
     1
175
     1
 42
1.0
 92
        8
 66
     7
 43
1.0
 76
     1
 77
     6
 78
     2
 67
     7
 79
     5
170
     0
171
     0
290
     0
174
     0
 93
        1
 44
0.0
173
     0
291
     1
 45
0.0
1001
ACAD
1000
AcDbSavedByObjectVersion
1070
     0
  0
VISUALSTYLE
  5
36
102
{ACAD_REACTORS
330
2A
102
}
330
2A
100
AcDbVisualStyle
  2
Brighten
 70
    12
 71
     2
 72
     2
 73
     0
 90
        0
 40
-0.6
 41
-30.0
 62
     5
 63
     7
421
 16777215
 74
     1
 91
        4
 64
     7
 65
   257
 75
     1
175
     1
 42
1.0
 92
        8
 66
     7
 43
1.0
 76
     1
 77
     6
 78
     2
 67
     7
 79
     5
170
     0
171
     0
290
     0
174
     0
 93
        1
 44
50.0
173
     0
291
     1
 45
0.0
1001
ACAD
1000
AcDbSavedByObjectVersion
1070
     0
  0
VISUALSTYLE
  5
3A
102
{ACAD_REACTORS
330
2A
102
}
330
2A
100
AcDbVisualStyle
  2
ColorChange
 70
    16
 71
     2
 72
     2
 73
     3
 90
        0
 40
-0.6
 41
-30.0
 62
     5
 63
     8
421
  8421504
 74
     1
 91
        4
 64
     7
 65
   257
 75
     1
175
     1
 42
1.0
 92
        8
 66
     8
424
  8421504
 43
1.0
 76
     1
 77
     6
 78
     2
 67
     7
 79
     5
170
     0
171
     0
290
     0
174
     0
 93
        1
 44
0.0
173
     0
291
     1
 45
0.0
1001
ACAD
1000
AcDbSavedByObjectVersion
1070
     0
  0
VISUALSTYLE
  5
34
102
{ACAD_REACTORS
330
2A
102
}
330
2A
100
AcDbVisualStyle
  2
Conceptual
 70
     9
 71
     3
 72
     2
 73
     0
 90
        0
 40
-0.6
 41
-30.0
 62
     5
 63
     7
421
 16777215
 74
     2
 91
        2
 64
     7
 65
   257
 75
     1
175
     1
 42
40.0
 92
        8
 66
     7
 43
1.0
 76
     1
 77
     6
 78
     2
 67
     7
 79
     3
170
     0
171
     0
290
     0
174
     0
 93
        1
 44
0.0
173
     0
291
     0
 45
0.0
1001
ACAD
1000
AcDbSavedByObjectVersion
1070
     0
  0
VISUALSTYLE
  5
35
102
{ACAD_REACTORS
330
2A
102
}
330
2A
100
AcDbVisualStyle
  2
Dim
 70
    11
 71
     2
 72
     2
 73
     0
 90
        0
 40
-0.6
 41
-30.0
 62
     5
 63
     7
421
 16777215
 74
     1
 91
        4
 64
     7
 65
   257
 75
     1
175
     1
 42
1.0
 92
        8
 66
     7
 43
1.0
 76
     1
 77
     6
 78
     2
 67
     7
 79
     5
170
     0
171
     0
290
     0
174
     0
 93
        1
 44
-50.0
173
     0
291
     1
 45
0.0
1001
ACAD
1000
AcDbSavedByObjectVersion
1070
     0
  0
VISUALSTYLE
  5
39
102
{ACAD_REACTORS
330
2A
102
}
330
2A
100
AcDbVisualStyle
  2
Facepattern
 70
    15
 71
     2
 72
     2
 73
     0
 90
        0
 40
-0.6
 41
-30.0
 62
     5
 63
     7
421
 16777215
 74
     1
 91
        4
 64
     7
 65
   257
 75
     1
175
     1
 42
1.0
 92
        8
 66
     7
 43
1.0
 76
     1
 77
     6
 78
     2
 67
     7
 79
     5
170
     0
171
     0
290
     0
174
     0
 93
        1
 44
0.0
173
     0
291
     1
 45
0.0
1001
ACAD
1000
AcDbSavedByObjectVersion
1070
     0
  0
VISUALSTYLE
  5
2B
102
{ACAD_REACTORS
330
2A
102
}
330
2A
100
AcDbVisualStyle
  2
Flat
 70
     0
 71
     2
 72
     1
 73
     1
 90
        2
 40
-0.6
 41
30.0
 62
     5
 63
     7
421
 16777215
 74
     0
 91
        4
 64
     7
 65
   257
 75
     1
175
     1
 42
1.0
 92
        8
 66
     7
 43
1.0
 76
     1
 77
     6
 78
     2
 67
     7
 79
     5
170
     0
171
     0
290
     0
174
     0
 93
       13
 44
0.0
173
     0
291
     1
 45
0.0
1001
ACAD
1000
AcDbSavedByObjectVersion
1070
     0
  0
VISUALSTYLE
  5
2C
102
{ACAD_REACTORS
330
2A
102
}
330
2A
100
AcDbVisualStyle
  2
FlatWithEdges
 70
     1
 71
     2
 72
     1
 73
     1
 90
        2
 40
-0.6
 41
30.0
 62
     5
 63
     7
421
 16777215
 74
     1
 91
        4
 64
     7
 65
   257
 75
     1
175
     1
 42
1.0
 92
        0
 66
   257
 43
1.0
 76
     1
 77
     6
 78
     2
 67
     7
 79
     5
170
     0
171
     0
290
     0
174
     0
 93
       13
 44
0.0
173
     0
291
     1
 45
0.0
1001
ACAD
1000
AcDbSavedByObjectVersion
1070
     0
  0
VISUALSTYLE
  5
2D
102
{ACAD_REACTORS
330
2A
102
}
330
2A
100
AcDbVisualStyle
  2
Gouraud
 70
     2
 71
     2
 72
     2
 73
     1
 90
        2
 40
-0.6
 41
30.0
 62
     5
 63
     7
421
 16777215
 74
     0
 91
        4
 64
     7
 65
   257
 75
     1
175
     1
 42
1.0
 92
        0
 66
     7
 43
1.0
 76
     1
 77
     6
 78
     2
 67
     7
 79
     5
170
     0
171
     0
290
     0
174
     0
 93
       13
 44
0.0
173
     0
291
     1
 45
0.0
1001
ACAD
1000
AcDbSavedByObjectVersion
1070
     0
  0
VISUALSTYLE
  5
2E
102
{ACAD_REACTORS
330
2A
102
}
330
2A
100
AcDbVisualStyle
  2
GouraudWithEdges
 70
     3
 71
     2
 72
     2
 73
     1
 90
        2
 40
-0.6
 41
30.0
 62
     5
 63
     7
421
 16777215
 74
     1
 91
        4
 64
     7
 65
   257
 75
     1
175
     1
 42
1.0
 92
        0
 66
   257
 43
1.0
 76
     1
 77
     6
 78
     2
 67
     7
 79
     5
170
     0
171
     0
290
     0
174
     0
 93
       13
 44
0.0
173
     0
291
     1
 45
0.0
1001
ACAD
1000
AcDbSavedByObjectVersion
1070
     0
  0
VISUALSTYLE
  5
38
102
{ACAD_REACTORS
330
2A
102
}
330
2A
100
AcDbVisualStyle
  2
Linepattern
 70
    14
 71
     2
 72
     2
 73
     0
 90
        0
 40
-0.6
 41
-30.0
 62
     5
 63
     7
421
 16777215
 74
     1
 91
        4
 64
     7
 65
   257
 75
     7
175
     7
 42
1.0
 92
        8
 66
     7
 43
1.0
 76
     1
 77
     6
 78
     2
 67
     7
 79
     5
170
     0
171
     0
290
     0
174
     0
 93
        1
 44
0.0
173
     0
291
     1
 45
0.0
1001
ACAD
1000
AcDbSavedByObjectVersion
1070
     0
  0
VISUALSTYLE
  5
33
102
{ACAD_REACTORS
330
2A
102
}
330
2A
100
AcDbVisualStyle
  2
Realistic
 70
     8
 71
     2
 72
     2
 73
     0
 90
        0
 40
-0.6
 41
-30.0
 62
     5
 63
     7
421
 16777215
 74
     1
 91
        0
 64
     7
 65
   257
 75
     1
175
     1
 42
1.0
 92
        8
 66
     8
424
  7895160
 43
1.0
 76
     1
 77
     6
 78
     2
 67
     7
 79
     5
170
     0
171
     0
290
     0
174
     0
 93
       13
 44
0.0
173
     0
291
     0
 45
0.0
1001
ACAD
1000
AcDbSavedByObjectVersion
1070
     0
  0
VISUALSTYLE
  5
37
102
{ACAD_REACTORS
330
2A
102
}
330
2A
100
AcDbVisualStyle
  2
Thicken
 70
    13
 71
     2
 72
     2
 73
     0
 90
        0
 40
-0.6
 41
-30.0
 62
     5
 63
     7
421
 16777215
 74
     1
 91
        4
 64
     7
 65
   257
 75
     1
175
     1
 42
1.0
 92
       12
 66
     7
 43
1.0
 76
     1
 77
     6
 78
     2
 67
     7
 79
     5
170
     0
171
     0
290
     0
174
     0
 93
        1
 44
0.0
173
     0
291
     1
 45
0.0
1001
ACAD
1000
AcDbSavedByObjectVersion
1070
     0
  0
ENDSEC
  0
EOF
