  0
SECTION
  2
HEADER
  9
$ACADVER
  1
AC1015
  9
$ACADMAINTVER
 70
     6
  9
$DWGCODEPAGE
  3
ANSI_932
  9
$INSBASE
 10
0.0
 20
0.0
 30
0.0
  9
$EXTMIN
 10
1.000000000000000E+20
 20
1.000000000000000E+20
 30
1.000000000000000E+20
  9
$EXTMAX
 10
-1.000000000000000E+20
 20
-1.000000000000000E+20
 30
-1.000000000000000E+20
  9
$LIMMIN
 10
0.0
 20
0.0
  9
$LIMMAX
 10
12.0
 20
9.0
  9
$ORTHOMODE
 70
     0
  9
$REGENMODE
 70
     1
  9
$FILLMODE
 70
     1
  9
$QTEXTMODE
 70
     0
  9
$MIRRTEXT
 70
     1
  9
$LTSCALE
 40
1.0
  9
$ATTMODE
 70
     1
  9
$TEXTSIZE
 40
0.2
  9
$TRACEWID
 40
0.05
  9
$TEXTSTYLE
  7
Standard
  9
$CLAYER
  8
0
  9
$CELTYPE
  6
ByLayer
  9
$CECOLOR
 62
   256
  9
$CELTSCALE
 40
1.0
  9
$DISPSILH
 70
     0
  9
$DIMSCALE
 40
1.0
  9
$DIMASZ
 40
0.18
  9
$DIMEXO
 40
0.0625
  9
$DIMDLI
 40
0.38
  9
$DIMRND
 40
0.0
  9
$DIMDLE
 40
0.0
  9
$DIMEXE
 40
0.18
  9
$DIMTP
 40
0.0
  9
$DIMTM
 40
0.0
  9
$DIMTXT
 40
0.18
  9
$DIMCEN
 40
0.09
  9
$DIMTSZ
 40
0.0
  9
$DIMTOL
 70
     0
  9
$DIMLIM
 70
     0
  9
$DIMTIH
 70
     1
  9
$DIMTOH
 70
     1
  9
$DIMSE1
 70
     0
  9
$DIMSE2
 70
     0
  9
$DIMTAD
 70
     0
  9
$DIMZIN
 70
     0
  9
$DIMBLK
  1

  9
$DIMASO
 70
     1
  9
$DIMSHO
 70
     1
  9
$DIMPOST
  1

  9
$DIMAPOST
  1

  9
$DIMALT
 70
     0
  9
$DIMALTD
 70
     2
  9
$DIMALTF
 40
25.4
  9
$DIMLFAC
 40
1.0
  9
$DIMTOFL
 70
     0
  9
$DIMTVP
 40
0.0
  9
$DIMTIX
 70
     0
  9
$DIMSOXD
 70
     0
  9
$DIMSAH
 70
     0
  9
$DIMBLK1
  1

  9
$DIMBLK2
  1

  9
$DIMSTYLE
  2
Standard
  9
$DIMCLRD
 70
     0
  9
$DIMCLRE
 70
     0
  9
$DIMCLRT
 70
     0
  9
$DIMTFAC
 40
1.0
  9
$DIMGAP
 40
0.09
  9
$DIMJUST
 70
     0
  9
$DIMSD1
 70
     0
  9
$DIMSD2
 70
     0
  9
$DIMTOLJ
 70
     1
  9
$DIMTZIN
 70
     0
  9
$DIMALTZ
 70
     0
  9
$DIMALTTZ
 70
     0
  9
$DIMUPT
 70
     0
  9
$DIMDEC
 70
     4
  9
$DIMTDEC
 70
     4
  9
$DIMALTU
 70
     2
  9
$DIMALTTD
 70
     2
  9
$DIMTXSTY
  7
Standard
  9
$DIMAUNIT
 70
     0
  9
$DIMADEC
 70
     0
  9
$DIMALTRND
 40
0.0
  9
$DIMAZIN
 70
     0
  9
$DIMDSEP
 70
    46
  9
$DIMATFIT
 70
     3
  9
$DIMFRAC
 70
     0
  9
$DIMLDRBLK
  1

  9
$DIMLUNIT
 70
     2
  9
$DIMLWD
 70
    -2
  9
$DIMLWE
 70
    -2
  9
$DIMTMOVE
 70
     0
  9
$LUNITS
 70
     2
  9
$LUPREC
 70
     4
  9
$SKETCHINC
 40
0.1
  9
$FILLETRAD
 40
0.5
  9
$AUNITS
 70
     0
  9
$AUPREC
 70
     0
  9
$MENU
  1
.
  9
$ELEVATION
 40
0.0
  9
$PELEVATION
 40
0.0
  9
$THICKNESS
 40
0.0
  9
$LIMCHECK
 70
     0
  9
$CHAMFERA
 40
0.5
  9
$CHAMFERB
 40
0.5
  9
$CHAMFERC
 40
1.0
  9
$CHAMFERD
 40
0.0
  9
$SKPOLY
 70
     0
  9
$TDCREATE
 40
2456732.531400463
  9
$TDUCREATE
 40
2456732.864733796
  9
$TDUPDATE
 40
2456732.531400475
  9
$TDUUPDATE
 40
2456732.864733808
  9
$TDINDWG
 40
0.0000000116
  9
$TDUSRTIMER
 40
0.0000000116
  9
$USRTIMER
 70
     1
  9
$ANGBASE
 50
0.0
  9
$ANGDIR
 70
     0
  9
$PDMODE
 70
     0
  9
$PDSIZE
 40
0.0
  9
$PLINEWID
 40
0.0
  9
$SPLFRAME
 70
     0
  9
$SPLINETYPE
 70
     6
  9
$SPLINESEGS
 70
     8
  9
$HANDSEED
  5
1AC
  9
$SURFTAB1
 70
     6
  9
$SURFTAB2
 70
     6
  9
$SURFTYPE
 70
     6
  9
$SURFU
 70
     6
  9
$SURFV
 70
     6
  9
$UCSBASE
  2

  9
$UCSNAME
  2

  9
$UCSORG
 10
0.0
 20
0.0
 30
0.0
  9
$UCSXDIR
 10
1.0
 20
0.0
 30
0.0
  9
$UCSYDIR
 10
0.0
 20
1.0
 30
0.0
  9
$UCSORTHOREF
  2

  9
$UCSORTHOVIEW
 70
     0
  9
$UCSORGTOP
 10
0.0
 20
0.0
 30
0.0
  9
$UCSORGBOTTOM
 10
0.0
 20
0.0
 30
0.0
  9
$UCSORGLEFT
 10
0.0
 20
0.0
 30
0.0
  9
$UCSORGRIGHT
 10
0.0
 20
0.0
 30
0.0
  9
$UCSORGFRONT
 10
0.0
 20
0.0
 30
0.0
  9
$UCSORGBACK
 10
0.0
 20
0.0
 30
0.0
  9
$PUCSBASE
  2

  9
$PUCSNAME
  2

  9
$PUCSORG
 10
0.0
 20
0.0
 30
0.0
  9
$PUCSXDIR
 10
1.0
 20
0.0
 30
0.0
  9
$PUCSYDIR
 10
0.0
 20
1.0
 30
0.0
  9
$PUCSORTHOREF
  2

  9
$PUCSORTHOVIEW
 70
     0
  9
$PUCSORGTOP
 10
0.0
 20
0.0
 30
0.0
  9
$PUCSORGBOTTOM
 10
0.0
 20
0.0
 30
0.0
  9
$PUCSORGLEFT
 10
0.0
 20
0.0
 30
0.0
  9
$PUCSORGRIGHT
 10
0.0
 20
0.0
 30
0.0
  9
$PUCSORGFRONT
 10
0.0
 20
0.0
 30
0.0
  9
$PUCSORGBACK
 10
0.0
 20
0.0
 30
0.0
  9
$USERI1
 70
     0
  9
$USERI2
 70
     0
  9
$USERI3
 70
     0
  9
$USERI4
 70
     0
  9
$USERI5
 70
     0
  9
$USERR1
 40
0.0
  9
$USERR2
 40
0.0
  9
$USERR3
 40
0.0
  9
$USERR4
 40
0.0
  9
$USERR5
 40
0.0
  9
$WORLDVIEW
 70
     1
  9
$SHADEDGE
 70
     3
  9
$SHADEDIF
 70
    70
  9
$TILEMODE
 70
     1
  9
$MAXACTVP
 70
    64
  9
$PINSBASE
 10
0.0
 20
0.0
 30
0.0
  9
$PLIMCHECK
 70
     0
  9
$PEXTMIN
 10
1.000000000000000E+20
 20
1.000000000000000E+20
 30
1.000000000000000E+20
  9
$PEXTMAX
 10
-1.000000000000000E+20
 20
-1.000000000000000E+20
 30
-1.000000000000000E+20
  9
$PLIMMIN
 10
0.0
 20
0.0
  9
$PLIMMAX
 10
12.0
 20
9.0
  9
$UNITMODE
 70
     0
  9
$VISRETAIN
 70
     1
  9
$PLINEGEN
 70
     0
  9
$PSLTSCALE
 70
     1
  9
$TREEDEPTH
 70
  3020
  9
$CMLSTYLE
  2
Standard
  9
$CMLJUST
 70
     0
  9
$CMLSCALE
 40
1.0
  9
$PROXYGRAPHICS
 70
     1
  9
$MEASUREMENT
 70
     0
  9
$CELWEIGHT
370
    -1
  9
$ENDCAPS
280
     0
  9
$JOINSTYLE
280
     0
  9
$LWDISPLAY
290
     1
  9
$INSUNITS
 70
     1
  9
$HYPERLINKBASE
  1

  9
$STYLESHEET
  1

  9
$XEDIT
290
     1
  9
$CEPSNTYPE
380
     0
  9
$PSTYLEMODE
290
     1
  9
$FINGERPRINTGUID
  2
{49609318-09B9-ADCA-F452-EDD6E566035D}
  9
$VERSIONGUID
  2
{FAEB1C32-E019-11D5-929B-00C0DF256EC4}
  9
$EXTNAMES
290
     1
  9
$PSVPSCALE
 40
0.0
  9
$OLESTARTUP
290
     0
  0
ENDSEC
  0
SECTION
  2
CLASSES
  0
CLASS
  1
ACDBDICTIONARYWDFLT
  2
AcDbDictionaryWithDefault
  3
ObjectDBX Classes
 90
        0
280
     0
281
     0
  0
CLASS
  1
VISUALSTYLE
  2
AcDbVisualStyle
  3
ObjectDBX Classes
 90
     4095
280
     0
281
     0
  0
CLASS
  1
ACDBPLACEHOLDER
  2
AcDbPlaceHolder
  3
ObjectDBX Classes
 90
        0
280
     0
281
     0
  0
CLASS
  1
LAYOUT
  2
AcDbLayout
  3
ObjectDBX Classes
 90
        0
280
     0
281
     0
  0
ENDSEC
  0
SECTION
  2
TABLES
  0
TABLE
  2
VPORT
  5
8
330
0
100
AcDbSymbolTable
 70
     1
  0
VPORT
  5
29
330
8
100
AcDbSymbolTableRecord
100
AcDbViewportTableRecord
  2
*Active
 70
     0
 10
0.0
 20
0.0
 11
1.0
 21
1.0
 12
0.0
 22
0.0
 13
0.0
 23
0.0
 14
0.5
 24
0.5
 15
0.5
 25
0.5
 16
0.0
 26
0.0
 36
1.0
 17
-25.02000596162695
 27
-20.21668158131736
 37
0.0
 40
45.0001817378819
 41
1.999984688526347
 42
50.0
 43
0.0
 44
0.0
 50
0.0
 51
0.0
 71
     0
 72
   100
 73
     1
 74
     3
 75
     0
 76
     0
 77
     0
 78
     0
281
     0
 65
     1
110
0.0
120
0.0
130
0.0
111
1.0
121
0.0
131
0.0
112
0.0
122
1.0
132
0.0
 79
     0
146
0.0
  0
ENDTAB
  0
TABLE
  2
LTYPE
  5
5
330
0
100
AcDbSymbolTable
 70
     1
  0
LTYPE
  5
14
330
5
100
AcDbSymbolTableRecord
100
AcDbLinetypeTableRecord
  2
ByBlock
 70
     0
  3

 72
    65
 73
     0
 40
0.0
  0
LTYPE
  5
15
330
5
100
AcDbSymbolTableRecord
100
AcDbLinetypeTableRecord
  2
ByLayer
 70
     0
  3

 72
    65
 73
     0
 40
0.0
  0
LTYPE
  5
16
330
5
100
AcDbSymbolTableRecord
100
AcDbLinetypeTableRecord
  2
Continuous
 70
     0
  3
Solid line
 72
    65
 73
     0
 40
0.0
  0
ENDTAB
  0
TABLE
  2
LAYER
  5
2
330
0
100
AcDbSymbolTable
 70
     2
  0
LAYER
  5
10
330
2
100
AcDbSymbolTableRecord
100
AcDbLayerTableRecord
  2
0
 70
     0
 62
     7
  6
Continuous
370
    -3
390
F
  0
LAYER
  5
3B
330
2
100
AcDbSymbolTableRecord
100
AcDbLayerTableRecord
  2
Layer 3
 70
     0
 62
     7
  6
Continuous
370
    -3
390
F
  0
ENDTAB
  0
TABLE
  2
STYLE
  5
3
330
0
100
AcDbSymbolTable
 70
     1
  0
STYLE
  5
11
330
3
100
AcDbSymbolTableRecord
100
AcDbTextStyleTableRecord
  2
Standard
 70
     0
 40
0.0
 41
1.0
 50
0.0
 71
     0
 42
0.2
  3
txt
  4

  0
ENDTAB
  0
TABLE
  2
VIEW
  5
6
330
0
100
AcDbSymbolTable
 70
     0
  0
ENDTAB
  0
TABLE
  2
UCS
  5
7
330
0
100
AcDbSymbolTable
 70
     0
  0
ENDTAB
  0
TABLE
  2
APPID
  5
9
330
0
100
AcDbSymbolTable
 70
     1
  0
APPID
  5
12
330
9
100
AcDbSymbolTableRecord
100
AcDbRegAppTableRecord
  2
ACAD
 70
     0
  0
ENDTAB
  0
TABLE
  2
DIMSTYLE
  5
A
330
0
100
AcDbSymbolTable
 70
     1
100
AcDbDimStyleTable
  0
DIMSTYLE
105
27
330
A
100
AcDbSymbolTableRecord
100
AcDbDimStyleTableRecord
  2
Standard
 70
     0
340
11
  0
ENDTAB
  0
TABLE
  2
BLOCK_RECORD
  5
1
330
0
100
AcDbSymbolTable
 70
    15
  0
BLOCK_RECORD
  5
1F
330
1
100
AcDbSymbolTableRecord
100
AcDbBlockTableRecord
  2
*Model_Space
340
22
  0
BLOCK_RECORD
  5
1B
330
1
100
AcDbSymbolTableRecord
100
AcDbBlockTableRecord
  2
*Paper_Space
340
1E
  0
BLOCK_RECORD
  5
23
330
1
100
AcDbSymbolTableRecord
100
AcDbBlockTableRecord
  2
*Paper_Space0
340
26
  0
BLOCK_RECORD
  5
3C
330
1
100
AcDbSymbolTableRecord
100
AcDbBlockTableRecord
  2
block 2
340
0
102
{BLKREFS
331
3D
102
}
  0
BLOCK_RECORD
  5
40
330
1
100
AcDbSymbolTableRecord
100
AcDbBlockTableRecord
  2
block 3
340
0
102
{BLKREFS
331
41
102
}
  0
BLOCK_RECORD
  5
44
330
1
100
AcDbSymbolTableRecord
100
AcDbBlockTableRecord
  2
block 4
340
0
102
{BLKREFS
331
45
102
}
  0
BLOCK_RECORD
  5
48
330
1
100
AcDbSymbolTableRecord
100
AcDbBlockTableRecord
  2
block 5
340
0
102
{BLKREFS
331
49
102
}
  0
BLOCK_RECORD
  5
4C
330
1
100
AcDbSymbolTableRecord
100
AcDbBlockTableRecord
  2
block 6
340
0
102
{BLKREFS
331
4D
102
}
  0
BLOCK_RECORD
  5
50
330
1
100
AcDbSymbolTableRecord
100
AcDbBlockTableRecord
  2
block 7
340
0
102
{BLKREFS
331
51
102
}
  0
BLOCK_RECORD
  5
54
330
1
100
AcDbSymbolTableRecord
100
AcDbBlockTableRecord
  2
block 8
340
0
102
{BLKREFS
331
55
102
}
  0
BLOCK_RECORD
  5
58
330
1
100
AcDbSymbolTableRecord
100
AcDbBlockTableRecord
  2
block 9
340
0
102
{BLKREFS
331
59
102
}
  0
BLOCK_RECORD
  5
80
330
1
100
AcDbSymbolTableRecord
100
AcDbBlockTableRecord
  2
block 10
340
0
102
{BLKREFS
331
81
102
}
  0
BLOCK_RECORD
  5
AD
330
1
100
AcDbSymbolTableRecord
100
AcDbBlockTableRecord
  2
block 11
340
0
102
{BLKREFS
331
AE
102
}
  0
BLOCK_RECORD
  5
E1
330
1
100
AcDbSymbolTableRecord
100
AcDbBlockTableRecord
  2
block 12
340
0
102
{BLKREFS
331
E2
102
}
  0
BLOCK_RECORD
  5
E5
330
1
100
AcDbSymbolTableRecord
100
AcDbBlockTableRecord
  2
block 13
340
0
102
{BLKREFS
331
E6
102
}
  0
BLOCK_RECORD
  5
E9
330
1
100
AcDbSymbolTableRecord
100
AcDbBlockTableRecord
  2
block 14
340
0
102
{BLKREFS
331
EA
102
}
  0
BLOCK_RECORD
  5
163
330
1
100
AcDbSymbolTableRecord
100
AcDbBlockTableRecord
  2
block 15
340
0
102
{BLKREFS
331
164
102
}
  0
ENDTAB
  0
ENDSEC
  0
SECTION
  2
BLOCKS
  0
BLOCK
  5
20
330
1F
100
AcDbEntity
  8
0
100
AcDbBlockBegin
  2
*Model_Space
 70
     0
 71
     0
 10
0.0
 20
0.0
 30
0.0
  3
*Model_Space
  1

  0
ENDBLK
  5
21
330
1F
100
AcDbEntity
  8
0
100
AcDbBlockEnd
  0
BLOCK
  5
1C
330
1B
100
AcDbEntity
 67
     1
  8
0
100
AcDbBlockBegin
  2
*Paper_Space
 70
     0
 71
     0
 10
0.0
 20
0.0
 30
0.0
  3
*Paper_Space
  1

  0
ENDBLK
  5
1D
330
1B
100
AcDbEntity
 67
     1
  8
0
100
AcDbBlockEnd
  0
BLOCK
  5
24
330
23
100
AcDbEntity
  8
0
100
AcDbBlockBegin
  2
*Paper_Space0
 70
     0
 71
     0
 10
0.0
 20
0.0
 30
0.0
  3
*Paper_Space0
  1

  0
ENDBLK
  5
25
330
23
100
AcDbEntity
  8
0
100
AcDbBlockEnd
  0
BLOCK
  5
3E
330
3C
100
AcDbEntity
  8
0
100
AcDbBlockBegin
  2
block 2
 70
     0
 71
     0
 10
0.0
 20
0.0
 30
0.0
  3
block 2
  1

  0
ENDBLK
  5
3F
330
3C
100
AcDbEntity
  8
0
100
AcDbBlockEnd
  0
BLOCK
  5
42
330
40
100
AcDbEntity
  8
0
100
AcDbBlockBegin
  2
block 3
 70
     0
 71
     0
 10
0.0
 20
0.0
 30
0.0
  3
block 3
  1

  0
ENDBLK
  5
43
330
40
100
AcDbEntity
  8
0
100
AcDbBlockEnd
  0
BLOCK
  5
46
330
44
100
AcDbEntity
  8
0
100
AcDbBlockBegin
  2
block 4
 70
     0
 71
     0
 10
0.0
 20
0.0
 30
0.0
  3
block 4
  1

  0
ENDBLK
  5
47
330
44
100
AcDbEntity
  8
0
100
AcDbBlockEnd
  0
BLOCK
  5
4A
330
48
100
AcDbEntity
  8
0
100
AcDbBlockBegin
  2
block 5
 70
     0
 71
     0
 10
0.0
 20
0.0
 30
0.0
  3
block 5
  1

  0
ENDBLK
  5
4B
330
48
100
AcDbEntity
  8
0
100
AcDbBlockEnd
  0
BLOCK
  5
4E
330
4C
100
AcDbEntity
  8
0
100
AcDbBlockBegin
  2
block 6
 70
     0
 71
     0
 10
0.0
 20
0.0
 30
0.0
  3
block 6
  1

  0
ENDBLK
  5
4F
330
4C
100
AcDbEntity
  8
0
100
AcDbBlockEnd
  0
BLOCK
  5
52
330
50
100
AcDbEntity
  8
0
100
AcDbBlockBegin
  2
block 7
 70
     0
 71
     0
 10
0.0
 20
0.0
 30
0.0
  3
block 7
  1

  0
INSERT
  5
55
330
50
100
AcDbEntity
  8
Layer 3
100
AcDbBlockReference
  2
block 8
 10
0.0
 20
0.0
 30
0.0
  0
ENDBLK
  5
53
330
50
100
AcDbEntity
  8
0
100
AcDbBlockEnd
  0
BLOCK
  5
56
330
54
100
AcDbEntity
  8
0
100
AcDbBlockBegin
  2
block 8
 70
     0
 71
     0
 10
0.0
 20
0.0
 30
0.0
  3
block 8
  1

  0
INSERT
  5
59
330
54
100
AcDbEntity
  8
Layer 3
100
AcDbBlockReference
  2
block 9
 10
0.0
 20
0.0
 30
0.0
  0
MTEXT
  5
67
330
54
100
AcDbEntity
  8
Layer 3
 62
     7
100
AcDbMText
 10
-59.20741100950371
 20
-33.51182182321927
 30
0.0
 40
1.199441355670311
 41
0.0
 71
     7
 72
     1
  1
\fUbuntu|b1|i0|c0|p34;\W1;I
 11
0.7607102250635432
 21
-0.6490916372006139
 31
0.0
 73
     1
 44
1.0
  0
MTEXT
  5
68
330
54
100
AcDbEntity
  8
Layer 3
 62
     7
100
AcDbMText
 10
-58.7564480104845
 20
-33.90973035176562
 30
0.0
 40
1.199442842713479
 41
0.0
 71
     7
 72
     1
  1
\fUbuntu|b1|i0|c0|p34;\W1;N
 11
0.796308303473403
 21
-0.6048909701915799
 31
0.0
 73
     1
 44
1.0
  0
MTEXT
  5
69
330
54
100
AcDbEntity
  8
Layer 3
 62
     7
100
AcDbMText
 10
-57.660218627078
 20
-34.72621798176984
 30
0.0
 40
1.199458056308971
 41
0.0
 71
     7
 72
     1
  1
\fUbuntu|b1|i0|c0|p34;\W1; 
 11
0.826910571995202
 21
-0.5623334472735619
 31
0.0
 73
     1
 44
1.0
  0
MTEXT
  5
6A
330
54
100
AcDbEntity
  8
Layer 3
 62
     7
100
AcDbMText
 10
-57.28435870963725
 20
-34.98322210496947
 30
0.0
 40
1.199449477213769
 41
0.0
 71
     7
 72
     1
  1
\fUbuntu|b1|i0|c0|p34;\W1;I
 11
0.8434562861380024
 21
-0.5371978158688735
 31
0.0
 73
     1
 44
1.0
  0
MTEXT
  5
6B
330
54
100
AcDbEntity
  8
Layer 3
 62
     7
100
AcDbMText
 10
-56.78964299795537
 20
-35.30947264742263
 30
0.0
 40
1.199441012506502
 41
0.0
 71
     7
 72
     1
  1
\fUbuntu|b1|i0|c0|p34;\W1;N
 11
0.8724670982816689
 21
-0.4886728582763368
 31
0.0
 73
     1
 44
1.0
  0
MTEXT
  5
6C
330
54
100
AcDbEntity
  8
Layer 3
 62
     7
100
AcDbMText
 10
-55.56939017707987
 20
-35.9833333243375
 30
0.0
 40
1.199434721170021
 41
0.0
 71
     7
 72
     1
  1
\fUbuntu|b1|i0|c0|p34;\W1;F
 11
0.9051108846061258
 21
-0.4251755949810813
 31
0.0
 73
     1
 44
1.0
  0
MTEXT
  5
6D
330
54
100
AcDbEntity
  8
Layer 3
 62
     7
100
AcDbMText
 10
-54.62061088044207
 20
-36.43532985200228
 30
0.0
 40
1.199438381583974
 41
0.0
 71
     7
 72
     1
  1
\fUbuntu|b1|i0|c0|p34;\W1;O
 11
0.9333404206491013
 21
-0.358992561458533
 31
0.0
 73
     1
 44
1.0
  0
MTEXT
  5
6E
330
54
100
AcDbEntity
  8
Layer 3
 62
     7
100
AcDbMText
 10
-53.26496580699626
 20
-36.95002711749861
 30
0.0
 40
1.199451193032809
 41
0.0
 71
     7
 72
     1
  1
\fUbuntu|b1|i0|c0|p34;\W1;R
 11
0.9584744690105259
 21
-0.2851783516590808
 31
0.0
 73
     1
 44
1.0
  0
MTEXT
  5
6F
330
54
100
AcDbEntity
  8
Layer 3
 62
     7
100
AcDbMText
 10
-52.08433158420114
 20
-37.30728351931901
 30
0.0
 40
1.199444329756647
 41
0.0
 71
     7
 72
     1
  1
\fUbuntu|b1|i0|c0|p34;\W1;M
 11
0.9788999853674201
 21
-0.2043399585192892
 31
0.0
 73
     1
 44
1.0
  0
MTEXT
  5
70
330
54
100
AcDbEntity
  8
Layer 3
 62
     7
100
AcDbMText
 10
-50.4675482729734
 20
-37.6352566095148
 30
0.0
 40
1.199441470058247
 41
0.0
 71
     7
 72
     1
  1
\fUbuntu|b1|i0|c0|p34;\W1;A
 11
0.9928825173805508
 21
-0.1190978869672346
 31
0.0
 73
     1
 44
1.0
  0
MTEXT
  5
71
330
54
100
AcDbEntity
  8
Layer 3
 62
     7
100
AcDbMText
 10
-49.3079291326383
 20
-37.77443846711889
 30
0.0
 40
1.199454395895018
 41
0.0
 71
     7
 72
     1
  1
\fUbuntu|b1|i0|c0|p34;\W1;T
 11
0.9983316905204119
 21
-0.0577393774010119
 31
0.0
 73
     1
 44
1.0
  0
MTEXT
  5
72
330
54
100
AcDbEntity
  8
Layer 3
 62
     7
100
AcDbMText
 10
-48.19757485774227
 20
-37.82955999488289
 30
0.0
 40
1.19943414923034
 41
0.0
 71
     7
 72
     1
  1
\fUbuntu|b1|i0|c0|p34;\W1;I
 11
0.9998684522810681
 21
-0.01621968350682076
 31
0.0
 73
     1
 44
1.0
  0
MTEXT
  5
73
330
54
100
AcDbEntity
  8
Layer 3
 62
     7
100
AcDbMText
 10
-47.58228080407665
 20
-37.84816351050324
 30
0.0
 40
1.199448104558537
 41
0.0
 71
     7
 72
     1
  1
\fUbuntu|b1|i0|c0|p34;\W1;O
 11
0.9987968279621371
 21
0.0490397436042768
 31
0.0
 73
     1
 44
1.0
  0
MTEXT
  5
74
330
54
100
AcDbEntity
  8
Layer 3
 62
     7
100
AcDbMText
 10
-46.1363742289173
 20
-37.77374944802184
 30
0.0
 40
1.199451536196618
 41
0.0
 71
     7
 72
     1
  1
\fUbuntu|b1|i0|c0|p34;\W1;N
 11
0.9915141025792608
 21
0.1299991707144444
 31
0.0
 73
     1
 44
1.0
  0
MTEXT
  5
75
330
54
100
AcDbEntity
  8
Layer 3
 62
     7
100
AcDbMText
 10
-44.78348523185969
 20
-37.58323566768752
 30
0.0
 40
1.199450506705193
 41
0.0
 71
     7
 72
     1
  1
\fUbuntu|b1|i0|c0|p34;\W1; 
 11
0.9832950181883655
 21
0.1820189748513653
 31
0.0
 73
     1
 44
1.0
  0
MTEXT
  5
76
330
54
100
AcDbEntity
  8
Layer 3
 62
     7
100
AcDbMText
 10
-44.30702852624963
 20
-37.51364473888548
 30
0.0
 40
1.199445473636008
 41
0.0
 71
     7
 72
     1
  1
\fUbuntu|b1|i0|c0|p34;\W1;W
 11
0.9696190904645158
 21
0.2446197445153706
 31
0.0
 73
     1
 44
1.0
  0
MTEXT
  5
77
330
54
100
AcDbEntity
  8
Layer 3
 62
     7
100
AcDbMText
 10
-42.63305662996674
 20
-37.07611761225875
 30
0.0
 40
1.199449591601705
 41
0.0
 71
     7
 72
     1
  1
\fUbuntu|b1|i0|c0|p34;\W1;E
 11
0.9459959072419193
 21
0.3241785672766447
 31
0.0
 73
     1
 44
1.0
  0
MTEXT
  5
78
330
54
100
AcDbEntity
  8
Layer 3
 62
     7
100
AcDbMText
 10
-41.59091524567866
 20
-36.70990396217669
 30
0.0
 40
1.199453366403594
 41
0.0
 71
     7
 72
     1
  1
\fUbuntu|b1|i0|c0|p34;\W1; 
 11
0.9302930549041778
 21
0.3668171642617783
 31
0.0
 73
     1
 44
1.0
  0
MTEXT
  5
79
330
54
100
AcDbEntity
  8
Layer 3
 62
     7
100
AcDbMText
 10
-41.17061359647818
 20
-36.55211858895225
 30
0.0
 40
1.199434034842404
 41
0.0
 71
     7
 72
     1
  1
\fUbuntu|b1|i0|c0|p34;\W1;T
 11
0.9127511418236437
 21
0.4085160377508265
 31
0.0
 73
     1
 44
1.0
  0
MTEXT
  5
7A
330
54
100
AcDbEntity
  8
Layer 3
 62
     7
100
AcDbMText
 10
-40.13398436496651
 20
-36.08737520799205
 30
0.0
 40
1.199437580868421
 41
0.0
 71
     7
 72
     1
  1
\fUbuntu|b1|i0|c0|p34;\W1;R
 11
0.8826693863384675
 21
0.4699944195635446
 31
0.0
 73
     1
 44
1.0
  0
MTEXT
  5
7B
330
54
100
AcDbEntity
  8
Layer 3
 62
     7
100
AcDbMText
 10
-39.06703829318463
 20
-35.51962347202287
 30
0.0
 40
1.199435293109701
 41
0.0
 71
     7
 72
     1
  1
\fUbuntu|b1|i0|c0|p34;\W1;U
 11
0.8466630272741684
 21
0.5321294187008839
 31
0.0
 73
     1
 44
1.0
  0
MTEXT
  5
7C
330
54
100
AcDbEntity
  8
Layer 3
 62
     7
100
AcDbMText
 10
-37.97149792887518
 20
-34.82440320309946
 30
0.0
 40
1.199443529041095
 41
0.0
 71
     7
 72
     1
  1
\fUbuntu|b1|i0|c0|p34;\W1;S
 11
0.8083874021358917
 21
0.5886508371420058
 31
0.0
 73
     1
 44
1.0
  0
MTEXT
  5
7D
330
54
100
AcDbEntity
  8
Layer 3
 62
     7
100
AcDbMText
 10
-37.13158364957128
 20
-34.21289875446761
 30
0.0
 40
1.199443071489351
 41
0.0
 71
     7
 72
     1
  1
\fUbuntu|b1|i0|c0|p34;\W1;T
 11
0.7707887856208339
 21
0.6370907690126739
 31
0.0
 73
     1
 44
1.0
  0
MTEXT
  5
7E
330
54
100
AcDbEntity
  8
Layer 3
 62
     7
100
AcDbMText
 10
-34.32555337683528
 20
-25.62324218109419
 30
0.0
 40
1.079499999730125
 41
0.0
 71
     7
 72
     1
  1
\fUbuntu|b1|i0|c0|p34;\W1;2011
 73
     1
 44
1.0
  0
MTEXT
  5
7F
330
54
100
AcDbEntity
  8
Layer 3
 62
     7
100
AcDbMText
 10
-35.25745170559536
 20
-27.52665743669473
 30
0.0
 40
1.079499999730125
 41
0.0
 71
     7
 72
     1
  1
\fUbuntu|b1|i0|c0|p34;\W1;2014
 73
     1
 44
1.0
  0
INSERT
  5
81
330
54
100
AcDbEntity
  8
Layer 3
100
AcDbBlockReference
  2
block 10
 10
0.0
 20
0.0
 30
0.0
  0
INSERT
  5
AE
330
54
100
AcDbEntity
  8
Layer 3
100
AcDbBlockReference
  2
block 11
 10
0.0
 20
0.0
 30
0.0
  0
POLYLINE
  5
DA
330
54
100
AcDbEntity
  8
Layer 3
370
     0
100
AcDb2dPolyline
 66
     1
 10
0.0
 20
0.0
 30
0.0
  0
VERTEX
  5
DB
330
DA
100
AcDbEntity
  8
Layer 3
370
     0
100
AcDbVertex
100
AcDb2dVertex
 10
-67.24964191027092
 20
-1.000111219368028
 30
0.0
  0
VERTEX
  5
DC
330
DA
100
AcDbEntity
  8
Layer 3
370
     0
100
AcDbVertex
100
AcDb2dVertex
 10
-27.75024413368744
 20
-1.000111219368028
 30
0.0
  0
VERTEX
  5
DD
330
DA
100
AcDbEntity
  8
Layer 3
370
     0
100
AcDbVertex
100
AcDb2dVertex
 10
-27.75024413368744
 20
-39.99997015059029
 30
0.0
  0
VERTEX
  5
DE
330
DA
100
AcDbEntity
  8
Layer 3
370
     0
100
AcDbVertex
100
AcDb2dVertex
 10
-67.24964191027092
 20
-39.99997015059029
 30
0.0
  0
VERTEX
  5
DF
330
DA
100
AcDbEntity
  8
Layer 3
370
     0
100
AcDbVertex
100
AcDb2dVertex
 10
-67.24964191027092
 20
-1.000111219368028
 30
0.0
  0
SEQEND
  5
E0
330
DA
100
AcDbEntity
  8
Layer 3
370
     0
  0
ENDBLK
  5
57
330
54
100
AcDbEntity
  8
0
100
AcDbBlockEnd
  0
BLOCK
  5
5A
330
58
100
AcDbEntity
  8
0
100
AcDbBlockBegin
  2
block 9
 70
     0
 71
     0
 10
0.0
 20
0.0
 30
0.0
  3
block 9
  1

  0
SPLINE
  5
5C
330
58
100
AcDbEntity
  8
Layer 3
370
     0
100
AcDbSpline
210
0.0
220
0.0
230
1.0
 70
    11
 71
     3
 72
    17
 73
    13
 74
     0
 42
0.0000000001
 43
0.0000000001
 40
0.0
 40
0.0
 40
0.0
 40
0.0
 40
1.0
 40
1.0
 40
1.0
 40
2.0
 40
2.0
 40
2.0
 40
3.0
 40
3.0
 40
3.0
 40
4.0
 40
4.0
 40
4.0
 40
4.0
 10
-47.75040146375684
 20
-39.8235812617455
 30
0.0
 10
-58.40504827098902
 20
-39.8235812617455
 30
0.0
 10
-67.07325302142614
 20
-31.15468749221133
 30
0.0
 10
-67.07325302142614
 20
-20.49935166588211
 30
0.0
 10
-67.07325302142614
 20
-9.84504936819846
 30
0.0
 10
-58.40504827098902
 20
-1.176500108212819
 30
0.0
 10
-47.75040146375684
 20
-1.176500108212819
 30
0.0
 10
-37.09541014697615
 20
-1.176500108212819
 30
0.0
 10
-28.42686088699051
 20
-9.84504936819846
 30
0.0
 10
-28.42686088699051
 20
-20.49935166588211
 30
0.0
 10
-28.42686088699051
 20
-31.15468749221133
 30
0.0
 10
-37.09541014697615
 20
-39.8235812617455
 30
0.0
 10
-47.75040146375684
 20
-39.8235812617455
 30
0.0
  0
SPLINE
  5
5D
330
58
100
AcDbEntity
  8
Layer 3
370
     0
100
AcDbSpline
210
0.0
220
0.0
230
1.0
 70
    11
 71
     3
 72
    17
 73
    13
 74
     0
 42
0.0000000001
 43
0.0000000001
 40
0.0
 40
0.0
 40
0.0
 40
0.0
 40
1.0
 40
1.0
 40
1.0
 40
2.0
 40
2.0
 40
2.0
 40
3.0
 40
3.0
 40
3.0
 40
4.0
 40
4.0
 40
4.0
 40
4.0
 10
-47.75040146375684
 20
-1.352888997057611
 30
0.0
 10
-37.19256183966019
 20
-1.352888997057611
 30
0.0
 10
-28.6032497758353
 20
-9.94185655133398
 30
0.0
 10
-28.6032497758353
 20
-20.49935166588211
 30
0.0
 10
-28.6032497758353
 20
-31.05753579952728
 30
0.0
 10
-37.19256183966019
 20
-39.6471923729007
 30
0.0
 10
-47.75040146375684
 20
-39.6471923729007
 30
0.0
 10
-58.30789657830497
 20
-39.6471923729007
 30
0.0
 10
-66.89686413258134
 20
-31.05753579952728
 30
0.0
 10
-66.89686413258134
 20
-20.49935166588211
 30
0.0
 10
-66.89686413258134
 20
-9.94185655133398
 30
0.0
 10
-58.30789657830497
 20
-1.352888997057611
 30
0.0
 10
-47.75040146375684
 20
-1.352888997057611
 30
0.0
  0
SPLINE
  5
5E
330
58
100
AcDbEntity
  8
Layer 3
370
     0
100
AcDbSpline
210
0.0
220
0.0
230
1.0
 70
    11
 71
     3
 72
    17
 73
    13
 74
     0
 42
0.0000000001
 43
0.0000000001
 40
0.0
 40
0.0
 40
0.0
 40
0.0
 40
1.0
 40
1.0
 40
1.0
 40
2.0
 40
2.0
 40
2.0
 40
3.0
 40
3.0
 40
3.0
 40
4.0
 40
4.0
 40
4.0
 40
4.0
 10
-47.75040146375684
 20
-1.000111219368028
 30
0.0
 10
-58.52011446019636
 20
-1.000111219368028
 30
0.0
 10
-67.24964191027092
 20
-9.729983178991116
 30
0.0
 10
-67.24964191027092
 20
-20.49935166588211
 30
0.0
 10
-67.24964191027092
 20
-31.26940917187015
 30
0.0
 10
-58.52011446019636
 20
-39.99997015059029
 30
0.0
 10
-47.75040146375684
 20
-39.99997015059029
 30
0.0
 10
-36.97999944822028
 20
-39.99997015059029
 30
0.0
 10
-28.25047199814572
 20
-31.26940917187015
 30
0.0
 10
-28.25047199814572
 20
-20.49935166588211
 30
0.0
 10
-28.25047199814572
 20
-9.729983178991116
 30
0.0
 10
-36.97999944822028
 20
-1.000111219368028
 30
0.0
 10
-47.75040146375684
 20
-1.000111219368028
 30
0.0
  0
HATCH
  5
5F
330
58
100
AcDbEntity
  8
Layer 3
 62
     7
100
AcDbHatch
 10
0.0
 20
0.0
 30
0.0
210
0.0
220
0.0
230
1.0
  2
SOLID
 70
     1
 71
     0
 91
        2
 92
        1
 93
        2
 72
     4
 94
        3
 73
     0
 74
     0
 95
       17
 96
       13
 40
0.0
 40
0.0
 40
0.0
 40
0.0
 40
0.3527777776895833
 40
0.3527777776895833
 40
0.3527777776895833
 40
0.7055555553791667
 40
0.7055555553791667
 40
0.7055555553791667
 40
1.05833333306875
 40
1.05833333306875
 40
1.05833333306875
 40
1.411111110758333
 40
1.411111110758333
 40
1.411111110758333
 40
1.411111110758333
 10
-47.75040146375684
 20
-1.352888997057611
 10
-37.19256183966019
 20
-1.352888997057611
 10
-28.6032497758353
 20
-9.94185655133398
 10
-28.6032497758353
 20
-20.49935166588211
 10
-28.6032497758353
 20
-31.05753579952728
 10
-37.19256183966019
 20
-39.6471923729007
 10
-47.75040146375684
 20
-39.6471923729007
 10
-58.30789657830497
 20
-39.6471923729007
 10
-66.89686413258134
 20
-31.05753579952728
 10
-66.89686413258134
 20
-20.49935166588211
 10
-66.89686413258134
 20
-9.94185655133398
 10
-58.30789657830497
 20
-1.352888997057611
 10
-47.75040146375684
 20
-1.352888997057611
 72
     1
 10
-47.75040146375684
 20
-1.352888997057611
 11
-47.75040146375684
 21
-1.352888997057611
 97
        0
 92
        1
 93
        2
 72
     4
 94
        3
 73
     0
 74
     0
 95
       17
 96
       13
 40
0.0
 40
0.0
 40
0.0
 40
0.0
 40
0.3527777776895833
 40
0.3527777776895833
 40
0.3527777776895833
 40
0.7055555553791667
 40
0.7055555553791667
 40
0.7055555553791667
 40
1.05833333306875
 40
1.05833333306875
 40
1.05833333306875
 40
1.411111110758333
 40
1.411111110758333
 40
1.411111110758333
 40
1.411111110758333
 10
-47.75040146375684
 20
-1.000111219368028
 10
-58.52011446019636
 20
-1.000111219368028
 10
-67.24964191027092
 20
-9.729983178991116
 10
-67.24964191027092
 20
-20.49935166588211
 10
-67.24964191027092
 20
-31.26940917187015
 10
-58.52011446019636
 20
-39.99997015059029
 10
-47.75040146375684
 20
-39.99997015059029
 10
-36.97999944822028
 20
-39.99997015059029
 10
-28.25047199814572
 20
-31.26940917187015
 10
-28.25047199814572
 20
-20.49935166588211
 10
-28.25047199814572
 20
-9.729983178991116
 10
-36.97999944822028
 20
-1.000111219368028
 10
-47.75040146375684
 20
-1.000111219368028
 72
     1
 10
-47.75040146375684
 20
-1.000111219368028
 11
-47.75040146375684
 21
-1.000111219368028
 97
        0
 75
     2
 76
     1
 98
        0
  0
POLYLINE
  5
60
330
58
100
AcDbEntity
  8
Layer 3
370
     0
100
AcDb2dPolyline
 66
     1
 10
0.0
 20
0.0
 30
0.0
  0
VERTEX
  5
61
330
60
100
AcDbEntity
  8
Layer 3
370
     0
100
AcDbVertex
100
AcDb2dVertex
 10
-67.7498697747292
 20
-0.4595757377323283
 30
0.0
  0
VERTEX
  5
62
330
60
100
AcDbEntity
  8
Layer 3
370
     0
100
AcDbVertex
100
AcDb2dVertex
 10
-27.75024413368744
 20
-0.4595757377323283
 30
0.0
  0
VERTEX
  5
63
330
60
100
AcDbEntity
  8
Layer 3
370
     0
100
AcDbVertex
100
AcDb2dVertex
 10
-27.75024413368744
 20
-40.45954588832262
 30
0.0
  0
VERTEX
  5
64
330
60
100
AcDbEntity
  8
Layer 3
370
     0
100
AcDbVertex
100
AcDb2dVertex
 10
-67.7498697747292
 20
-40.45954588832262
 30
0.0
  0
VERTEX
  5
65
330
60
100
AcDbEntity
  8
Layer 3
370
     0
100
AcDbVertex
100
AcDb2dVertex
 10
-67.7498697747292
 20
-0.4595757377323283
 30
0.0
  0
SEQEND
  5
66
330
60
100
AcDbEntity
  8
Layer 3
370
     0
  0
ENDBLK
  5
5B
330
58
100
AcDbEntity
  8
0
100
AcDbBlockEnd
  0
BLOCK
  5
82
330
80
100
AcDbEntity
  8
0
100
AcDbBlockBegin
  2
block 10
 70
     0
 71
     0
 10
0.0
 20
0.0
 30
0.0
  3
block 10
  1

  0
POLYLINE
  5
84
330
80
100
AcDbEntity
  8
Layer 3
370
     0
100
AcDb2dPolyline
 66
     1
 10
0.0
 20
0.0
 30
0.0
  0
VERTEX
  5
85
330
84
100
AcDbEntity
  8
Layer 3
370
     0
100
AcDbVertex
100
AcDb2dVertex
 10
-52.31377494351878
 20
-9.903960500996233
 30
0.0
  0
VERTEX
  5
86
330
84
100
AcDbEntity
  8
Layer 3
370
     0
100
AcDbVertex
100
AcDb2dVertex
 10
-53.67699922703214
 20
-11.52005479312693
 30
0.0
  0
VERTEX
  5
87
330
84
100
AcDbEntity
  8
Layer 3
370
     0
100
AcDbVertex
100
AcDb2dVertex
 10
-56.67113171326277
 20
-27.40607909471098
 30
0.0
  0
VERTEX
  5
88
330
84
100
AcDbEntity
  8
Layer 3
370
     0
100
AcDbVertex
100
AcDb2dVertex
 10
-55.91665580199306
 20
-29.02217338684168
 30
0.0
  0
SEQEND
  5
89
330
84
100
AcDbEntity
  8
Layer 3
370
     0
  0
POLYLINE
  5
8A
330
80
100
AcDbEntity
  8
Layer 3
 62
     7
370
    15
100
AcDb2dPolyline
 66
     1
 10
0.0
 20
0.0
 30
0.0
  0
VERTEX
  5
8B
330
8A
100
AcDbEntity
  8
Layer 3
 62
     7
370
    15
100
AcDbVertex
100
AcDb2dVertex
 10
-52.31377494351878
 20
-9.903960500996233
 30
0.0
  0
VERTEX
  5
8C
330
8A
100
AcDbEntity
  8
Layer 3
 62
     7
370
    15
100
AcDbVertex
100
AcDb2dVertex
 10
-53.67699922703214
 20
-11.52005479312693
 30
0.0
  0
VERTEX
  5
8D
330
8A
100
AcDbEntity
  8
Layer 3
 62
     7
370
    15
100
AcDbVertex
100
AcDb2dVertex
 10
-56.67113171326277
 20
-27.40607909471098
 30
0.0
  0
VERTEX
  5
8E
330
8A
100
AcDbEntity
  8
Layer 3
 62
     7
370
    15
100
AcDbVertex
100
AcDb2dVertex
 10
-55.91665580199306
 20
-29.02217338684168
 30
0.0
  0
SEQEND
  5
8F
330
8A
100
AcDbEntity
  8
Layer 3
370
    15
  0
POLYLINE
  5
90
330
80
100
AcDbEntity
  8
Layer 3
370
     0
100
AcDb2dPolyline
 66
     1
 10
0.0
 20
0.0
 30
0.0
  0
VERTEX
  5
91
330
90
100
AcDbEntity
  8
Layer 3
370
     0
100
AcDbVertex
100
AcDb2dVertex
 10
-44.45620116076095
 20
-21.87084417856007
 30
0.0
  0
VERTEX
  5
92
330
90
100
AcDbEntity
  8
Layer 3
370
     0
100
AcDbVertex
100
AcDb2dVertex
 10
-49.70756020892728
 20
-9.903960500996233
 30
0.0
  0
VERTEX
  5
93
330
90
100
AcDbEntity
  8
Layer 3
370
     0
100
AcDbVertex
100
AcDb2dVertex
 10
-49.70756020892728
 20
-9.903960500996233
 30
0.0
  0
VERTEX
  5
94
330
90
100
AcDbEntity
  8
Layer 3
370
     0
100
AcDbVertex
100
AcDb2dVertex
 10
-52.31343043397025
 20
-9.903960500996233
 30
0.0
  0
VERTEX
  5
95
330
90
100
AcDbEntity
  8
Layer 3
370
     0
100
AcDbVertex
100
AcDb2dVertex
 10
-55.91665580199306
 20
-29.02217338684168
 30
0.0
  0
VERTEX
  5
96
330
90
100
AcDbEntity
  8
Layer 3
370
     0
100
AcDbVertex
100
AcDb2dVertex
 10
-53.31044106740156
 20
-29.02217338684168
 30
0.0
  0
VERTEX
  5
97
330
90
100
AcDbEntity
  8
Layer 3
370
     0
100
AcDbVertex
100
AcDb2dVertex
 10
-50.38831107681265
 20
-13.51683213637774
 30
0.0
  0
VERTEX
  5
98
330
90
100
AcDbEntity
  8
Layer 3
370
     0
100
AcDbVertex
100
AcDb2dVertex
 10
-45.13729653819485
 20
-25.48302679484452
 30
0.0
  0
VERTEX
  5
99
330
90
100
AcDbEntity
  8
Layer 3
370
     0
100
AcDbVertex
100
AcDb2dVertex
 10
-44.45620116076095
 20
-21.87084417856007
 30
0.0
  0
SEQEND
  5
9A
330
90
100
AcDbEntity
  8
Layer 3
370
     0
  0
POLYLINE
  5
9B
330
80
100
AcDbEntity
  8
Layer 3
 62
     7
370
    15
100
AcDb2dPolyline
 66
     1
 10
0.0
 20
0.0
 30
0.0
  0
VERTEX
  5
9C
330
9B
100
AcDbEntity
  8
Layer 3
 62
     7
370
    15
100
AcDbVertex
100
AcDb2dVertex
 10
-44.45620116076095
 20
-21.87084417856007
 30
0.0
  0
VERTEX
  5
9D
330
9B
100
AcDbEntity
  8
Layer 3
 62
     7
370
    15
100
AcDbVertex
100
AcDb2dVertex
 10
-49.70756020892728
 20
-9.903960500996233
 30
0.0
  0
VERTEX
  5
9E
330
9B
100
AcDbEntity
  8
Layer 3
 62
     7
370
    15
100
AcDbVertex
100
AcDb2dVertex
 10
-49.70756020892728
 20
-9.903960500996233
 30
0.0
  0
VERTEX
  5
9F
330
9B
100
AcDbEntity
  8
Layer 3
 62
     7
370
    15
100
AcDbVertex
100
AcDb2dVertex
 10
-52.31343043397025
 20
-9.903960500996233
 30
0.0
  0
VERTEX
  5
A0
330
9B
100
AcDbEntity
  8
Layer 3
 62
     7
370
    15
100
AcDbVertex
100
AcDb2dVertex
 10
-55.91665580199306
 20
-29.02217338684168
 30
0.0
  0
VERTEX
  5
A1
330
9B
100
AcDbEntity
  8
Layer 3
 62
     7
370
    15
100
AcDbVertex
100
AcDb2dVertex
 10
-53.31044106740156
 20
-29.02217338684168
 30
0.0
  0
VERTEX
  5
A2
330
9B
100
AcDbEntity
  8
Layer 3
 62
     7
370
    15
100
AcDbVertex
100
AcDb2dVertex
 10
-50.38831107681265
 20
-13.51683213637774
 30
0.0
  0
VERTEX
  5
A3
330
9B
100
AcDbEntity
  8
Layer 3
 62
     7
370
    15
100
AcDbVertex
100
AcDb2dVertex
 10
-45.13729653819485
 20
-25.48302679484452
 30
0.0
  0
VERTEX
  5
A4
330
9B
100
AcDbEntity
  8
Layer 3
 62
     7
370
    15
100
AcDbVertex
100
AcDb2dVertex
 10
-44.45620116076095
 20
-21.87084417856007
 30
0.0
  0
SEQEND
  5
A5
330
9B
100
AcDbEntity
  8
Layer 3
370
    15
  0
POLYLINE
  5
A6
330
80
100
AcDbEntity
  8
Layer 3
370
     0
100
AcDb2dPolyline
 66
     1
 10
0.0
 20
0.0
 30
0.0
  0
VERTEX
  5
A7
330
A6
100
AcDbEntity
  8
Layer 3
370
     0
100
AcDbVertex
100
AcDb2dVertex
 10
-56.85268824533544
 20
-29.08900823925553
 30
0.0
  0
VERTEX
  5
A8
330
A6
100
AcDbEntity
  8
Layer 3
370
     0
100
AcDbVertex
100
AcDb2dVertex
 10
-38.6667181977986
 20
-29.08900823925553
 30
0.0
  0
VERTEX
  5
A9
330
A6
100
AcDbEntity
  8
Layer 3
370
     0
100
AcDbVertex
100
AcDb2dVertex
 10
-38.6667181977986
 20
-9.83678113903386
 30
0.0
  0
VERTEX
  5
AA
330
A6
100
AcDbEntity
  8
Layer 3
370
     0
100
AcDbVertex
100
AcDb2dVertex
 10
-56.85268824533544
 20
-9.83678113903386
 30
0.0
  0
VERTEX
  5
AB
330
A6
100
AcDbEntity
  8
Layer 3
370
     0
100
AcDbVertex
100
AcDb2dVertex
 10
-56.85268824533544
 20
-29.08900823925553
 30
0.0
  0
SEQEND
  5
AC
330
A6
100
AcDbEntity
  8
Layer 3
370
     0
  0
ENDBLK
  5
83
330
80
100
AcDbEntity
  8
0
100
AcDbBlockEnd
  0
BLOCK
  5
AF
330
AD
100
AcDbEntity
  8
0
100
AcDbBlockBegin
  2
block 11
 70
     0
 71
     0
 10
0.0
 20
0.0
 30
0.0
  3
block 11
  1

  0
POLYLINE
  5
B1
330
AD
100
AcDbEntity
  8
Layer 3
370
     0
100
AcDb2dPolyline
 66
     1
 10
0.0
 20
0.0
 30
0.0
  0
VERTEX
  5
B2
330
B1
100
AcDbEntity
  8
Layer 3
370
     0
100
AcDbVertex
100
AcDb2dVertex
 10
-43.20528699006674
 20
-29.08556314377028
 30
0.0
  0
VERTEX
  5
B3
330
B1
100
AcDbEntity
  8
Layer 3
370
     0
100
AcDbVertex
100
AcDb2dVertex
 10
-41.84171819700485
 20
-27.46946885163958
 30
0.0
  0
VERTEX
  5
B4
330
B1
100
AcDbEntity
  8
Layer 3
370
     0
100
AcDbVertex
100
AcDb2dVertex
 10
-38.84793022032274
 20
-11.58344455005553
 30
0.0
  0
VERTEX
  5
B5
330
B1
100
AcDbEntity
  8
Layer 3
370
     0
100
AcDbVertex
100
AcDb2dVertex
 10
-39.60240613159245
 20
-9.96735025792483
 30
0.0
  0
SEQEND
  5
B6
330
B1
100
AcDbEntity
  8
Layer 3
370
     0
  0
POLYLINE
  5
B7
330
AD
100
AcDbEntity
  8
Layer 3
 62
     7
370
    15
100
AcDb2dPolyline
 66
     1
 10
0.0
 20
0.0
 30
0.0
  0
VERTEX
  5
B8
330
B7
100
AcDbEntity
  8
Layer 3
 62
     7
370
    15
100
AcDbVertex
100
AcDb2dVertex
 10
-43.20528699006674
 20
-29.08556314377028
 30
0.0
  0
VERTEX
  5
B9
330
B7
100
AcDbEntity
  8
Layer 3
 62
     7
370
    15
100
AcDbVertex
100
AcDb2dVertex
 10
-41.84171819700485
 20
-27.46946885163958
 30
0.0
  0
VERTEX
  5
BA
330
B7
100
AcDbEntity
  8
Layer 3
 62
     7
370
    15
100
AcDbVertex
100
AcDb2dVertex
 10
-38.84793022032274
 20
-11.58344455005553
 30
0.0
  0
VERTEX
  5
BB
330
B7
100
AcDbEntity
  8
Layer 3
 62
     7
370
    15
100
AcDbVertex
100
AcDb2dVertex
 10
-39.60240613159245
 20
-9.96735025792483
 30
0.0
  0
SEQEND
  5
BC
330
B7
100
AcDbEntity
  8
Layer 3
370
    15
  0
POLYLINE
  5
BD
330
AD
100
AcDbEntity
  8
Layer 3
370
     0
100
AcDb2dPolyline
 66
     1
 10
0.0
 20
0.0
 30
0.0
  0
VERTEX
  5
BE
330
BD
100
AcDbEntity
  8
Layer 3
370
     0
100
AcDbVertex
100
AcDb2dVertex
 10
-51.06251626327604
 20
-17.11867946620644
 30
0.0
  0
VERTEX
  5
BF
330
BD
100
AcDbEntity
  8
Layer 3
370
     0
100
AcDbVertex
100
AcDb2dVertex
 10
-45.81150172465824
 20
-29.08556314377028
 30
0.0
  0
VERTEX
  5
C0
330
BD
100
AcDbEntity
  8
Layer 3
370
     0
100
AcDbVertex
100
AcDb2dVertex
 10
-45.81150172465824
 20
-29.08556314377028
 30
0.0
  0
VERTEX
  5
C1
330
BD
100
AcDbEntity
  8
Layer 3
370
     0
100
AcDbVertex
100
AcDb2dVertex
 10
-43.20528699006674
 20
-29.08556314377028
 30
0.0
  0
VERTEX
  5
C2
330
BD
100
AcDbEntity
  8
Layer 3
370
     0
100
AcDbVertex
100
AcDb2dVertex
 10
-39.60240613159245
 20
-9.96735025792483
 30
0.0
  0
VERTEX
  5
C3
330
BD
100
AcDbEntity
  8
Layer 3
370
     0
100
AcDbVertex
100
AcDb2dVertex
 10
-42.20827635663543
 20
-9.96735025792483
 30
0.0
  0
VERTEX
  5
C4
330
BD
100
AcDbEntity
  8
Layer 3
370
     0
100
AcDbVertex
100
AcDb2dVertex
 10
-45.13075085677287
 20
-25.4730360179373
 30
0.0
  0
VERTEX
  5
C5
330
BD
100
AcDbEntity
  8
Layer 3
370
     0
100
AcDbVertex
100
AcDb2dVertex
 10
-50.38176539539067
 20
-13.50649684992199
 30
0.0
  0
VERTEX
  5
C6
330
BD
100
AcDbEntity
  8
Layer 3
370
     0
100
AcDbVertex
100
AcDb2dVertex
 10
-51.06251626327604
 20
-17.11867946620644
 30
0.0
  0
SEQEND
  5
C7
330
BD
100
AcDbEntity
  8
Layer 3
370
     0
  0
POLYLINE
  5
C8
330
AD
100
AcDbEntity
  8
Layer 3
 62
     7
370
    15
100
AcDb2dPolyline
 66
     1
 10
0.0
 20
0.0
 30
0.0
  0
VERTEX
  5
C9
330
C8
100
AcDbEntity
  8
Layer 3
 62
     7
370
    15
100
AcDbVertex
100
AcDb2dVertex
 10
-51.06251626327604
 20
-17.11867946620644
 30
0.0
  0
VERTEX
  5
CA
330
C8
100
AcDbEntity
  8
Layer 3
 62
     7
370
    15
100
AcDbVertex
100
AcDb2dVertex
 10
-45.81150172465824
 20
-29.08556314377028
 30
0.0
  0
VERTEX
  5
CB
330
C8
100
AcDbEntity
  8
Layer 3
 62
     7
370
    15
100
AcDbVertex
100
AcDb2dVertex
 10
-45.81150172465824
 20
-29.08556314377028
 30
0.0
  0
VERTEX
  5
CC
330
C8
100
AcDbEntity
  8
Layer 3
 62
     7
370
    15
100
AcDbVertex
100
AcDb2dVertex
 10
-43.20528699006674
 20
-29.08556314377028
 30
0.0
  0
VERTEX
  5
CD
330
C8
100
AcDbEntity
  8
Layer 3
 62
     7
370
    15
100
AcDbVertex
100
AcDb2dVertex
 10
-39.60240613159245
 20
-9.96735025792483
 30
0.0
  0
VERTEX
  5
CE
330
C8
100
AcDbEntity
  8
Layer 3
 62
     7
370
    15
100
AcDbVertex
100
AcDb2dVertex
 10
-42.20827635663543
 20
-9.96735025792483
 30
0.0
  0
VERTEX
  5
CF
330
C8
100
AcDbEntity
  8
Layer 3
 62
     7
370
    15
100
AcDbVertex
100
AcDb2dVertex
 10
-45.13075085677287
 20
-25.4730360179373
 30
0.0
  0
VERTEX
  5
D0
330
C8
100
AcDbEntity
  8
Layer 3
 62
     7
370
    15
100
AcDbVertex
100
AcDb2dVertex
 10
-50.38176539539067
 20
-13.50649684992199
 30
0.0
  0
VERTEX
  5
D1
330
C8
100
AcDbEntity
  8
Layer 3
 62
     7
370
    15
100
AcDbVertex
100
AcDb2dVertex
 10
-51.06251626327604
 20
-17.11867946620644
 30
0.0
  0
SEQEND
  5
D2
330
C8
100
AcDbEntity
  8
Layer 3
370
    15
  0
POLYLINE
  5
D3
330
AD
100
AcDbEntity
  8
Layer 3
370
     0
100
AcDb2dPolyline
 66
     1
 10
0.0
 20
0.0
 30
0.0
  0
VERTEX
  5
D4
330
D3
100
AcDbEntity
  8
Layer 3
370
     0
100
AcDbVertex
100
AcDb2dVertex
 10
-56.85234373578692
 20
-29.15274250573265
 30
0.0
  0
VERTEX
  5
D5
330
D3
100
AcDbEntity
  8
Layer 3
370
     0
100
AcDbVertex
100
AcDb2dVertex
 10
-38.66706270734713
 20
-29.15274250573265
 30
0.0
  0
VERTEX
  5
D6
330
D3
100
AcDbEntity
  8
Layer 3
370
     0
100
AcDbVertex
100
AcDb2dVertex
 10
-38.66706270734713
 20
-9.900515405510983
 30
0.0
  0
VERTEX
  5
D7
330
D3
100
AcDbEntity
  8
Layer 3
370
     0
100
AcDbVertex
100
AcDb2dVertex
 10
-56.85234373578692
 20
-9.900515405510983
 30
0.0
  0
VERTEX
  5
D8
330
D3
100
AcDbEntity
  8
Layer 3
370
     0
100
AcDbVertex
100
AcDb2dVertex
 10
-56.85234373578692
 20
-29.15274250573265
 30
0.0
  0
SEQEND
  5
D9
330
D3
100
AcDbEntity
  8
Layer 3
370
     0
  0
ENDBLK
  5
B0
330
AD
100
AcDbEntity
  8
0
100
AcDbBlockEnd
  0
BLOCK
  5
E3
330
E1
100
AcDbEntity
  8
0
100
AcDbBlockBegin
  2
block 12
 70
     0
 71
     0
 10
0.0
 20
0.0
 30
0.0
  3
block 12
  1

  0
INSERT
  5
E6
330
E1
100
AcDbEntity
  8
Layer 3
100
AcDbBlockReference
  2
block 13
 10
0.0
 20
0.0
 30
0.0
  0
ENDBLK
  5
E4
330
E1
100
AcDbEntity
  8
0
100
AcDbBlockEnd
  0
BLOCK
  5
E7
330
E5
100
AcDbEntity
  8
0
100
AcDbBlockBegin
  2
block 13
 70
     0
 71
     0
 10
0.0
 20
0.0
 30
0.0
  3
block 13
  1

  0
INSERT
  5
EA
330
E5
100
AcDbEntity
  8
Layer 3
100
AcDbBlockReference
  2
block 14
 10
0.0
 20
0.0
 30
0.0
  0
MTEXT
  5
F8
330
E5
100
AcDbEntity
  8
Layer 3
 62
     7
100
AcDbMText
 10
-17.65025769958049
 20
-26.65952690305734
 30
0.0
 40
1.210519598499301
 41
0.0
 71
     7
 72
     1
  1
\fUbuntu|b1|i0|c0|p34;\W1;T
 11
-0.3315189138498268
 21
0.9434485729279742
 31
0.0
 73
     1
 44
1.0
  0
MTEXT
  5
F9
330
E5
100
AcDbEntity
  8
Layer 3
 62
     7
100
AcDbMText
 10
-18.00785861094943
 20
-25.65597058820406
 30
0.0
 40
1.210499351834623
 41
0.0
 71
     7
 72
     1
  1
\fUbuntu|b1|i0|c0|p34;\W1;H
 11
-0.2627334047220394
 21
0.9648684667057811
 31
0.0
 73
     1
 44
1.0
  0
MTEXT
  5
FA
330
E5
100
AcDbEntity
  8
Layer 3
 62
     7
100
AcDbMText
 10
-18.34409993030981
 20
-24.40367837931575
 30
0.0
 40
1.210501525205408
 41
0.0
 71
     7
 72
     1
  1
\fUbuntu|b1|i0|c0|p34;\W1;E
 11
-0.1920062209983563
 21
0.9813937085074116
 31
0.0
 73
     1
 44
1.0
  0
MTEXT
  5
FB
330
E5
100
AcDbEntity
  8
Layer 3
 62
     7
100
AcDbMText
 10
-18.54081488251758
 20
-23.36567110960997
 30
0.0
 40
1.210515823697412
 41
0.0
 71
     7
 72
     1
  1
\fUbuntu|b1|i0|c0|p34;\W1; 
 11
-0.1479741526976214
 21
0.9889912285422056
 31
0.0
 73
     1
 44
1.0
  0
MTEXT
  5
FC
330
E5
100
AcDbEntity
  8
Layer 3
 62
     7
100
AcDbMText
 10
-18.6128173781593
 20
-22.95053710363737
 30
0.0
 40
1.210506215110785
 41
0.0
 71
     7
 72
     1
  1
\fUbuntu|b1|i0|c0|p34;\W1;R
 11
-0.09944288113843834
 21
0.995043272119804
 31
0.0
 73
     1
 44
1.0
  0
MTEXT
  5
FD
330
E5
100
AcDbEntity
  8
Layer 3
 62
     7
100
AcDbMText
 10
-18.72133788594467
 20
-21.78230522458915
 30
0.0
 40
1.210500152550175
 41
0.0
 71
     7
 72
     1
  1
\fUbuntu|b1|i0|c0|p34;\W1;I
 11
-0.0474813644630095
 21
0.9988721239621871
 31
0.0
 73
     1
 44
1.0
  0
MTEXT
  5
FE
330
E5
100
AcDbEntity
  8
Layer 3
 62
     7
100
AcDbMText
 10
-18.76371256041324
 20
-21.2410807238564
 30
0.0
 40
1.210494661929246
 41
0.0
 71
     7
 72
     1
  1
\fUbuntu|b1|i0|c0|p34;\W1;G
 11
0.01621039832802171
 21
0.9998686028604193
 31
0.0
 73
     1
 44
1.0
  0
MTEXT
  5
FF
330
E5
100
AcDbEntity
  8
Layer 3
 62
     7
100
AcDbMText
 10
-18.75199923576339
 20
-20.00945908787958
 30
0.0
 40
1.21051502298186
 41
0.0
 71
     7
 72
     1
  1
\fUbuntu|b1|i0|c0|p34;\W1;H
 11
0.08140862759005132
 21
0.9966808091630461
 31
0.0
 73
     1
 44
1.0
  0
MTEXT
  5
100
330
E5
100
AcDbEntity
  8
Layer 3
 62
     7
100
AcDbMText
 10
-18.6445122566236
 20
-18.72926160556074
 30
0.0
 40
1.210505643171105
 41
0.0
 71
     7
 72
     1
  1
\fUbuntu|b1|i0|c0|p34;\W1;T
 11
0.1526096630834973
 21
0.9882865428273024
 31
0.0
 73
     1
 44
1.0
  0
MTEXT
  5
101
330
E5
100
AcDbEntity
  8
Layer 3
 62
     7
100
AcDbMText
 10
-18.470879444167
 20
-17.65473632371132
 30
0.0
 40
1.210507930929825
 41
0.0
 71
     7
 72
     1
  1
\fUbuntu|b1|i0|c0|p34;\W1; 
 11
0.1982116780272438
 21
0.9801592374168721
 31
0.0
 73
     1
 44
1.0
  0
MTEXT
  5
102
330
E5
100
AcDbEntity
  8
Layer 3
 62
     7
100
AcDbMText
 10
-18.39784341987971
 20
-17.25544975697086
 30
0.0
 40
1.210497292851774
 41
0.0
 71
     7
 72
     1
  1
\fUbuntu|b1|i0|c0|p34;\W1;T
 11
0.2423816525123361
 21
0.970180980294599
 31
0.0
 73
     1
 44
1.0
  0
MTEXT
  5
103
330
E5
100
AcDbEntity
  8
Layer 3
 62
     7
100
AcDbMText
 10
-18.15289713087844
 20
-16.24155815566183
 30
0.0
 40
1.210511705731715
 41
0.0
 71
     7
 72
     1
  1
\fUbuntu|b1|i0|c0|p34;\W1;O
 11
0.3132476393846095
 21
0.9496714781544034
 31
0.0
 73
     1
 44
1.0
  0
MTEXT
  5
104
330
E5
100
AcDbEntity
  8
Layer 3
 62
     7
100
AcDbMText
 10
-17.70469020824744
 20
-14.9241536421023
 30
0.0
 40
1.210493632437821
 41
0.0
 71
     7
 72
     1
  1
\fUbuntu|b1|i0|c0|p34;\W1; 
 11
0.3654242026519831
 21
0.9308410992839553
 31
0.0
 73
     1
 44
1.0
  0
MTEXT
  5
105
330
E5
100
AcDbEntity
  8
Layer 3
 62
     7
100
AcDbMText
 10
-17.5648193315463
 20
-14.54243706233661
 30
0.0
 40
1.210503355412384
 41
0.0
 71
     7
 72
     1
  1
\fUbuntu|b1|i0|c0|p34;\W1;R
 11
0.4098933456849415
 21
0.912133457978165
 31
0.0
 73
     1
 44
1.0
  0
MTEXT
  5
106
330
E5
100
AcDbEntity
  8
Layer 3
 62
     7
100
AcDbMText
 10
-17.08285047315984
 20
-13.47342393326359
 30
0.0
 40
1.210498207955263
 41
0.0
 71
     7
 72
     1
  1
\fUbuntu|b1|i0|c0|p34;\W1;E
 11
0.4713677524404959
 21
0.8819367562128224
 31
0.0
 73
     1
 44
1.0
  0
MTEXT
  5
107
330
E5
100
AcDbEntity
  8
Layer 3
 62
     7
100
AcDbMText
 10
-16.58916829012354
 20
-12.54565971908581
 30
0.0
 40
1.210509074809186
 41
0.0
 71
     7
 72
     1
  1
\fUbuntu|b1|i0|c0|p34;\W1;C
 11
0.5289119924602582
 21
0.8486766782654745
 31
0.0
 73
     1
 44
1.0
  0
MTEXT
  5
108
330
E5
100
AcDbEntity
  8
Layer 3
 62
     7
100
AcDbMText
 10
-15.9886881470445
 20
-11.58241102140995
 30
0.0
 40
1.210504270515872
 41
0.0
 71
     7
 72
     1
  1
\fUbuntu|b1|i0|c0|p34;\W1;E
 11
0.5844017890492015
 21
0.8114644471300592
 31
0.0
 73
     1
 44
1.0
  0
MTEXT
  5
109
330
E5
100
AcDbEntity
  8
Layer 3
 62
     7
100
AcDbMText
 10
-15.35823567324378
 20
-10.71700303551519
 30
0.0
 40
1.210507702153953
 41
0.0
 71
     7
 72
     1
  1
\fUbuntu|b1|i0|c0|p34;\W1;I
 11
0.6237666584173712
 21
0.7816106165136363
 31
0.0
 73
     1
 44
1.0
  0
MTEXT
  5
10A
330
E5
100
AcDbEntity
  8
Layer 3
 62
     7
100
AcDbMText
 10
-15.02302788252897
 20
-10.28188747572814
 30
0.0
 40
1.210500266938111
 41
0.0
 71
     7
 72
     1
  1
\fUbuntu|b1|i0|c0|p34;\W1;V
 11
0.6659319149235163
 21
0.7460125231430761
 31
0.0
 73
     1
 44
1.0
  0
MTEXT
  5
10B
330
E5
100
AcDbEntity
  8
Layer 3
 62
     7
100
AcDbMText
 10
-14.18311360322506
 20
-9.344821503740183
 30
0.0
 40
1.210499466222559
 41
0.0
 71
     7
 72
     1
  1
\fUbuntu|b1|i0|c0|p34;\W1;E
 11
0.7165061434613926
 21
0.6975807812591186
 31
0.0
 73
     1
 44
1.0
  0
MTEXT
  5
10C
330
E5
100
AcDbEntity
  8
Layer 3
 62
     7
100
AcDbMText
 10
-13.40762260949532
 20
-8.599647350280645
 30
0.0
 40
1.210519369723429
 41
0.0
 71
     7
 72
     1
  1
\fUbuntu|b1|i0|c0|p34;\W1; 
 11
0.7474782767853351
 21
0.6642862528564218
 31
0.0
 73
     1
 44
1.0
  0
MTEXT
  5
10D
330
E5
100
AcDbEntity
  8
Layer 3
 62
     7
100
AcDbMText
 10
-13.10858832137563
 20
-8.319216577781308
 30
0.0
 40
1.210504956843489
 41
0.0
 71
     7
 72
     1
  1
\fUbuntu|b1|i0|c0|p34;\W1;&
 11
0.7797694595129776
 21
0.6260667616243804
 31
0.0
 73
     1
 44
1.0
  0
MTEXT
  5
10E
330
E5
100
AcDbEntity
  8
Layer 3
 62
     7
100
AcDbMText
 10
-12.1360378658896
 20
-7.551993813216169
 30
0.0
 40
1.210507015826337
 41
0.0
 71
     7
 72
     1
  1
\fUbuntu|b1|i0|c0|p34;\W1; 
 11
0.8101280272597206
 21
0.5862529995217709
 31
0.0
 73
     1
 44
1.0
  0
MTEXT
  5
10F
330
E5
100
AcDbEntity
  8
Layer 3
 62
     7
100
AcDbMText
 10
-11.80220811336889
 20
-7.308425562409005
 30
0.0
 40
1.210502669084768
 41
0.0
 71
     7
 72
     1
  1
\fUbuntu|b1|i0|c0|p34;\W1;I
 11
0.8269268299585397
 21
0.5623095392172538
 31
0.0
 73
     1
 44
1.0
  0
MTEXT
  5
110
330
E5
100
AcDbEntity
  8
Layer 3
 62
     7
100
AcDbMText
 10
-11.36123589125691
 20
-6.98803168228077
 30
0.0
 40
1.210510333076482
 41
0.0
 71
     7
 72
     1
  1
\fUbuntu|b1|i0|c0|p34;\W1;M
 11
0.8615713313981065
 21
0.5076365244078623
 31
0.0
 73
     1
 44
1.0
  0
MTEXT
  5
111
330
E5
100
AcDbEntity
  8
Layer 3
 62
     7
100
AcDbMText
 10
-9.999389645937653
 20
-6.194970701576257
 30
0.0
 40
1.210509646748866
 41
0.0
 71
     7
 72
     1
  1
\fUbuntu|b1|i0|c0|p34;\W1;P
 11
0.9005323736928179
 21
0.4347889648222216
 31
0.0
 73
     1
 44
1.0
  0
MTEXT
  5
112
330
E5
100
AcDbEntity
  8
Layer 3
 62
     7
100
AcDbMText
 10
-9.087472870992022
 20
-5.747108288493779
 30
0.0
 40
1.210504270515872
 41
0.0
 71
     7
 72
     1
  1
\fUbuntu|b1|i0|c0|p34;\W1;A
 11
0.9274412254152337
 21
0.3739689471069621
 31
0.0
 73
     1
 44
1.0
  0
MTEXT
  5
113
330
E5
100
AcDbEntity
  8
Layer 3
 62
     7
100
AcDbMText
 10
-7.914073348715926
 20
-5.275130207014551
 30
0.0
 40
1.210505757559041
 41
0.0
 71
     7
 72
     1
  1
\fUbuntu|b1|i0|c0|p34;\W1;R
 11
0.9527874826445608
 21
0.3036379635616087
 31
0.0
 73
     1
 44
1.0
  0
MTEXT
  5
114
330
E5
100
AcDbEntity
  8
Layer 3
 62
     7
100
AcDbMText
 10
-6.821978079891728
 20
-4.927864582101368
 30
0.0
 40
1.2105011820416
 41
0.0
 71
     7
 72
     1
  1
\fUbuntu|b1|i0|c0|p34;\W1;T
 11
0.9711091687355365
 21
0.2386356687458421
 31
0.0
 73
     1
 44
1.0
  0
MTEXT
  5
115
330
E5
100
AcDbEntity
  8
Layer 3
 62
     7
100
AcDbMText
 10
-5.767778861405278
 20
-4.676372611678129
 30
0.0
 40
1.210513764714563
 41
0.0
 71
     7
 72
     1
  1
\fUbuntu|b1|i0|c0|p34;\W1; 
 11
0.9810857649280785
 21
0.1935735567051632
 31
0.0
 73
     1
 44
1.0
  0
MTEXT
  5
116
330
E5
100
AcDbEntity
  8
Layer 3
 62
     7
100
AcDbMText
 10
-5.356778970014973
 20
-4.593690320032133
 30
0.0
 40
1.21051010430061
 41
0.0
 71
     7
 72
     1
  1
\fUbuntu|b1|i0|c0|p34;\W1;I
 11
0.9864196024917248
 21
0.1642448410759609
 31
0.0
 73
     1
 44
1.0
  0
MTEXT
  5
117
330
E5
100
AcDbEntity
  8
Layer 3
 62
     7
100
AcDbMText
 10
-4.828645832126172
 20
-4.494127060508413
 30
0.0
 40
1.210501639593344
 41
0.0
 71
     7
 72
     1
  1
\fUbuntu|b1|i0|c0|p34;\W1;N
 11
0.9941355719379331
 21
0.1081409478765501
 31
0.0
 73
     1
 44
1.0
  0
MTEXT
  5
118
330
E5
100
AcDbEntity
  8
Layer 3
 62
     7
100
AcDbMText
 10
-3.49918348436826
 20
-4.35494520290432
 30
0.0
 40
1.210501525205408
 41
0.0
 71
     7
 72
     1
  1
\fUbuntu|b1|i0|c0|p34;\W1;F
 11
0.9993079777182877
 21
0.03719631256705731
 31
0.0
 73
     1
 44
1.0
  0
MTEXT
  5
119
330
E5
100
AcDbEntity
  8
Layer 3
 62
     7
100
AcDbMText
 10
-2.515953232877956
 20
-4.310158961596072
 30
0.0
 40
1.2105011820416
 41
0.0
 71
     7
 72
     1
  1
\fUbuntu|b1|i0|c0|p34;\W1;O
 11
0.9994469790829562
 21
-0.03325260894956766
 31
0.0
 73
     1
 44
1.0
  0
MTEXT
  5
11A
330
E5
100
AcDbEntity
  8
Layer 3
 62
     7
100
AcDbMText
 10
-1.128268771419322
 20
-4.360457355680719
 30
0.0
 40
1.210495920196542
 41
0.0
 71
     7
 72
     1
  1
\fUbuntu|b1|i0|c0|p34;\W1;R
 11
0.993882754112374
 21
-0.1104403507691017
 31
0.0
 73
     1
 44
1.0
  0
MTEXT
  5
11B
330
E5
100
AcDbEntity
  8
Layer 3
 62
     7
100
AcDbMText
 10
0.0261827256878988
 20
-4.478624130824788
 30
0.0
 40
1.210497979179391
 41
0.0
 71
     7
 72
     1
  1
\fUbuntu|b1|i0|c0|p34;\W1;M
 11
0.9812344047708448
 21
-0.1928186787995549
 31
0.0
 73
     1
 44
1.0
  0
MTEXT
  5
11C
330
E5
100
AcDbEntity
  8
Layer 3
 62
     7
100
AcDbMText
 10
1.574753146307701
 20
-4.789027234045799
 30
0.0
 40
1.210493518049885
 41
0.0
 71
     7
 72
     1
  1
\fUbuntu|b1|i0|c0|p34;\W1;A
 11
0.960686391848674
 21
-0.2776358343528011
 31
0.0
 73
     1
 44
1.0
  0
MTEXT
  5
11D
330
E5
100
AcDbEntity
  8
Layer 3
 62
     7
100
AcDbMText
 10
2.64548882312335
 20
-5.096329751330084
 30
0.0
 40
1.210502783472704
 41
0.0
 71
     7
 72
     1
  1
\fUbuntu|b1|i0|c0|p34;\W1;T
 11
0.9414029913238326
 21
-0.3372838684647396
 31
0.0
 73
     1
 44
1.0
  0
MTEXT
  5
11E
330
E5
100
AcDbEntity
  8
Layer 3
 62
     7
100
AcDbMText
 10
3.658346895786802
 20
-5.465643987348867
 30
0.0
 40
1.210516624412964
 41
0.0
 71
     7
 72
     1
  1
\fUbuntu|b1|i0|c0|p34;\W1;I
 11
0.9233763812783721
 21
-0.3838958953899591
 31
0.0
 73
     1
 44
1.0
  0
MTEXT
  5
11F
330
E5
100
AcDbEntity
  8
Layer 3
 62
     7
100
AcDbMText
 10
4.171666123089028
 20
-5.665459525493358
 30
0.0
 40
1.210508731645378
 41
0.0
 71
     7
 72
     1
  1
\fUbuntu|b1|i0|c0|p34;\W1;O
 11
0.8988805170861063
 21
-0.4381938110049183
 31
0.0
 73
     1
 44
1.0
  0
MTEXT
  5
120
330
E5
100
AcDbEntity
  8
Layer 3
 62
     7
100
AcDbMText
 10
5.41258951687602
 20
-6.270418292703229
 30
0.0
 40
1.210499008670815
 41
0.0
 71
     7
 72
     1
  1
\fUbuntu|b1|i0|c0|p34;\W1;N
 11
0.8596533430769648
 21
-0.5108778031355427
 31
0.0
 73
     1
 44
1.0
  0
MTEXT
  5
121
330
E5
100
AcDbEntity
  8
Layer 3
 62
     7
100
AcDbMText
 10
6.554638670236341
 20
-6.962537975689921
 30
0.0
 40
1.210506787050465
 41
0.0
 71
     7
 72
     1
  1
\fUbuntu|b1|i0|c0|p34;\W1; 
 11
0.8311345706218514
 21
-0.5560713313211092
 31
0.0
 73
     1
 44
1.0
  0
MTEXT
  5
122
330
E5
100
AcDbEntity
  8
Layer 3
 62
     7
100
AcDbMText
 10
6.901904295149524
 20
-7.186813691779686
 30
0.0
 40
1.21050175398128
 41
0.0
 71
     7
 72
     1
  1
\fMyriad Pro|b1|i0|c0|p34;\W1;R
 11
0.8057392432278543
 21
-0.592270438163686
 31
0.0
 73
     1
 44
1.0
  0
MTEXT
  5
123
330
E5
100
AcDbEntity
  8
Layer 3
 62
     7
100
AcDbMText
 10
7.736995440774085
 20
-7.801763235896781
 30
0.0
 40
1.21051010430061
 41
0.0
 71
     7
 72
     1
  1
\fMyriad Pro|b1|i0|c0|p34;\W1;E
 11
0.7688967454872584
 21
-0.6393729700097606
 31
0.0
 73
     1
 44
1.0
  0
MTEXT
  5
124
330
E5
100
AcDbEntity
  8
Layer 3
 62
     7
100
AcDbMText
 10
8.4611545117736
 20
-8.39810926439353
 30
0.0
 40
1.210505414395233
 41
0.0
 71
     7
 72
     1
  1
\fMyriad Pro|b1|i0|c0|p34;\W1;G
 11
0.7258463257965817
 21
-0.6878568974195161
 31
0.0
 73
     1
 44
1.0
  0
MTEXT
  5
125
330
E5
100
AcDbEntity
  8
Layer 3
 62
     7
100
AcDbMText
 10
9.32518445947426
 20
-9.217008461237414
 30
0.0
 40
1.210508502869506
 41
0.0
 71
     7
 72
     1
  1
\fMyriad Pro|b1|i0|c0|p34;\W1;A
 11
0.6753504824390009
 21
-0.7374969327864414
 31
0.0
 73
     1
 44
1.0
  0
MTEXT
  5
126
330
E5
100
AcDbEntity
  8
Layer 3
 62
     7
100
AcDbMText
 10
10.10101996275252
 20
-10.0662244983515
 30
0.0
 40
1.210506901438401
 41
0.0
 71
     7
 72
     1
  1
\fMyriad Pro|b1|i0|c0|p34;\W1;R
 11
0.6249462410994525
 21
-0.780667788329751
 31
0.0
 73
     1
 44
1.0
  0
MTEXT
  5
127
330
E5
100
AcDbEntity
  8
Layer 3
 62
     7
100
AcDbMText
 10
10.74800889488244
 20
-10.86720919867209
 30
0.0
 40
1.210508159705698
 41
0.0
 71
     7
 72
     1
  1
\fMyriad Pro|b1|i0|c0|p34;\W1;D
 11
0.5703326062174761
 21
-0.8214138532342764
 31
0.0
 73
     1
 44
1.0
  0
MTEXT
  5
128
330
E5
100
AcDbEntity
  8
Layer 3
 62
     7
100
AcDbMText
 10
11.44322916380586
 20
-11.87662217585029
 30
0.0
 40
1.210502554696832
 41
0.0
 71
     7
 72
     1
  1
\fMyriad Pro|b1|i0|c0|p34;\W1;L
 11
0.5160336359575335
 21
-0.8565683198440437
 31
0.0
 73
     1
 44
1.0
  0
MTEXT
  5
129
330
E5
100
AcDbEntity
  8
Layer 3
 62
     7
100
AcDbMText
 10
11.90590548747491
 20
-12.6435004308669
 30
0.0
 40
1.210500038162239
 41
0.0
 71
     7
 72
     1
  1
\fMyriad Pro|b1|i0|c0|p34;\W1;E
 11
0.4673441343120833
 21
-0.8840754832728308
 31
0.0
 73
     1
 44
1.0
  0
MTEXT
  5
12A
330
E5
100
AcDbEntity
  8
Layer 3
 62
     7
100
AcDbMText
 10
12.33964300906787
 20
-13.46205511816227
 30
0.0
 40
1.210500152550175
 41
0.0
 71
     7
 72
     1
  1
\fMyriad Pro|b1|i0|c0|p34;\W1;S
 11
0.4161367267249076
 21
-0.9093020535942276
 31
0.0
 73
     1
 44
1.0
  0
MTEXT
  5
12B
330
E5
100
AcDbEntity
  8
Layer 3
 62
     7
100
AcDbMText
 10
12.73513997077455
 20
-14.32401800857177
 30
0.0
 40
1.210492374170525
 41
0.0
 71
     7
 72
     1
  1
\fMyriad Pro|b1|i0|c0|p34;\W1;S
 11
0.3625140853487347
 21
-0.9319782926247641
 31
0.0
 73
     1
 44
1.0
  0
MTEXT
  5
12C
330
E5
100
AcDbEntity
  8
Layer 3
 62
     7
100
AcDbMText
 10
13.07413736652313
 20
-15.21423068196033
 30
0.0
 40
1.210511362567906
 41
0.0
 71
     7
 72
     1
  1
\fMyriad Pro|b1|i0|c0|p34;\W1; 
 11
0.324941879583786
 21
-0.9457339873836386
 31
0.0
 73
     1
 44
1.0
  0
MTEXT
  5
12D
330
E5
100
AcDbEntity
  8
Layer 3
 62
     7
100
AcDbMText
 10
13.19884982308918
 20
-15.53875867667087
 30
0.0
 40
1.210506901438401
 41
0.0
 71
     7
 72
     1
  1
\fMyriad Pro|b1|i0|c0|p34;\W1;O
 11
0.2776593763366764
 21
-0.9606795879648573
 31
0.0
 73
     1
 44
1.0
  0
MTEXT
  5
12E
330
E5
100
AcDbEntity
  8
Layer 3
 62
     7
100
AcDbMText
 10
13.54335937161416
 20
-16.74970973973618
 30
0.0
 40
1.210500495713983
 41
0.0
 71
     7
 72
     1
  1
\fMyriad Pro|b1|i0|c0|p34;\W1;F
 11
0.2127153742441168
 21
-0.9771142049730857
 31
0.0
 73
     1
 44
1.0
  0
MTEXT
  5
12F
330
E5
100
AcDbEntity
  8
Layer 3
 62
     7
100
AcDbMText
 10
13.73594020923963
 20
-17.65818141919657
 30
0.0
 40
1.21051616686122
 41
0.0
 71
     7
 72
     1
  1
\fMyriad Pro|b1|i0|c0|p34;\W1; 
 11
0.1743111808716232
 21
-0.9846906175155424
 31
0.0
 73
     1
 44
1.0
  0
MTEXT
  5
130
330
E5
100
AcDbEntity
  8
Layer 3
 62
     7
100
AcDbMText
 10
13.80070800436232
 20
-17.99201117171728
 30
0.0
 40
1.210515938085348
 41
0.0
 71
     7
 72
     1
  1
\fMyriad Pro|b1|i0|c0|p34;\W1;F
 11
0.1362422168103975
 21
-0.9906755565565291
 31
0.0
 73
     1
 44
1.0
  0
MTEXT
  5
131
330
E5
100
AcDbEntity
  8
Layer 3
 62
     7
100
AcDbMText
 10
13.92852104686509
 20
-18.90978460898783
 30
0.0
 40
1.210516281249156
 41
0.0
 71
     7
 72
     1
  1
\fMyriad Pro|b1|i0|c0|p34;\W1;R
 11
0.0766721090197123
 21
-0.997056361344969
 31
0.0
 73
     1
 44
1.0
  0
MTEXT
  5
132
330
E5
100
AcDbEntity
  8
Layer 3
 62
     7
100
AcDbMText
 10
14.00706922392879
 20
-19.93917913998049
 30
0.0
 40
1.210494661929246
 41
0.0
 71
     7
 72
     1
  1
\fMyriad Pro|b1|i0|c0|p34;\W1;O
 11
0.0162103347633559
 21
-0.9998686038909612
 31
0.0
 73
     1
 44
1.0
  0
MTEXT
  5
133
330
E5
100
AcDbEntity
  8
Layer 3
 62
     7
100
AcDbMText
 10
14.02291666316094
 20
-21.1887152724806
 30
0.0
 40
1.210497178463838
 41
0.0
 71
     7
 72
     1
  1
\fMyriad Pro|b1|i0|c0|p34;\W1;N
 11
-0.06561424625819515
 21
-0.9978450634682565
 31
0.0
 73
     1
 44
1.0
  0
MTEXT
  5
134
330
E5
100
AcDbEntity
  8
Layer 3
 62
     7
100
AcDbMText
 10
13.93851182377232
 20
-22.40311143103117
 30
0.0
 40
1.210509074809186
 41
0.0
 71
     7
 72
     1
  1
\fMyriad Pro|b1|i0|c0|p34;\W1;T
 11
-0.1315068263982408
 21
-0.9913152649942716
 31
0.0
 73
     1
 44
1.0
  0
MTEXT
  5
135
330
E5
100
AcDbEntity
  8
Layer 3
 62
     7
100
AcDbMText
 10
13.80897623352692
 20
-23.34844563218372
 30
0.0
 40
1.21051010430061
 41
0.0
 71
     7
 72
     1
  1
\fMyriad Pro|b1|i0|c0|p34;\W1;I
 11
-0.1750647132744186
 21
-0.9845569288599546
 31
0.0
 73
     1
 44
1.0
  0
MTEXT
  5
136
330
E5
100
AcDbEntity
  8
Layer 3
 62
     7
100
AcDbMText
 10
13.72526041323535
 20
-23.84763996799643
 30
0.0
 40
1.210496606524158
 41
0.0
 71
     7
 72
     1
  1
\fMyriad Pro|b1|i0|c0|p34;\W1;E
 11
-0.2187994160614814
 21
-0.975769857871801
 31
0.0
 73
     1
 44
1.0
  0
MTEXT
  5
137
330
E5
100
AcDbEntity
  8
Layer 3
 62
     7
100
AcDbMText
 10
13.52441134644529
 20
-24.74922145648631
 30
0.0
 40
1.210514336654243
 41
0.0
 71
     7
 72
     1
  1
\fMyriad Pro|b1|i0|c0|p34;\W1;R
 11
-0.2769244995668471
 21
-0.9608916804404393
 31
0.0
 73
     1
 44
1.0
  0
MTEXT
  5
138
330
E5
100
AcDbEntity
  8
Layer 3
 62
     7
100
AcDbMText
 10
13.23605685432988
 20
-25.75002169495139
 30
0.0
 40
1.210504842455553
 41
0.0
 71
     7
 72
     1
  1
\fMyriad Pro|b1|i0|c0|p34;\W1;S
 11
-0.3351234980371783
 21
-0.9421742095086902
 31
0.0
 73
     1
 44
1.0
  0
MTEXT
  5
139
330
E5
100
AcDbEntity
  8
Layer 3
 62
     7
100
AcDbMText
 10
-17.76601290788489
 20
-29.02424044413283
 30
0.0
 40
1.088324800219252
 41
0.0
 71
     7
 72
     1
  1
\fMyriad Pro|b1|i0|c0|p34;\W1; 
 11
0.4839990872237516
 21
-0.8750685022137268
 31
0.0
 73
     1
 44
1.0
  0
MTEXT
  5
13A
330
E5
100
AcDbEntity
  8
Layer 3
 62
     7
100
AcDbMText
 10
-17.60237087233552
 20
-29.33016492322302
 30
0.0
 40
1.088317708167218
 41
0.0
 71
     7
 72
     1
  1
\fMyriad Pro|b1|i0|c0|p34;\W1;\U+00A7
 11
0.5153901918136712
 21
-0.8569556290627113
 31
0.0
 73
     1
 44
1.0
  0
MTEXT
  5
13B
330
E5
100
AcDbEntity
  8
Layer 3
 62
     7
100
AcDbMText
 10
-17.11592338981824
 20
-30.13459471902885
 30
0.0
 40
1.088322855624339
 41
0.0
 71
     7
 72
     1
  1
\fMyriad Pro|b1|i0|c0|p34;\W1;1
 11
0.5604197366893866
 21
-0.8282087410363397
 31
0.0
 73
     1
 44
1.0
  0
MTEXT
  5
13C
330
E5
100
AcDbEntity
  8
Layer 3
 62
     7
100
AcDbMText
 10
-16.59984808612782
 20
-30.89699434991464
 30
0.0
 40
1.088302265795853
 41
0.0
 71
     7
 72
     1
  1
\fMyriad Pro|b1|i0|c0|p34;\W1;9
 11
0.6030638883334556
 21
-0.7976928898944339
 31
0.0
 73
     1
 44
1.0
  0
MTEXT
  5
13D
330
E5
100
AcDbEntity
  8
Layer 3
 62
     7
100
AcDbMText
 10
-16.03657497428947
 20
-31.63183321691843
 30
0.0
 40
1.088322054908787
 41
0.0
 71
     7
 72
     1
  1
\fMyriad Pro|b1|i0|c0|p34;\W1; 
 11
0.6318805576483032
 21
-0.7750657784124322
 31
0.0
 73
     1
 44
1.0
  0
MTEXT
  5
13E
330
E5
100
AcDbEntity
  8
Layer 3
 62
     7
100
AcDbMText
 10
-15.82022297781578
 20
-31.90916340348105
 30
0.0
 40
1.088310272951376
 41
0.0
 71
     7
 72
     1
  1
\fMyriad Pro|b1|i0|c0|p34;\W1;U
 11
0.6637176603304704
 21
-0.7479831999219276
 31
0.0
 73
     1
 44
1.0
  0
MTEXT
  5
13F
330
E5
100
AcDbEntity
  8
Layer 3
 62
     7
100
AcDbMText
 10
-15.06574706654606
 20
-32.75734591194956
 30
0.0
 40
1.088324800219252
 41
0.0
 71
     7
 72
     1
  1
\fMyriad Pro|b1|i0|c0|p34;\W1;N
 11
0.7107672855604888
 21
-0.7034272284870515
 31
0.0
 73
     1
 44
1.0
  0
MTEXT
  5
140
330
E5
100
AcDbEntity
  8
Layer 3
 62
     7
100
AcDbMText
 10
-14.25167100338153
 20
-33.55109591175112
 30
0.0
 40
1.088323198788147
 41
0.0
 71
     7
 72
     1
  1
\fMyriad Pro|b1|i0|c0|p34;\W1;I
 11
0.7424980739966932
 21
-0.669848199304291
 31
0.0
 73
     1
 44
1.0
  0
MTEXT
  5
141
330
E5
100
AcDbEntity
  8
Layer 3
 62
     7
100
AcDbMText
 10
-13.89820420659489
 20
-33.87803547330132
 30
0.0
 40
1.088317021839602
 41
0.0
 71
     7
 72
     1
  1
\fMyriad Pro|b1|i0|c0|p34;\W1;V
 11
0.7707824034943564
 21
-0.6370984903949021
 31
0.0
 73
     1
 44
1.0
  0
MTEXT
  5
142
330
E5
100
AcDbEntity
  8
Layer 3
 62
     7
100
AcDbMText
 10
-13.07344834742608
 20
-34.55430771705587
 30
0.0
 40
1.088303409675214
 41
0.0
 71
     7
 72
     1
  1
\fMyriad Pro|b1|i0|c0|p34;\W1;E
 11
0.805274702887032
 21
-0.5929018914543978
 31
0.0
 73
     1
 44
1.0
  0
MTEXT
  5
143
330
E5
100
AcDbEntity
  8
Layer 3
 62
     7
100
AcDbMText
 10
-12.35928005333379
 20
-35.08106281675057
 30
0.0
 40
1.088320796641491
 41
0.0
 71
     7
 72
     1
  1
\fMyriad Pro|b1|i0|c0|p34;\W1;R
 11
0.8357046893565077
 21
-0.549179089357509
 31
0.0
 73
     1
 44
1.0
  0
MTEXT
  5
144
330
E5
100
AcDbEntity
  8
Layer 3
 62
     7
100
AcDbMText
 10
-11.52935655093711
 20
-35.62400986522594
 30
0.0
 40
1.088310501727248
 41
0.0
 71
     7
 72
     1
  1
\fMyriad Pro|b1|i0|c0|p34;\W1;S
 11
0.8642534603766427
 21
-0.5030566133418771
 31
0.0
 73
     1
 44
1.0
  0
MTEXT
  5
145
330
E5
100
AcDbEntity
  8
Layer 3
 62
     7
100
AcDbMText
 10
-10.75317653811032
 20
-36.07772894063335
 30
0.0
 40
1.088331434719542
 41
0.0
 71
     7
 72
     1
  1
\fMyriad Pro|b1|i0|c0|p34;\W1;A
 11
0.8914183262154534
 21
-0.4531813849743164
 31
0.0
 73
     1
 44
1.0
  0
MTEXT
  5
146
330
E5
100
AcDbEntity
  8
Layer 3
 62
     7
100
AcDbMText
 10
-9.772702363008214
 20
-36.57141112366965
 30
0.0
 40
1.088323541951955
 41
0.0
 71
     7
 72
     1
  1
\fMyriad Pro|b1|i0|c0|p34;\W1;L
 11
0.9155526745358581
 21
-0.4021980857118008
 31
0.0
 73
     1
 44
1.0
  0
MTEXT
  5
147
330
E5
100
AcDbEntity
  8
Layer 3
 62
     7
100
AcDbMText
 10
-8.995144311987325
 20
-36.90765244303003
 30
0.0
 40
1.088310044175504
 41
0.0
 71
     7
 72
     1
  1
\fMyriad Pro|b1|i0|c0|p34;\W1; 
 11
0.9288668575188039
 21
-0.3704137699966645
 31
0.0
 73
     1
 44
1.0
  0
MTEXT
  5
148
330
E5
100
AcDbEntity
  8
Layer 3
 62
     7
100
AcDbMText
 10
-8.670271807728266
 20
-37.04545626244003
 30
0.0
 40
1.088313590201521
 41
0.0
 71
     7
 72
     1
  1
\fMyriad Pro|b1|i0|c0|p34;\W1;D
 11
0.9439620606065571
 21
-0.330053977608849
 31
0.0
 73
     1
 44
1.0
  0
MTEXT
  5
149
330
E5
100
AcDbEntity
  8
Layer 3
 62
     7
100
AcDbMText
 10
-7.581621634389317
 20
-37.42131617988078
 30
0.0
 40
1.088305125494254
 41
0.0
 71
     7
 72
     1
  1
\fMyriad Pro|b1|i0|c0|p34;\W1;E
 11
0.9617290894839484
 21
-0.2740021139341364
 31
0.0
 73
     1
 44
1.0
  0
MTEXT
  5
14A
330
E5
100
AcDbEntity
  8
Layer 3
 62
     7
100
AcDbMText
 10
-6.716902667591608
 20
-37.66729599752762
 30
0.0
 40
1.088329375736693
 41
0.0
 71
     7
 72
     1
  1
\fMyriad Pro|b1|i0|c0|p34;\W1;C
 11
0.9752455680701211
 21
-0.221124584701898
 31
0.0
 73
     1
 44
1.0
  0
MTEXT
  5
14B
330
E5
100
AcDbEntity
  8
Layer 3
 62
     7
100
AcDbMText
 10
-5.746763778945254
 20
-37.88399250354983
 30
0.0
 40
1.088316221124049
 41
0.0
 71
     7
 72
     1
  1
\fMyriad Pro|b1|i0|c0|p34;\W1;L
 11
0.9856397500316042
 21
-0.1688617279244672
 31
0.0
 73
     1
 44
1.0
  0
MTEXT
  5
14C
330
E5
100
AcDbEntity
  8
Layer 3
 62
     7
100
AcDbMText
 10
-4.898236760928219
 20
-38.03213160941558
 30
0.0
 40
1.088323541951955
 41
0.0
 71
     7
 72
     1
  1
\fMyriad Pro|b1|i0|c0|p34;\W1;A
 11
0.9935234922438502
 21
-0.113626891005537
 31
0.0
 73
     1
 44
1.0
  0
MTEXT
  5
14D
330
E5
100
AcDbEntity
  8
Layer 3
 62
     7
100
AcDbMText
 10
-3.811998154428945
 20
-38.15270995139932
 30
0.0
 40
1.088318737658642
 41
0.0
 71
     7
 72
     1
  1
\fMyriad Pro|b1|i0|c0|p34;\W1;R
 11
0.9985096046154115
 21
-0.05457627223230454
 31
0.0
 73
     1
 44
1.0
  0
MTEXT
  5
14E
330
E5
100
AcDbEntity
  8
Layer 3
 62
     7
100
AcDbMText
 10
-2.794316948086143
 20
-38.21334363193972
 30
0.0
 40
1.0883268592021
 41
0.0
 71
     7
 72
     1
  1
\fMyriad Pro|b1|i0|c0|p34;\W1;A
 11
0.9998687568218989
 21
0.01620089909327184
 31
0.0
 73
     1
 44
1.0
  0
MTEXT
  5
14F
330
E5
100
AcDbEntity
  8
Layer 3
 62
     7
100
AcDbMText
 10
-1.849671766030638
 20
-38.2033528550325
 30
0.0
 40
1.088321139805299
 41
0.0
 71
     7
 72
     1
  1
\fMyriad Pro|b1|i0|c0|p34;\W1;T
 11
0.998551475401925
 21
0.0538047486067794
 31
0.0
 73
     1
 44
1.0
  0
MTEXT
  5
150
330
E5
100
AcDbEntity
  8
Layer 3
 62
     7
100
AcDbMText
 10
-0.9446451820555054
 20
-38.15029838455965
 30
0.0
 40
1.08831679306373
 41
0.0
 71
     7
 72
     1
  1
\fMyriad Pro|b1|i0|c0|p34;\W1;I
 11
0.9956460594769837
 21
0.09321439935951258
 31
0.0
 73
     1
 44
1.0
  0
MTEXT
  5
151
330
E5
100
AcDbEntity
  8
Layer 3
 62
     7
100
AcDbMText
 10
-0.4623318141205282
 20
-38.1124023342219
 30
0.0
 40
1.08831793694309
 41
0.0
 71
     7
 72
     1
  1
\fMyriad Pro|b1|i0|c0|p34;\W1;O
 11
0.9901311613290665
 21
0.1401437953145058
 31
0.0
 73
     1
 44
1.0
  0
MTEXT
  5
152
330
E5
100
AcDbEntity
  8
Layer 3
 62
     7
100
AcDbMText
 10
0.7245035805480408
 20
-37.94152559815351
 30
0.0
 40
1.088322855624339
 41
0.0
 71
     7
 72
     1
  1
\fMyriad Pro|b1|i0|c0|p34;\W1;N
 11
0.9784254002722843
 21
0.2066004261903161
 31
0.0
 73
     1
 44
1.0
  0
MTEXT
  5
153
330
E5
100
AcDbEntity
  8
Layer 3
 62
     7
100
AcDbMText
 10
1.834513345895538
 20
-37.69795734734635
 30
0.0
 40
1.088324113891636
 41
0.0
 71
     7
 72
     1
  1
\fMyriad Pro|b1|i0|c0|p34;\W1; 
 11
0.9686596361658065
 21
0.2483918462090237
 31
0.0
 73
     1
 44
1.0
  0
MTEXT
  5
154
330
E5
100
AcDbEntity
  8
Layer 3
 62
     7
100
AcDbMText
 10
2.181434461260197
 20
-37.61803113208855
 30
0.0
 40
1.0883113024428
 41
0.0
 71
     7
 72
     1
  1
\fMyriad Pro|b1|i0|c0|p34;\W1;O
 11
0.9567040764244148
 21
0.2910623818924519
 31
0.0
 73
     1
 44
1.0
  0
MTEXT
  5
155
330
E5
100
AcDbEntity
  8
Layer 3
 62
     7
100
AcDbMText
 10
3.327617729202818
 20
-37.26284178755929
 30
0.0
 40
1.088312560710096
 41
0.0
 71
     7
 72
     1
  1
\fMyriad Pro|b1|i0|c0|p34;\W1;F
 11
0.9374386272211723
 21
0.3481505711523161
 31
0.0
 73
     1
 44
1.0
  0
MTEXT
  5
156
330
E5
100
AcDbEntity
  8
Layer 3
 62
     7
100
AcDbMText
 10
4.132736544105705
 20
-36.95863985621173
 30
0.0
 40
1.088324685831316
 41
0.0
 71
     7
 72
     1
  1
\fMyriad Pro|b1|i0|c0|p34;\W1; 
 11
0.9248396052488752
 21
0.3803573379903492
 31
0.0
 73
     1
 44
1.0
  0
MTEXT
  5
157
330
E5
100
AcDbEntity
  8
Layer 3
 62
     7
100
AcDbMText
 10
4.464154729786739
 20
-36.83048230416043
 30
0.0
 40
1.088314848468817
 41
0.0
 71
     7
 72
     1
  1
\fMyriad Pro|b1|i0|c0|p34;\W1;H
 11
0.9077250545167551
 21
0.4195655197970324
 31
0.0
 73
     1
 44
1.0
  0
MTEXT
  5
158
330
E5
100
AcDbEntity
  8
Layer 3
 62
     7
100
AcDbMText
 10
5.515253362336464
 20
-36.34231227390053
 30
0.0
 40
1.088327202365909
 41
0.0
 71
     7
 72
     1
  1
\fMyriad Pro|b1|i0|c0|p34;\W1;U
 11
0.8779983548212931
 21
0.4786636490596531
 31
0.0
 73
     1
 44
1.0
  0
MTEXT
  5
159
330
E5
100
AcDbEntity
  8
Layer 3
 62
     7
100
AcDbMText
 10
6.514331053058918
 20
-35.80143228271631
 30
0.0
 40
1.088310616115184
 41
0.0
 71
     7
 72
     1
  1
\fMyriad Pro|b1|i0|c0|p34;\W1;M
 11
0.841036701550706
 21
0.5409780648461716
 31
0.0
 73
     1
 44
1.0
  0
MTEXT
  5
15A
330
E5
100
AcDbEntity
  8
Layer 3
 62
     7
100
AcDbMText
 10
7.689797632626162
 20
-35.03662108499085
 30
0.0
 40
1.088323427564019
 41
0.0
 71
     7
 72
     1
  1
\fMyriad Pro|b1|i0|c0|p34;\W1;A
 11
0.800391256956653
 21
0.5994779693928286
 31
0.0
 73
     1
 44
1.0
  0
MTEXT
  5
15B
330
E5
100
AcDbEntity
  8
Layer 3
 62
     7
100
AcDbMText
 10
8.572086586398646
 20
-34.37447373272582
 30
0.0
 40
1.088315191632625
 41
0.0
 71
     7
 72
     1
  1
\fMyriad Pro|b1|i0|c0|p34;\W1;N
 11
0.7602234626620685
 21
0.6496616710396994
 31
0.0
 73
     1
 44
1.0
  0
MTEXT
  5
15C
330
E5
100
AcDbEntity
  8
Layer 3
 62
     7
100
AcDbMText
 10
9.431982419517006
 20
-33.62861056016924
 30
0.0
 40
1.088329490124629
 41
0.0
 71
     7
 72
     1
  1
\fMyriad Pro|b1|i0|c0|p34;\W1; 
 11
0.731968577401948
 21
0.681338390006147
 31
0.0
 73
     1
 44
1.0
  0
MTEXT
  5
15D
330
E5
100
AcDbEntity
  8
Layer 3
 62
     7
100
AcDbMText
 10
9.685885956779918
 20
-33.3991672008516
 30
0.0
 40
1.088328460633205
 41
0.0
 71
     7
 72
     1
  1
\fMyriad Pro|b1|i0|c0|p34;\W1;R
 11
0.7060480466572742
 21
0.7081639328654401
 31
0.0
 73
     1
 44
1.0
  0
MTEXT
  5
15E
330
E5
100
AcDbEntity
  8
Layer 3
 62
     7
100
AcDbMText
 10
10.37456054428136
 20
-32.69946830779735
 30
0.0
 40
1.088307985192655
 41
0.0
 71
     7
 72
     1
  1
\fMyriad Pro|b1|i0|c0|p34;\W1;I
 11
0.675908210076777
 21
0.7369858150268616
 31
0.0
 73
     1
 44
1.0
  0
MTEXT
  5
15F
330
E5
100
AcDbEntity
  8
Layer 3
 62
     7
100
AcDbMText
 10
10.71528048777257
 20
-32.33842230094317
 30
0.0
 40
1.088321254193235
 41
0.0
 71
     7
 72
     1
  1
\fMyriad Pro|b1|i0|c0|p34;\W1;G
 11
0.6410946189133784
 21
0.7674618489542723
 31
0.0
 73
     1
 44
1.0
  0
MTEXT
  5
160
330
E5
100
AcDbEntity
  8
Layer 3
 62
     7
100
AcDbMText
 10
11.43530544418979
 20
-31.47508137233956
 30
0.0
 40
1.088308442744399
 41
0.0
 71
     7
 72
     1
  1
\fMyriad Pro|b1|i0|c0|p34;\W1;H
 11
0.5904746406569168
 21
0.8070561930504498
 31
0.0
 73
     1
 44
1.0
  0
MTEXT
  5
161
330
E5
100
AcDbEntity
  8
Layer 3
 62
     7
100
AcDbMText
 10
12.11226670704138
 20
-30.54180500538538
 30
0.0
 40
1.088316907451666
 41
0.0
 71
     7
 72
     1
  1
\fMyriad Pro|b1|i0|c0|p34;\W1;T
 11
0.541610662045627
 21
0.8406294610341096
 31
0.0
 73
     1
 44
1.0
  0
MTEXT
  5
162
330
E5
100
AcDbEntity
  8
Layer 3
 62
     7
100
AcDbMText
 10
12.60078124684981
 20
-29.78216145088779
 30
0.0
 40
1.088319423986258
 41
0.0
 71
     7
 72
     1
  1
\fMyriad Pro|b1|i0|c0|p34;\W1;S
 11
0.4977995968205611
 21
0.8672920854045002
 31
0.0
 73
     1
 44
1.0
  0
INSERT
  5
164
330
E5
100
AcDbEntity
  8
Layer 3
100
AcDbBlockReference
  2
block 15
 10
0.0
 20
0.0
 30
0.0
  0
POLYLINE
  5
1A4
330
E5
100
AcDbEntity
  8
Layer 3
370
     0
100
AcDb2dPolyline
 66
     1
 10
0.0
 20
0.0
 30
0.0
  0
VERTEX
  5
1A5
330
1A4
100
AcDbEntity
  8
Layer 3
370
     0
100
AcDbVertex
100
AcDb2dVertex
 10
-21.99969074970841
 20
-0.9997667098195028
 30
0.0
  0
VERTEX
  5
1A6
330
1A4
100
AcDbEntity
  8
Layer 3
370
     0
100
AcDbVertex
100
AcDb2dVertex
 10
16.9994791624168
 20
-0.9997667098195028
 30
0.0
  0
VERTEX
  5
1A7
330
1A4
100
AcDbEntity
  8
Layer 3
370
     0
100
AcDbVertex
100
AcDb2dVertex
 10
16.9994791624168
 20
-39.99962564104176
 30
0.0
  0
VERTEX
  5
1A8
330
1A4
100
AcDbEntity
  8
Layer 3
370
     0
100
AcDbVertex
100
AcDb2dVertex
 10
-21.99969074970841
 20
-39.99962564104176
 30
0.0
  0
VERTEX
  5
1A9
330
1A4
100
AcDbEntity
  8
Layer 3
370
     0
100
AcDbVertex
100
AcDb2dVertex
 10
-21.99969074970841
 20
-0.9997667098195028
 30
0.0
  0
SEQEND
  5
1AA
330
1A4
100
AcDbEntity
  8
Layer 3
370
     0
  0
ENDBLK
  5
E8
330
E5
100
AcDbEntity
  8
0
100
AcDbBlockEnd
  0
BLOCK
  5
EB
330
E9
100
AcDbEntity
  8
0
100
AcDbBlockBegin
  2
block 14
 70
     0
 71
     0
 10
0.0
 20
0.0
 30
0.0
  3
block 14
  1

  0
SPLINE
  5
ED
330
E9
100
AcDbEntity
  8
Layer 3
370
     0
100
AcDbSpline
210
0.0
220
0.0
230
1.0
 70
    11
 71
     3
 72
    17
 73
    13
 74
     0
 42
0.0000000001
 43
0.0000000001
 40
0.0
 40
0.0
 40
0.0
 40
0.0
 40
1.0
 40
1.0
 40
1.0
 40
2.0
 40
2.0
 40
2.0
 40
3.0
 40
3.0
 40
3.0
 40
4.0
 40
4.0
 40
4.0
 40
4.0
 10
-2.500450303194332
 20
-39.82323675219697
 30
0.0
 10
-13.1550971104265
 20
-39.82323675219697
 30
0.0
 10
-21.82330186086362
 20
-31.1543429826628
 30
0.0
 10
-21.82330186086362
 20
-20.49900715633358
 30
0.0
 10
-21.82330186086362
 20
-9.844360349101411
 30
0.0
 10
-13.1550971104265
 20
-1.176155598664294
 30
0.0
 10
-2.500450303194332
 20
-1.176155598664294
 30
0.0
 10
8.154541013586366
 20
-1.176155598664294
 30
0.0
 10
16.82309027357201
 20
-9.844360349101411
 30
0.0
 10
16.82309027357201
 20
-20.49900715633358
 30
0.0
 10
16.82309027357201
 20
-31.1543429826628
 30
0.0
 10
8.154541013586366
 20
-39.82323675219697
 30
0.0
 10
-2.500450303194332
 20
-39.82323675219697
 30
0.0
  0
SPLINE
  5
EE
330
E9
100
AcDbEntity
  8
Layer 3
370
     0
100
AcDbSpline
210
0.0
220
0.0
230
1.0
 70
    11
 71
     3
 72
    17
 73
    13
 74
     0
 42
0.0000000001
 43
0.0000000001
 40
0.0
 40
0.0
 40
0.0
 40
0.0
 40
1.0
 40
1.0
 40
1.0
 40
2.0
 40
2.0
 40
2.0
 40
3.0
 40
3.0
 40
3.0
 40
4.0
 40
4.0
 40
4.0
 40
4.0
 10
-2.500450303194332
 20
-1.352544487509086
 30
0.0
 10
8.05738932090232
 20
-1.352544487509086
 30
0.0
 10
16.64670138472722
 20
-9.941512041785456
 30
0.0
 10
16.64670138472722
 20
-20.49866264678506
 30
0.0
 10
16.64670138472722
 20
-31.05719128997876
 30
0.0
 10
8.05738932090232
 20
-39.64684786335218
 30
0.0
 10
-2.500450303194332
 20
-39.64684786335218
 30
0.0
 10
-13.05794541774246
 20
-39.64684786335218
 30
0.0
 10
-21.64691297201883
 20
-31.05719128997876
 30
0.0
 10
-21.64691297201883
 20
-20.49866264678506
 30
0.0
 10
-21.64691297201883
 20
-9.941512041785456
 30
0.0
 10
-13.05794541774246
 20
-1.352544487509086
 30
0.0
 10
-2.500450303194332
 20
-1.352544487509086
 30
0.0
  0
SPLINE
  5
EF
330
E9
100
AcDbEntity
  8
Layer 3
370
     0
100
AcDbSpline
210
0.0
220
0.0
230
1.0
 70
    11
 71
     3
 72
    17
 73
    13
 74
     0
 42
0.0000000001
 43
0.0000000001
 40
0.0
 40
0.0
 40
0.0
 40
0.0
 40
1.0
 40
1.0
 40
1.0
 40
2.0
 40
2.0
 40
2.0
 40
3.0
 40
3.0
 40
3.0
 40
4.0
 40
4.0
 40
4.0
 40
4.0
 10
-2.500450303194332
 20
-0.9997667098195028
 30
0.0
 10
-13.27016329963385
 20
-0.9997667098195028
 30
0.0
 10
-21.99969074970841
 20
-9.729638669442592
 30
0.0
 10
-21.99969074970841
 20
-20.49866264678506
 30
0.0
 10
-21.99969074970841
 20
-31.26906466232163
 30
0.0
 10
-13.27016329963385
 20
-39.99962564104176
 30
0.0
 10
-2.500450303194332
 20
-39.99962564104176
 30
0.0
 10
8.269951712342234
 20
-39.99962564104176
 30
0.0
 10
16.9994791624168
 20
-31.26906466232163
 30
0.0
 10
16.9994791624168
 20
-20.49866264678506
 30
0.0
 10
16.9994791624168
 20
-9.729638669442592
 30
0.0
 10
8.269951712342234
 20
-0.9997667098195028
 30
0.0
 10
-2.500450303194332
 20
-0.9997667098195028
 30
0.0
  0
HATCH
  5
F0
330
E9
100
AcDbEntity
  8
Layer 3
 62
     7
100
AcDbHatch
 10
0.0
 20
0.0
 30
0.0
210
0.0
220
0.0
230
1.0
  2
SOLID
 70
     1
 71
     0
 91
        2
 92
        1
 93
        2
 72
     4
 94
        3
 73
     0
 74
     0
 95
       17
 96
       13
 40
0.0
 40
0.0
 40
0.0
 40
0.0
 40
0.3527777776895833
 40
0.3527777776895833
 40
0.3527777776895833
 40
0.7055555553791667
 40
0.7055555553791667
 40
0.7055555553791667
 40
1.05833333306875
 40
1.05833333306875
 40
1.05833333306875
 40
1.411111110758333
 40
1.411111110758333
 40
1.411111110758333
 40
1.411111110758333
 10
-2.500450303194332
 20
-1.352544487509086
 10
8.05738932090232
 20
-1.352544487509086
 10
16.64670138472722
 20
-9.941512041785456
 10
16.64670138472722
 20
-20.49866264678506
 10
16.64670138472722
 20
-31.05719128997876
 10
8.05738932090232
 20
-39.64684786335218
 10
-2.500450303194332
 20
-39.64684786335218
 10
-13.05794541774246
 20
-39.64684786335218
 10
-21.64691297201883
 20
-31.05719128997876
 10
-21.64691297201883
 20
-20.49866264678506
 10
-21.64691297201883
 20
-9.941512041785456
 10
-13.05794541774246
 20
-1.352544487509086
 10
-2.500450303194332
 20
-1.352544487509086
 72
     1
 10
-2.500450303194332
 20
-1.352544487509086
 11
-2.500450303194332
 21
-1.352544487509086
 97
        0
 92
        1
 93
        2
 72
     4
 94
        3
 73
     0
 74
     0
 95
       17
 96
       13
 40
0.0
 40
0.0
 40
0.0
 40
0.0
 40
0.3527777776895833
 40
0.3527777776895833
 40
0.3527777776895833
 40
0.7055555553791667
 40
0.7055555553791667
 40
0.7055555553791667
 40
1.05833333306875
 40
1.05833333306875
 40
1.05833333306875
 40
1.411111110758333
 40
1.411111110758333
 40
1.411111110758333
 40
1.411111110758333
 10
-2.500450303194332
 20
-0.9997667098195028
 10
-13.27016329963385
 20
-0.9997667098195028
 10
-21.99969074970841
 20
-9.729638669442592
 10
-21.99969074970841
 20
-20.49866264678506
 10
-21.99969074970841
 20
-31.26906466232163
 10
-13.27016329963385
 20
-39.99962564104176
 10
-2.500450303194332
 20
-39.99962564104176
 10
8.269951712342234
 20
-39.99962564104176
 10
16.9994791624168
 20
-31.26906466232163
 10
16.9994791624168
 20
-20.49866264678506
 10
16.9994791624168
 20
-9.729638669442592
 10
8.269951712342234
 20
-0.9997667098195028
 10
-2.500450303194332
 20
-0.9997667098195028
 72
     1
 10
-2.500450303194332
 20
-0.9997667098195028
 11
-2.500450303194332
 21
-0.9997667098195028
 97
        0
 75
     2
 76
     1
 98
        0
  0
POLYLINE
  5
F1
330
E9
100
AcDbEntity
  8
Layer 3
370
     0
100
AcDb2dPolyline
 66
     1
 10
0.0
 20
0.0
 30
0.0
  0
VERTEX
  5
F2
330
F1
100
AcDbEntity
  8
Layer 3
370
     0
100
AcDbVertex
100
AcDb2dVertex
 10
-22.27977701265922
 20
-0.4998833549097514
 30
0.0
  0
VERTEX
  5
F3
330
F1
100
AcDbEntity
  8
Layer 3
370
     0
100
AcDbVertex
100
AcDb2dVertex
 10
17.71984862838254
 20
-0.4998833549097514
 30
0.0
  0
VERTEX
  5
F4
330
F1
100
AcDbEntity
  8
Layer 3
370
     0
100
AcDbVertex
100
AcDb2dVertex
 10
17.71984862838254
 20
-40.49985350550004
 30
0.0
  0
VERTEX
  5
F5
330
F1
100
AcDbEntity
  8
Layer 3
370
     0
100
AcDbVertex
100
AcDb2dVertex
 10
-22.27977701265922
 20
-40.49985350550004
 30
0.0
  0
VERTEX
  5
F6
330
F1
100
AcDbEntity
  8
Layer 3
370
     0
100
AcDbVertex
100
AcDb2dVertex
 10
-22.27977701265922
 20
-0.4998833549097514
 30
0.0
  0
SEQEND
  5
F7
330
F1
100
AcDbEntity
  8
Layer 3
370
     0
  0
ENDBLK
  5
EC
330
E9
100
AcDbEntity
  8
0
100
AcDbBlockEnd
  0
BLOCK
  5
165
330
163
100
AcDbEntity
  8
0
100
AcDbBlockBegin
  2
block 15
 70
     0
 71
     0
 10
0.0
 20
0.0
 30
0.0
  3
block 15
  1

  0
POLYLINE
  5
167
330
163
100
AcDbEntity
  8
Layer 3
370
     0
100
AcDb2dPolyline
 66
     1
 10
0.0
 20
0.0
 30
0.0
  0
VERTEX
  5
168
330
167
100
AcDbEntity
  8
Layer 3
370
     0
100
AcDbVertex
100
AcDb2dVertex
 10
-4.101730684738456
 20
-31.1667453264097
 30
0.0
  0
VERTEX
  5
169
330
167
100
AcDbEntity
  8
Layer 3
370
     0
100
AcDbVertex
100
AcDb2dVertex
 10
3.216685654577773
 20
-18.14049478713154
 30
0.0
  0
VERTEX
  5
16A
330
167
100
AcDbEntity
  8
Layer 3
370
     0
100
AcDbVertex
100
AcDb2dVertex
 10
-4.918562824291193
 20
-18.13532714390367
 30
0.0
  0
VERTEX
  5
16B
330
167
100
AcDbEntity
  8
Layer 3
370
     0
100
AcDbVertex
100
AcDb2dVertex
 10
-6.478846569560845
 20
-15.34652234859393
 30
0.0
  0
VERTEX
  5
16C
330
167
100
AcDbEntity
  8
Layer 3
370
     0
100
AcDbVertex
100
AcDb2dVertex
 10
7.925786673365776
 20
-15.34445529130278
 30
0.0
  0
VERTEX
  5
16D
330
167
100
AcDbEntity
  8
Layer 3
370
     0
100
AcDbVertex
100
AcDb2dVertex
 10
-0.8619628904095094
 20
-31.17466904602578
 30
0.0
  0
VERTEX
  5
16E
330
167
100
AcDbEntity
  8
Layer 3
370
     0
100
AcDbVertex
100
AcDb2dVertex
 10
-4.101730684738456
 20
-31.1667453264097
 30
0.0
  0
SEQEND
  5
16F
330
167
100
AcDbEntity
  8
Layer 3
370
     0
  0
POLYLINE
  5
170
330
163
100
AcDbEntity
  8
Layer 3
 62
     7
370
    20
100
AcDb2dPolyline
 66
     1
 10
0.0
 20
0.0
 30
0.0
  0
VERTEX
  5
171
330
170
100
AcDbEntity
  8
Layer 3
 62
     7
370
    20
100
AcDbVertex
100
AcDb2dVertex
 10
-4.101730684738456
 20
-31.1667453264097
 30
0.0
  0
VERTEX
  5
172
330
170
100
AcDbEntity
  8
Layer 3
 62
     7
370
    20
100
AcDbVertex
100
AcDb2dVertex
 10
3.216685654577773
 20
-18.14049478713154
 30
0.0
  0
VERTEX
  5
173
330
170
100
AcDbEntity
  8
Layer 3
 62
     7
370
    20
100
AcDbVertex
100
AcDb2dVertex
 10
-4.918562824291193
 20
-18.13532714390367
 30
0.0
  0
VERTEX
  5
174
330
170
100
AcDbEntity
  8
Layer 3
 62
     7
370
    20
100
AcDbVertex
100
AcDb2dVertex
 10
-6.478846569560845
 20
-15.34652234859393
 30
0.0
  0
VERTEX
  5
175
330
170
100
AcDbEntity
  8
Layer 3
 62
     7
370
    20
100
AcDbVertex
100
AcDb2dVertex
 10
7.925786673365776
 20
-15.34445529130278
 30
0.0
  0
VERTEX
  5
176
330
170
100
AcDbEntity
  8
Layer 3
 62
     7
370
    20
100
AcDbVertex
100
AcDb2dVertex
 10
-0.8619628904095094
 20
-31.17466904602578
 30
0.0
  0
VERTEX
  5
177
330
170
100
AcDbEntity
  8
Layer 3
 62
     7
370
    20
100
AcDbVertex
100
AcDb2dVertex
 10
-4.101730684738456
 20
-31.1667453264097
 30
0.0
  0
SEQEND
  5
178
330
170
100
AcDbEntity
  8
Layer 3
370
    20
  0
POLYLINE
  5
179
330
163
100
AcDbEntity
  8
Layer 3
370
     0
100
AcDb2dPolyline
 66
     1
 10
0.0
 20
0.0
 30
0.0
  0
VERTEX
  5
17A
330
179
100
AcDbEntity
  8
Layer 3
370
     0
100
AcDbVertex
100
AcDb2dVertex
 10
-4.102075194286981
 20
-31.1667453264097
 30
0.0
  0
VERTEX
  5
17B
330
179
100
AcDbEntity
  8
Layer 3
370
     0
100
AcDbVertex
100
AcDb2dVertex
 10
-12.79474012266937
 20
-15.34652234859393
 30
0.0
  0
VERTEX
  5
17C
330
179
100
AcDbEntity
  8
Layer 3
370
     0
100
AcDbVertex
100
AcDb2dVertex
 10
-11.20138346074132
 20
-12.47813584757491
 30
0.0
  0
VERTEX
  5
17D
330
179
100
AcDbEntity
  8
Layer 3
370
     0
100
AcDbVertex
100
AcDb2dVertex
 10
-3.989765081467837
 20
-25.54641655177312
 30
0.0
  0
VERTEX
  5
17E
330
179
100
AcDbEntity
  8
Layer 3
370
     0
100
AcDbVertex
100
AcDb2dVertex
 10
0.0344509548524984
 20
-18.13601616300072
 30
0.0
  0
VERTEX
  5
17F
330
179
100
AcDbEntity
  8
Layer 3
370
     0
100
AcDbVertex
100
AcDb2dVertex
 10
3.222197807354173
 20
-18.13601616300072
 30
0.0
  0
VERTEX
  5
180
330
179
100
AcDbEntity
  8
Layer 3
370
     0
100
AcDbVertex
100
AcDb2dVertex
 10
-4.102075194286981
 20
-31.1667453264097
 30
0.0
  0
SEQEND
  5
181
330
179
100
AcDbEntity
  8
Layer 3
370
     0
  0
POLYLINE
  5
182
330
163
100
AcDbEntity
  8
Layer 3
 62
     7
370
    20
100
AcDb2dPolyline
 66
     1
 10
0.0
 20
0.0
 30
0.0
  0
VERTEX
  5
183
330
182
100
AcDbEntity
  8
Layer 3
 62
     7
370
    20
100
AcDbVertex
100
AcDb2dVertex
 10
-4.102075194286981
 20
-31.1667453264097
 30
0.0
  0
VERTEX
  5
184
330
182
100
AcDbEntity
  8
Layer 3
 62
     7
370
    20
100
AcDbVertex
100
AcDb2dVertex
 10
-12.79474012266937
 20
-15.34652234859393
 30
0.0
  0
VERTEX
  5
185
330
182
100
AcDbEntity
  8
Layer 3
 62
     7
370
    20
100
AcDbVertex
100
AcDb2dVertex
 10
-11.20138346074132
 20
-12.47813584757491
 30
0.0
  0
VERTEX
  5
186
330
182
100
AcDbEntity
  8
Layer 3
 62
     7
370
    20
100
AcDbVertex
100
AcDb2dVertex
 10
-3.989765081467837
 20
-25.54641655177312
 30
0.0
  0
VERTEX
  5
187
330
182
100
AcDbEntity
  8
Layer 3
 62
     7
370
    20
100
AcDbVertex
100
AcDb2dVertex
 10
0.0344509548524984
 20
-18.13601616300072
 30
0.0
  0
VERTEX
  5
188
330
182
100
AcDbEntity
  8
Layer 3
 62
     7
370
    20
100
AcDbVertex
100
AcDb2dVertex
 10
3.222197807354173
 20
-18.13601616300072
 30
0.0
  0
VERTEX
  5
189
330
182
100
AcDbEntity
  8
Layer 3
 62
     7
370
    20
100
AcDbVertex
100
AcDb2dVertex
 10
-4.102075194286981
 20
-31.1667453264097
 30
0.0
  0
SEQEND
  5
18A
330
182
100
AcDbEntity
  8
Layer 3
370
    20
  0
POLYLINE
  5
18B
330
163
100
AcDbEntity
  8
Layer 3
370
     0
100
AcDb2dPolyline
 66
     1
 10
0.0
 20
0.0
 30
0.0
  0
VERTEX
  5
18C
330
18B
100
AcDbEntity
  8
Layer 3
370
     0
100
AcDbVertex
100
AcDb2dVertex
 10
-3.988042533725212
 20
-25.54366047538492
 30
0.0
  0
VERTEX
  5
18D
330
18B
100
AcDbEntity
  8
Layer 3
370
     0
100
AcDbVertex
100
AcDb2dVertex
 10
-2.398819986379462
 20
-22.61636284156813
 30
0.0
  0
VERTEX
  5
18E
330
18B
100
AcDbEntity
  8
Layer 3
370
     0
100
AcDbVertex
100
AcDb2dVertex
 10
-6.486425779628394
 20
-15.34514431039983
 30
0.0
  0
VERTEX
  5
18F
330
18B
100
AcDbEntity
  8
Layer 3
370
     0
100
AcDbVertex
100
AcDb2dVertex
 10
7.926475692462826
 20
-15.33722059078375
 30
0.0
  0
VERTEX
  5
190
330
18B
100
AcDbEntity
  8
Layer 3
370
     0
100
AcDbVertex
100
AcDb2dVertex
 10
6.408911131210273
 20
-12.39889865141416
 30
0.0
  0
VERTEX
  5
191
330
18B
100
AcDbEntity
  8
Layer 3
370
     0
100
AcDbVertex
100
AcDb2dVertex
 10
-11.20034993209575
 20
-12.47985839531754
 30
0.0
  0
VERTEX
  5
192
330
18B
100
AcDbEntity
  8
Layer 3
370
     0
100
AcDbVertex
100
AcDb2dVertex
 10
-3.988042533725212
 20
-25.54366047538492
 30
0.0
  0
SEQEND
  5
193
330
18B
100
AcDbEntity
  8
Layer 3
370
     0
  0
POLYLINE
  5
194
330
163
100
AcDbEntity
  8
Layer 3
 62
     7
370
    20
100
AcDb2dPolyline
 66
     1
 10
0.0
 20
0.0
 30
0.0
  0
VERTEX
  5
195
330
194
100
AcDbEntity
  8
Layer 3
 62
     7
370
    20
100
AcDbVertex
100
AcDb2dVertex
 10
-3.988042533725212
 20
-25.54366047538492
 30
0.0
  0
VERTEX
  5
196
330
194
100
AcDbEntity
  8
Layer 3
 62
     7
370
    20
100
AcDbVertex
100
AcDb2dVertex
 10
-2.398819986379462
 20
-22.61636284156813
 30
0.0
  0
VERTEX
  5
197
330
194
100
AcDbEntity
  8
Layer 3
 62
     7
370
    20
100
AcDbVertex
100
AcDb2dVertex
 10
-6.486425779628394
 20
-15.34514431039983
 30
0.0
  0
VERTEX
  5
198
330
194
100
AcDbEntity
  8
Layer 3
 62
     7
370
    20
100
AcDbVertex
100
AcDb2dVertex
 10
7.926475692462826
 20
-15.33722059078375
 30
0.0
  0
VERTEX
  5
199
330
194
100
AcDbEntity
  8
Layer 3
 62
     7
370
    20
100
AcDbVertex
100
AcDb2dVertex
 10
6.408911131210273
 20
-12.39889865141416
 30
0.0
  0
VERTEX
  5
19A
330
194
100
AcDbEntity
  8
Layer 3
 62
     7
370
    20
100
AcDbVertex
100
AcDb2dVertex
 10
-11.20034993209575
 20
-12.47985839531754
 30
0.0
  0
VERTEX
  5
19B
330
194
100
AcDbEntity
  8
Layer 3
 62
     7
370
    20
100
AcDbVertex
100
AcDb2dVertex
 10
-3.988042533725212
 20
-25.54366047538492
 30
0.0
  0
SEQEND
  5
19C
330
194
100
AcDbEntity
  8
Layer 3
370
    20
  0
POLYLINE
  5
19D
330
163
100
AcDbEntity
  8
Layer 3
370
     0
100
AcDb2dPolyline
 66
     1
 10
0.0
 20
0.0
 30
0.0
  0
VERTEX
  5
19E
330
19D
100
AcDbEntity
  8
Layer 3
370
     0
100
AcDbVertex
100
AcDb2dVertex
 10
-12.89499240129014
 20
-31.27457681509802
 30
0.0
  0
VERTEX
  5
19F
330
19D
100
AcDbEntity
  8
Layer 3
370
     0
100
AcDbVertex
100
AcDb2dVertex
 10
8.026727971083597
 20
-31.27457681509802
 30
0.0
  0
VERTEX
  5
1A0
330
19D
100
AcDbEntity
  8
Layer 3
370
     0
100
AcDbVertex
100
AcDb2dVertex
 10
8.026727971083597
 20
-12.29899088234192
 30
0.0
  0
VERTEX
  5
1A1
330
19D
100
AcDbEntity
  8
Layer 3
370
     0
100
AcDbVertex
100
AcDb2dVertex
 10
-12.89499240129014
 20
-12.29899088234192
 30
0.0
  0
VERTEX
  5
1A2
330
19D
100
AcDbEntity
  8
Layer 3
370
     0
100
AcDbVertex
100
AcDb2dVertex
 10
-12.89499240129014
 20
-31.27457681509802
 30
0.0
  0
SEQEND
  5
1A3
330
19D
100
AcDbEntity
  8
Layer 3
370
     0
  0
ENDBLK
  5
166
330
163
100
AcDbEntity
  8
0
100
AcDbBlockEnd
  0
ENDSEC
  0
SECTION
  2
ENTITIES
  0
INSERT
  5
3D
330
1F
100
AcDbEntity
  8
Layer 3
100
AcDbBlockReference
  2
block 2
 10
0.0
 20
0.0
 30
0.0
  0
INSERT
  5
41
330
1F
100
AcDbEntity
  8
Layer 3
100
AcDbBlockReference
  2
block 3
 10
0.0
 20
0.0
 30
0.0
  0
INSERT
  5
45
330
1F
100
AcDbEntity
  8
Layer 3
100
AcDbBlockReference
  2
block 4
 10
0.0
 20
0.0
 30
0.0
  0
INSERT
  5
49
330
1F
100
AcDbEntity
  8
Layer 3
100
AcDbBlockReference
  2
block 5
 10
0.0
 20
0.0
 30
0.0
  0
INSERT
  5
4D
330
1F
100
AcDbEntity
  8
Layer 3
100
AcDbBlockReference
  2
block 6
 10
0.0
 20
0.0
 30
0.0
  0
INSERT
  5
51
330
1F
100
AcDbEntity
  8
Layer 3
100
AcDbBlockReference
  2
block 7
 10
0.0
 20
0.0
 30
0.0
  0
INSERT
  5
E2
330
1F
100
AcDbEntity
  8
Layer 3
100
AcDbBlockReference
  2
block 12
 10
0.0
 20
0.0
 30
0.0
  0
ENDSEC
  0
SECTION
  2
OBJECTS
  0
DICTIONARY
  5
C
330
0
100
AcDbDictionary
281
     1
  3
ACAD_GROUP
350
D
  3
ACAD_LAYOUT
350
1A
  3
ACAD_MLINESTYLE
350
17
  3
ACAD_PLOTSETTINGS
350
19
  3
ACAD_PLOTSTYLENAME
350
E
  3
ACAD_TABLESTYLE
350
1AB
  3
ACAD_VISUALSTYLE
350
2A
  0
DICTIONARY
  5
D
102
{ACAD_REACTORS
330
C
102
}
330
C
100
AcDbDictionary
281
     1
  0
DICTIONARY
  5
1A
102
{ACAD_REACTORS
330
C
102
}
330
C
100
AcDbDictionary
281
     1
  3
Layout1
350
1E
  3
Layout2
350
26
  3
Model
350
22
  0
DICTIONARY
  5
17
102
{ACAD_REACTORS
330
C
102
}
330
C
100
AcDbDictionary
281
     1
  3
Standard
350
18
  0
DICTIONARY
  5
19
102
{ACAD_REACTORS
330
C
102
}
330
C
100
AcDbDictionary
281
     1
  0
ACDBDICTIONARYWDFLT
  5
E
102
{ACAD_REACTORS
330
C
102
}
330
C
100
AcDbDictionary
281
     1
  3
Normal
350
F
100
AcDbDictionaryWithDefault
340
F
  0
DICTIONARY
  5
1AB
102
{ACAD_REACTORS
330
C
102
}
330
C
100
AcDbDictionary
281
     1
  0
DICTIONARY
  5
2A
102
{ACAD_REACTORS
330
C
102
}
330
C
100
AcDbDictionary
281
     1
  3
2dWireframe
350
2F
  3
3D Hidden
350
31
  3
3dWireframe
350
30
  3
Basic
350
32
  3
Brighten
350
36
  3
ColorChange
350
3A
  3
Conceptual
350
34
  3
Dim
350
35
  3
Facepattern
350
39
  3
Flat
350
2B
  3
FlatWithEdges
350
2C
  3
Gouraud
350
2D
  3
GouraudWithEdges
350
2E
  3
Linepattern
350
38
  3
Realistic
350
33
  3
Thicken
350
37
  0
LAYOUT
  5
1E
102
{ACAD_REACTORS
330
1A
102
}
330
1A
100
AcDbPlotSettings
  1

  2
none_device
  4

  6

 40
0.0
 41
0.0
 42
0.0
 43
0.0
 44
0.0
 45
0.0
 46
0.0
 47
0.0
 48
0.0
 49
0.0
140
0.0
141
0.0
142
1.0
143
1.0
 70
   688
 72
     0
 73
     0
 74
     5
  7

 75
    16
147
1.0
148
0.0
149
0.0
100
AcDbLayout
  1
Layout1
 70
     1
 71
     1
 10
0.0
 20
0.0
 11
12.0
 21
9.0
 12
0.0
 22
0.0
 32
0.0
 14
1.000000000000000E+20
 24
1.000000000000000E+20
 34
1.000000000000000E+20
 15
-1.000000000000000E+20
 25
-1.000000000000000E+20
 35
-1.000000000000000E+20
146
0.0
 13
0.0
 23
0.0
 33
0.0
 16
1.0
 26
0.0
 36
0.0
 17
0.0
 27
1.0
 37
0.0
 76
     0
330
1B
  0
LAYOUT
  5
26
102
{ACAD_REACTORS
330
1A
102
}
330
1A
100
AcDbPlotSettings
  1

  2
none_device
  4

  6

 40
0.0
 41
0.0
 42
0.0
 43
0.0
 44
0.0
 45
0.0
 46
0.0
 47
0.0
 48
0.0
 49
0.0
140
0.0
141
0.0
142
1.0
143
1.0
 70
   688
 72
     0
 73
     0
 74
     5
  7

 75
    16
147
1.0
148
0.0
149
0.0
100
AcDbLayout
  1
Layout2
 70
     1
 71
     2
 10
0.0
 20
0.0
 11
0.0
 21
0.0
 12
0.0
 22
0.0
 32
0.0
 14
0.0
 24
0.0
 34
0.0
 15
0.0
 25
0.0
 35
0.0
146
0.0
 13
0.0
 23
0.0
 33
0.0
 16
1.0
 26
0.0
 36
0.0
 17
0.0
 27
1.0
 37
0.0
 76
     0
330
23
  0
LAYOUT
  5
22
102
{ACAD_REACTORS
330
1A
102
}
330
1A
100
AcDbPlotSettings
  1

  2
none_device
  4

  6

 40
0.0
 41
0.0
 42
0.0
 43
0.0
 44
0.0
 45
0.0
 46
0.0
 47
0.0
 48
0.0
 49
0.0
140
0.0
141
0.0
142
1.0
143
1.0
 70
  1712
 72
     0
 73
     0
 74
     0
  7

 75
     0
147
1.0
148
0.0
149
0.0
100
AcDbLayout
  1
Model
 70
     1
 71
     0
 10
0.0
 20
0.0
 11
12.0
 21
9.0
 12
0.0
 22
0.0
 32
0.0
 14
1.000000000000000E+20
 24
1.000000000000000E+20
 34
1.000000000000000E+20
 15
-1.000000000000000E+20
 25
-1.000000000000000E+20
 35
-1.000000000000000E+20
146
0.0
 13
0.0
 23
0.0
 33
0.0
 16
1.0
 26
0.0
 36
0.0
 17
0.0
 27
1.0
 37
0.0
 76
     0
330
1F
331
29
  0
MLINESTYLE
  5
18
102
{ACAD_REACTORS
330
17
102
}
330
17
100
AcDbMlineStyle
  2
Standard
 70
     0
  3

 62
   256
 51
90.0
 52
90.0
 71
     2
 49
0.5
 62
   256
  6
BYLAYER
 49
-0.5
 62
   256
  6
BYLAYER
  0
ACDBPLACEHOLDER
  5
F
102
{ACAD_REACTORS
330
E
102
}
330
E
  0
VISUALSTYLE
  5
2F
102
{ACAD_REACTORS
330
2A
102
}
330
2A
100
AcDbVisualStyle
  2
2dWireframe
 70
     4
 71
     0
 72
     2
 73
     0
 90
        0
 40
-0.6
 41
-30.0
 62
     5
 63
     7
 74
     1
 91
        4
 64
     7
 65
   257
 75
     1
175
     1
 42
1.0
 92
        0
 66
   257
 43
1.0
 76
     1
 77
     6
 78
     2
 67
     7
 79
     5
170
     0
171
     0
290
     0
174
     0
 93
        1
 44
0.0
173
     0
291
     0
 45
0.0
1001
ACAD
1000
AcDbSavedByObjectVersion
1070
     0
  0
VISUALSTYLE
  5
31
102
{ACAD_REACTORS
330
2A
102
}
330
2A
100
AcDbVisualStyle
  2
3D Hidden
 70
     6
 71
     1
 72
     2
 73
     2
 90
        0
 40
-0.6
 41
-30.0
 62
     5
 63
     7
 74
     2
 91
        2
 64
     7
 65
   257
 75
     2
175
     1
 42
40.0
 92
        0
 66
   257
 43
1.0
 76
     1
 77
     6
 78
     2
 67
     7
 79
     3
170
     0
171
     0
290
     0
174
     0
 93
        1
 44
0.0
173
     0
291
     0
 45
0.0
1001
ACAD
1000
AcDbSavedByObjectVersion
1070
     0
  0
VISUALSTYLE
  5
30
102
{ACAD_REACTORS
330
2A
102
}
330
2A
100
AcDbVisualStyle
  2
3dWireframe
 70
     5
 71
     0
 72
     2
 73
     0
 90
        0
 40
-0.6
 41
-30.0
 62
     5
 63
     7
 74
     1
 91
        4
 64
     7
 65
   257
 75
     1
175
     1
 42
1.0
 92
        0
 66
   257
 43
1.0
 76
     1
 77
     6
 78
     2
 67
     7
 79
     5
170
     0
171
     0
290
     0
174
     0
 93
        1
 44
0.0
173
     0
291
     0
 45
0.0
1001
ACAD
1000
AcDbSavedByObjectVersion
1070
     0
  0
VISUALSTYLE
  5
32
102
{ACAD_REACTORS
330
2A
102
}
330
2A
100
AcDbVisualStyle
  2
Basic
 70
     7
 71
     1
 72
     0
 73
     1
 90
        0
 40
-0.6
 41
-30.0
 62
     5
 63
     7
 74
     0
 91
        4
 64
     7
 65
   257
 75
     1
175
     1
 42
1.0
 92
        8
 66
     7
 43
1.0
 76
     1
 77
     6
 78
     2
 67
     7
 79
     5
170
     0
171
     0
290
     0
174
     0
 93
        1
 44
0.0
173
     0
291
     1
 45
0.0
1001
ACAD
1000
AcDbSavedByObjectVersion
1070
     0
  0
VISUALSTYLE
  5
36
102
{ACAD_REACTORS
330
2A
102
}
330
2A
100
AcDbVisualStyle
  2
Brighten
 70
    12
 71
     2
 72
     2
 73
     0
 90
        0
 40
-0.6
 41
-30.0
 62
     5
 63
     7
 74
     1
 91
        4
 64
     7
 65
   257
 75
     1
175
     1
 42
1.0
 92
        8
 66
     7
 43
1.0
 76
     1
 77
     6
 78
     2
 67
     7
 79
     5
170
     0
171
     0
290
     0
174
     0
 93
        1
 44
50.0
173
     0
291
     1
 45
0.0
1001
ACAD
1000
AcDbSavedByObjectVersion
1070
     0
  0
VISUALSTYLE
  5
3A
102
{ACAD_REACTORS
330
2A
102
}
330
2A
100
AcDbVisualStyle
  2
ColorChange
 70
    16
 71
     2
 72
     2
 73
     3
 90
        0
 40
-0.6
 41
-30.0
 62
     5
 63
     8
 74
     1
 91
        4
 64
     7
 65
   257
 75
     1
175
     1
 42
1.0
 92
        8
 66
     8
 43
1.0
 76
     1
 77
     6
 78
     2
 67
     7
 79
     5
170
     0
171
     0
290
     0
174
     0
 93
        1
 44
0.0
173
     0
291
     1
 45
0.0
1001
ACAD
1000
AcDbSavedByObjectVersion
1070
     0
  0
VISUALSTYLE
  5
34
102
{ACAD_REACTORS
330
2A
102
}
330
2A
100
AcDbVisualStyle
  2
Conceptual
 70
     9
 71
     3
 72
     2
 73
     0
 90
        0
 40
-0.6
 41
-30.0
 62
     5
 63
     7
 74
     2
 91
        2
 64
     7
 65
   257
 75
     1
175
     1
 42
40.0
 92
        8
 66
     7
 43
1.0
 76
     1
 77
     6
 78
     2
 67
     7
 79
     3
170
     0
171
     0
290
     0
174
     0
 93
        1
 44
0.0
173
     0
291
     0
 45
0.0
1001
ACAD
1000
AcDbSavedByObjectVersion
1070
     0
  0
VISUALSTYLE
  5
35
102
{ACAD_REACTORS
330
2A
102
}
330
2A
100
AcDbVisualStyle
  2
Dim
 70
    11
 71
     2
 72
     2
 73
     0
 90
        0
 40
-0.6
 41
-30.0
 62
     5
 63
     7
 74
     1
 91
        4
 64
     7
 65
   257
 75
     1
175
     1
 42
1.0
 92
        8
 66
     7
 43
1.0
 76
     1
 77
     6
 78
     2
 67
     7
 79
     5
170
     0
171
     0
290
     0
174
     0
 93
        1
 44
-50.0
173
     0
291
     1
 45
0.0
1001
ACAD
1000
AcDbSavedByObjectVersion
1070
     0
  0
VISUALSTYLE
  5
39
102
{ACAD_REACTORS
330
2A
102
}
330
2A
100
AcDbVisualStyle
  2
Facepattern
 70
    15
 71
     2
 72
     2
 73
     0
 90
        0
 40
-0.6
 41
-30.0
 62
     5
 63
     7
 74
     1
 91
        4
 64
     7
 65
   257
 75
     1
175
     1
 42
1.0
 92
        8
 66
     7
 43
1.0
 76
     1
 77
     6
 78
     2
 67
     7
 79
     5
170
     0
171
     0
290
     0
174
     0
 93
        1
 44
0.0
173
     0
291
     1
 45
0.0
1001
ACAD
1000
AcDbSavedByObjectVersion
1070
     0
  0
VISUALSTYLE
  5
2B
102
{ACAD_REACTORS
330
2A
102
}
330
2A
100
AcDbVisualStyle
  2
Flat
 70
     0
 71
     2
 72
     1
 73
     1
 90
        2
 40
-0.6
 41
30.0
 62
     5
 63
     7
 74
     0
 91
        4
 64
     7
 65
   257
 75
     1
175
     1
 42
1.0
 92
        8
 66
     7
 43
1.0
 76
     1
 77
     6
 78
     2
 67
     7
 79
     5
170
     0
171
     0
290
     0
174
     0
 93
       13
 44
0.0
173
     0
291
     1
 45
0.0
1001
ACAD
1000
AcDbSavedByObjectVersion
1070
     0
  0
VISUALSTYLE
  5
2C
102
{ACAD_REACTORS
330
2A
102
}
330
2A
100
AcDbVisualStyle
  2
FlatWithEdges
 70
     1
 71
     2
 72
     1
 73
     1
 90
        2
 40
-0.6
 41
30.0
 62
     5
 63
     7
 74
     1
 91
        4
 64
     7
 65
   257
 75
     1
175
     1
 42
1.0
 92
        0
 66
   257
 43
1.0
 76
     1
 77
     6
 78
     2
 67
     7
 79
     5
170
     0
171
     0
290
     0
174
     0
 93
       13
 44
0.0
173
     0
291
     1
 45
0.0
1001
ACAD
1000
AcDbSavedByObjectVersion
1070
     0
  0
VISUALSTYLE
  5
2D
102
{ACAD_REACTORS
330
2A
102
}
330
2A
100
AcDbVisualStyle
  2
Gouraud
 70
     2
 71
     2
 72
     2
 73
     1
 90
        2
 40
-0.6
 41
30.0
 62
     5
 63
     7
 74
     0
 91
        4
 64
     7
 65
   257
 75
     1
175
     1
 42
1.0
 92
        0
 66
     7
 43
1.0
 76
     1
 77
     6
 78
     2
 67
     7
 79
     5
170
     0
171
     0
290
     0
174
     0
 93
       13
 44
0.0
173
     0
291
     1
 45
0.0
1001
ACAD
1000
AcDbSavedByObjectVersion
1070
     0
  0
VISUALSTYLE
  5
2E
102
{ACAD_REACTORS
330
2A
102
}
330
2A
100
AcDbVisualStyle
  2
GouraudWithEdges
 70
     3
 71
     2
 72
     2
 73
     1
 90
        2
 40
-0.6
 41
30.0
 62
     5
 63
     7
 74
     1
 91
        4
 64
     7
 65
   257
 75
     1
175
     1
 42
1.0
 92
        0
 66
   257
 43
1.0
 76
     1
 77
     6
 78
     2
 67
     7
 79
     5
170
     0
171
     0
290
     0
174
     0
 93
       13
 44
0.0
173
     0
291
     1
 45
0.0
1001
ACAD
1000
AcDbSavedByObjectVersion
1070
     0
  0
VISUALSTYLE
  5
38
102
{ACAD_REACTORS
330
2A
102
}
330
2A
100
AcDbVisualStyle
  2
Linepattern
 70
    14
 71
     2
 72
     2
 73
     0
 90
        0
 40
-0.6
 41
-30.0
 62
     5
 63
     7
 74
     1
 91
        4
 64
     7
 65
   257
 75
     7
175
     7
 42
1.0
 92
        8
 66
     7
 43
1.0
 76
     1
 77
     6
 78
     2
 67
     7
 79
     5
170
     0
171
     0
290
     0
174
     0
 93
        1
 44
0.0
173
     0
291
     1
 45
0.0
1001
ACAD
1000
AcDbSavedByObjectVersion
1070
     0
  0
VISUALSTYLE
  5
33
102
{ACAD_REACTORS
330
2A
102
}
330
2A
100
AcDbVisualStyle
  2
Realistic
 70
     8
 71
     2
 72
     2
 73
     0
 90
        0
 40
-0.6
 41
-30.0
 62
     5
 63
     7
 74
     1
 91
        0
 64
     7
 65
   257
 75
     1
175
     1
 42
1.0
 92
        8
 66
     8
 43
1.0
 76
     1
 77
     6
 78
     2
 67
     7
 79
     5
170
     0
171
     0
290
     0
174
     0
 93
       13
 44
0.0
173
     0
291
     0
 45
0.0
1001
ACAD
1000
AcDbSavedByObjectVersion
1070
     0
  0
VISUALSTYLE
  5
37
102
{ACAD_REACTORS
330
2A
102
}
330
2A
100
AcDbVisualStyle
  2
Thicken
 70
    13
 71
     2
 72
     2
 73
     0
 90
        0
 40
-0.6
 41
-30.0
 62
     5
 63
     7
 74
     1
 91
        4
 64
     7
 65
   257
 75
     1
175
     1
 42
1.0
 92
       12
 66
     7
 43
1.0
 76
     1
 77
     6
 78
     2
 67
     7
 79
     5
170
     0
171
     0
290
     0
174
     0
 93
        1
 44
0.0
173
     0
291
     1
 45
0.0
1001
ACAD
1000
AcDbSavedByObjectVersion
1070
     0
  0
ENDSEC
  0
EOF
